ISO-10303-21;
HEADER;
FILE_DESCRIPTION (( 'STEP AP203' ),
    '1' );
FILE_NAME ('Cone.STEP',
    '2026-01-09T05:57:20',
    ( '' ),
    ( '' ),
    'SwSTEP 2.0',
    'SolidWorks 2026',
    '' );
FILE_SCHEMA (( 'CONFIG_CONTROL_DESIGN' ));
ENDSEC;

DATA;
#1 = PERSON_AND_ORGANIZATION_ROLE ( 'classification_officer' ) ;
#2 = DIRECTION ( 'NONE',  ( 0.000000000000000000, -1.000000000000000000, 0.000000000000000000 ) ) ;
#3 = DATE_AND_TIME ( #14, #26 ) ;
#4 = CALENDAR_DATE ( 2026, 9, 1 ) ;
#5 = MANIFOLD_SOLID_BREP ( 'Revolve1', #146 ) ;
#6 = PRODUCT_DEFINITION ( 'General', '', #118, #132 ) ;
#7 = EDGE_CURVE ( 'NONE', #103, #9, #85, .T. ) ;
#8 = EDGE_LOOP ( 'NONE', ( #22, #67 ) ) ;
#9 = VERTEX_POINT ( 'NONE', #153 ) ;
#10 = VERTEX_POINT ( 'NONE', #142 ) ;
#11 = DIRECTION ( 'NONE',  ( -0.000000000000000000, 1.000000000000000000, 0.000000000000000000 ) ) ;
#12 =( NAMED_UNIT ( * ) SI_UNIT ( $, .STERADIAN. ) SOLID_ANGLE_UNIT ( ) );
#13 = CALENDAR_DATE ( 2026, 9, 1 ) ;
#14 = CALENDAR_DATE ( 2026, 9, 1 ) ;
#15 = AXIS2_PLACEMENT_3D ( 'NONE', #168, #37, #130 ) ;
#16 = APPROVAL_ROLE ( '' ) ;
#17 = APPROVAL_PERSON_ORGANIZATION ( #90, #105, #86 ) ;
#18 = CC_DESIGN_DATE_AND_TIME_ASSIGNMENT ( #3, #162, ( #45 ) ) ;
#19 = CC_DESIGN_PERSON_AND_ORGANIZATION_ASSIGNMENT ( #87, #44, ( #6 ) ) ;
#20 = DIRECTION ( 'NONE',  ( 0.000000000000000000, 0.000000000000000000, -1.000000000000000000 ) ) ;
#21 = DIRECTION ( 'NONE',  ( 0.000000000000000000, -1.000000000000000000, 0.000000000000000000 ) ) ;
#22 = ORIENTED_EDGE ( 'NONE', *, *, #116, .F. ) ;
#23 = UNCERTAINTY_MEASURE_WITH_UNIT (LENGTH_MEASURE( 1.000000000000000082E-05 ), #148, 'distance_accuracy_value', 'NONE');
#24 = ORIENTED_EDGE ( 'NONE', *, *, #70, .T. ) ;
#25 = APPROVAL_STATUS ( 'not_yet_approved' ) ;
#26 = LOCAL_TIME ( 0, 57, 20.00000000000000000, #43 ) ;
#27 = CC_DESIGN_DATE_AND_TIME_ASSIGNMENT ( #75, #62, ( #6 ) ) ;
#28 = PERSON_AND_ORGANIZATION ( #18446744073709551615, #18446744073709551615 ) ;
#29 = PRODUCT_DEFINITION_SHAPE ( 'NONE', 'NONE',  #6 ) ;
#30 = PERSON_AND_ORGANIZATION ( #18446744073709551615, #18446744073709551615 ) ;
#31 = COORDINATED_UNIVERSAL_TIME_OFFSET ( 5, 0, .BEHIND. ) ;
#32 = CONICAL_SURFACE ( 'NONE', #126, 0.009000000000000001055, 0.3366748193867272754 ) ;
#33 = LOCAL_TIME ( 0, 57, 20.00000000000000000, #31 ) ;
#34 = EDGE_LOOP ( 'NONE', ( #92, #110, #91, #57 ) ) ;
#35 = DIRECTION ( 'NONE',  ( 4.045625902402438542E-17, -0.9438583563660173370, 0.3303504247281061623 ) ) ;
#36 = CARTESIAN_POINT ( 'NONE',  ( -0.004988290398126466949, -0.004074941451990632749, 0.000000000000000000 ) ) ;
#37 = DIRECTION ( 'NONE',  ( -0.000000000000000000, 1.000000000000000000, -0.000000000000000000 ) ) ;
#38 = CC_DESIGN_PERSON_AND_ORGANIZATION_ASSIGNMENT ( #111, #100, ( #118 ) ) ;
#39 = DIRECTION ( 'NONE',  ( 0.000000000000000000, 0.000000000000000000, 1.000000000000000000 ) ) ;
#40 = ADVANCED_FACE ( 'NONE', ( #107 ), #164, .T. ) ;
#41 = PERSON_AND_ORGANIZATION ( #18446744073709551615, #18446744073709551615 ) ;
#42 = CC_DESIGN_APPROVAL ( #105, ( #118 ) ) ;
#43 = COORDINATED_UNIVERSAL_TIME_OFFSET ( 5, 0, .BEHIND. ) ;
#44 = PERSON_AND_ORGANIZATION_ROLE ( 'creator' ) ;
#45 = SECURITY_CLASSIFICATION ( '', '', #124 ) ;
#46 = SHAPE_DEFINITION_REPRESENTATION ( #29, #171 ) ;
#47 = ADVANCED_FACE ( 'NONE', ( #54 ), #32, .T. ) ;
#48 = CIRCLE ( 'NONE', #15, 0.005499999999999999681 ) ;
#49 = APPROVAL_PERSON_ORGANIZATION ( #30, #78, #16 ) ;
#50 = EDGE_LOOP ( 'NONE', ( #169, #80, #159, #119 ) ) ;
#51 = CARTESIAN_POINT ( 'NONE',  ( -0.004988290398126466949, -0.004074941451990632749, 0.000000000000000000 ) ) ;
#52 =( GEOMETRIC_REPRESENTATION_CONTEXT ( 3 ) GLOBAL_UNCERTAINTY_ASSIGNED_CONTEXT ( ( #23 ) ) GLOBAL_UNIT_ASSIGNED_CONTEXT ( ( #148, #138, #12 ) ) REPRESENTATION_CONTEXT ( 'NONE', 'WORKASPACE' ) );
#53 = CARTESIAN_POINT ( 'NONE',  ( -0.004988290398126466949, -0.004074941451990632749, -0.009000000000000001055 ) ) ;
#54 = FACE_OUTER_BOUND ( 'NONE', #34, .T. ) ;
#55 = ADVANCED_FACE ( 'NONE', ( #82 ), #155, .F. ) ;
#56 = AXIS2_PLACEMENT_3D ( 'NONE', #84, #96, #156 ) ;
#57 = ORIENTED_EDGE ( 'NONE', *, *, #116, .T. ) ;
#58 = PRODUCT ( 'Cone', 'Cone', '', ( #160 ) ) ;
#59 = COORDINATED_UNIVERSAL_TIME_OFFSET ( 5, 0, .BEHIND. ) ;
#60 = EDGE_CURVE ( 'NONE', #10, #9, #98, .T. ) ;
#61 = APPLICATION_PROTOCOL_DEFINITION ( 'international standard', 'config_control_design', 1994, #89 ) ;
#62 = DATE_TIME_ROLE ( 'creation_date' ) ;
#63 = CIRCLE ( 'NONE', #56, 0.005499999999999999681 ) ;
#64 = DIRECTION ( 'NONE',  ( 0.000000000000000000, 0.000000000000000000, 1.000000000000000000 ) ) ;
#65 = AXIS2_PLACEMENT_3D ( 'NONE', #51, #134, #69 ) ;
#66 = DIRECTION ( 'NONE',  ( 0.000000000000000000, -1.000000000000000000, 0.000000000000000000 ) ) ;
#67 = ORIENTED_EDGE ( 'NONE', *, *, #60, .F. ) ;
#68 = APPLICATION_CONTEXT ( 'configuration controlled 3d designs of mechanical parts and assemblies' ) ;
#69 = DIRECTION ( 'NONE',  ( 0.000000000000000000, 0.000000000000000000, 1.000000000000000000 ) ) ;
#70 = EDGE_CURVE ( 'NONE', #103, #167, #63, .T. ) ;
#71 = APPROVAL_ROLE ( '' ) ;
#72 = PERSON_AND_ORGANIZATION_ROLE ( 'design_supplier' ) ;
#73 = APPROVAL_STATUS ( 'not_yet_approved' ) ;
#74 = AXIS2_PLACEMENT_3D ( 'NONE', #97, #64, #114 ) ;
#75 = DATE_AND_TIME ( #150, #95 ) ;
#76 = CARTESIAN_POINT ( 'NONE',  ( -0.004988290398126466081, 0.005925058548009367460, 0.005499999999999999681 ) ) ;
#77 = DATE_AND_TIME ( #4, #131 ) ;
#78 = APPROVAL ( #140, 'Coincident' ) ;
#79 = APPROVAL_PERSON_ORGANIZATION ( #149, #112, #71 ) ;
#80 = ORIENTED_EDGE ( 'NONE', *, *, #121, .T. ) ;
#81 = VECTOR ( 'NONE', #35, 1.000000000000000222 ) ;
#82 = FACE_OUTER_BOUND ( 'NONE', #8, .T. ) ;
#83 = DIRECTION ( 'NONE',  ( 0.000000000000000000, 0.000000000000000000, -1.000000000000000000 ) ) ;
#84 = CARTESIAN_POINT ( 'NONE',  ( -0.004988290398126466949, 0.005925058548009367460, 0.000000000000000000 ) ) ;
#85 = LINE ( 'NONE', #53, #122 ) ;
#86 = APPROVAL_ROLE ( '' ) ;
#87 = PERSON_AND_ORGANIZATION ( #18446744073709551615, #18446744073709551615 ) ;
#88 = CARTESIAN_POINT ( 'NONE',  ( -0.004988290398126466949, 0.005925058548009368327, 0.000000000000000000 ) ) ;
#89 = APPLICATION_CONTEXT ( 'configuration controlled 3d designs of mechanical parts and assemblies' ) ;
#90 = PERSON_AND_ORGANIZATION ( #18446744073709551615, #18446744073709551615 ) ;
#91 = ORIENTED_EDGE ( 'NONE', *, *, #7, .T. ) ;
#92 = ORIENTED_EDGE ( 'NONE', *, *, #121, .F. ) ;
#93 = CARTESIAN_POINT ( 'NONE',  ( -0.004988290398126466949, -0.004074941451990632749, 0.000000000000000000 ) ) ;
#94 = CARTESIAN_POINT ( 'NONE',  ( -0.004988290398126466949, -0.004074941451990632749, 0.000000000000000000 ) ) ;
#95 = LOCAL_TIME ( 0, 57, 20.00000000000000000, #113 ) ;
#96 = DIRECTION ( 'NONE',  ( -0.000000000000000000, 1.000000000000000000, -0.000000000000000000 ) ) ;
#97 = CARTESIAN_POINT ( 'NONE',  ( 0.000000000000000000, 0.000000000000000000, 0.000000000000000000 ) ) ;
#98 = CIRCLE ( 'NONE', #117, 0.009000000000000001055 ) ;
#99 = CC_DESIGN_APPROVAL ( #112, ( #6 ) ) ;
#100 = PERSON_AND_ORGANIZATION_ROLE ( 'creator' ) ;
#101 = DIRECTION ( 'NONE',  ( 0.000000000000000000, -0.000000000000000000, -1.000000000000000000 ) ) ;
#102 = EDGE_CURVE ( 'NONE', #167, #103, #48, .T. ) ;
#103 = VERTEX_POINT ( 'NONE', #144 ) ;
#104 = ORIENTED_EDGE ( 'NONE', *, *, #102, .T. ) ;
#105 = APPROVAL ( #25, 'Coincident' ) ;
#106 = LINE ( 'NONE', #154, #81 ) ;
#107 = FACE_OUTER_BOUND ( 'NONE', #50, .T. ) ;
#108 = DIRECTION ( 'NONE',  ( 0.000000000000000000, 0.000000000000000000, 1.000000000000000000 ) ) ;
#109 = CC_DESIGN_APPROVAL ( #78, ( #45 ) ) ;
#110 = ORIENTED_EDGE ( 'NONE', *, *, #70, .F. ) ;
#111 = PERSON_AND_ORGANIZATION ( #18446744073709551615, #18446744073709551615 ) ;
#112 = APPROVAL ( #73, 'Coincident' ) ;
#113 = COORDINATED_UNIVERSAL_TIME_OFFSET ( 5, 0, .BEHIND. ) ;
#114 = DIRECTION ( 'NONE',  ( 1.000000000000000000, 0.000000000000000000, 0.000000000000000000 ) ) ;
#115 = APPLICATION_PROTOCOL_DEFINITION ( 'international standard', 'config_control_design', 1994, #68 ) ;
#116 = EDGE_CURVE ( 'NONE', #9, #10, #157, .T. ) ;
#117 = AXIS2_PLACEMENT_3D ( 'NONE', #94, #143, #108 ) ;
#118 = PRODUCT_DEFINITION_FORMATION_WITH_SPECIFIED_SOURCE ( 'Symmetric', '', #58, .NOT_KNOWN. ) ;
#119 = ORIENTED_EDGE ( 'NONE', *, *, #7, .F. ) ;
#120 = DIRECTION ( 'NONE',  ( 0.000000000000000000, -0.9438583563660173370, -0.3303504247281061623 ) ) ;
#121 = EDGE_CURVE ( 'NONE', #167, #10, #106, .T. ) ;
#122 = VECTOR ( 'NONE', #120, 1.000000000000000222 ) ;
#123 = FACE_OUTER_BOUND ( 'NONE', #151, .T. ) ;
#124 = SECURITY_CLASSIFICATION_LEVEL ( 'unclassified' ) ;
#125 = APPROVAL_DATE_TIME ( #163, #112 ) ;
#126 = AXIS2_PLACEMENT_3D ( 'NONE', #93, #66, #20 ) ;
#127 = COORDINATED_UNIVERSAL_TIME_OFFSET ( 5, 0, .BEHIND. ) ;
#128 = APPROVAL_DATE_TIME ( #77, #78 ) ;
#129 = CC_DESIGN_SECURITY_CLASSIFICATION ( #45, ( #118 ) ) ;
#130 = DIRECTION ( 'NONE',  ( 0.000000000000000000, 0.000000000000000000, 1.000000000000000000 ) ) ;
#131 = LOCAL_TIME ( 0, 57, 20.00000000000000000, #127 ) ;
#132 = DESIGN_CONTEXT ( 'detailed design', #89, 'design' ) ;
#133 = PRODUCT_RELATED_PRODUCT_CATEGORY ( 'detail', '', ( #58 ) ) ;
#134 = DIRECTION ( 'NONE',  ( -0.000000000000000000, 1.000000000000000000, -0.000000000000000000 ) ) ;
#135 = AXIS2_PLACEMENT_3D ( 'NONE', #36, #21, #83 ) ;
#136 = CC_DESIGN_PERSON_AND_ORGANIZATION_ASSIGNMENT ( #28, #72, ( #118 ) ) ;
#137 = DATE_AND_TIME ( #161, #158 ) ;
#138 =( NAMED_UNIT ( * ) PLANE_ANGLE_UNIT ( ) SI_UNIT ( $, .RADIAN. ) );
#139 = PERSON_AND_ORGANIZATION ( #18446744073709551615, #18446744073709551615 ) ;
#140 = APPROVAL_STATUS ( 'not_yet_approved' ) ;
#141 = CC_DESIGN_PERSON_AND_ORGANIZATION_ASSIGNMENT ( #139, #1, ( #45 ) ) ;
#142 = CARTESIAN_POINT ( 'NONE',  ( -0.004988290398126466081, -0.004074941451990632749, 0.009000000000000001055 ) ) ;
#143 = DIRECTION ( 'NONE',  ( -0.000000000000000000, 1.000000000000000000, -0.000000000000000000 ) ) ;
#144 = CARTESIAN_POINT ( 'NONE',  ( -0.004988290398126466949, 0.005925058548009367460, -0.005499999999999999681 ) ) ;
#145 = PLANE ( 'NONE',  #152 ) ;
#146 = CLOSED_SHELL ( 'NONE', ( #40, #165, #47, #55 ) ) ;
#147 = APPROVAL_DATE_TIME ( #137, #105 ) ;
#148 =( LENGTH_UNIT ( ) NAMED_UNIT ( * ) SI_UNIT ( $, .METRE. ) );
#149 = PERSON_AND_ORGANIZATION ( #18446744073709551615, #18446744073709551615 ) ;
#150 = CALENDAR_DATE ( 2026, 9, 1 ) ;
#151 = EDGE_LOOP ( 'NONE', ( #24, #104 ) ) ;
#152 = AXIS2_PLACEMENT_3D ( 'NONE', #88, #2, #101 ) ;
#153 = CARTESIAN_POINT ( 'NONE',  ( -0.004988290398126466949, -0.004074941451990632749, -0.009000000000000001055 ) ) ;
#154 = CARTESIAN_POINT ( 'NONE',  ( -0.004988290398126466081, -0.004074941451990632749, 0.009000000000000001055 ) ) ;
#155 = PLANE ( 'NONE',  #166 ) ;
#156 = DIRECTION ( 'NONE',  ( 0.000000000000000000, 0.000000000000000000, 1.000000000000000000 ) ) ;
#157 = CIRCLE ( 'NONE', #65, 0.009000000000000001055 ) ;
#158 = LOCAL_TIME ( 0, 57, 20.00000000000000000, #59 ) ;
#159 = ORIENTED_EDGE ( 'NONE', *, *, #60, .T. ) ;
#160 = MECHANICAL_CONTEXT ( 'NONE', #68, 'mechanical' ) ;
#161 = CALENDAR_DATE ( 2026, 9, 1 ) ;
#162 = DATE_TIME_ROLE ( 'classification_date' ) ;
#163 = DATE_AND_TIME ( #13, #33 ) ;
#164 = CONICAL_SURFACE ( 'NONE', #135, 0.009000000000000001055, 0.3366748193867272754 ) ;
#165 = ADVANCED_FACE ( 'NONE', ( #123 ), #145, .F. ) ;
#166 = AXIS2_PLACEMENT_3D ( 'NONE', #170, #11, #39 ) ;
#167 = VERTEX_POINT ( 'NONE', #76 ) ;
#168 = CARTESIAN_POINT ( 'NONE',  ( -0.004988290398126466949, 0.005925058548009367460, 0.000000000000000000 ) ) ;
#169 = ORIENTED_EDGE ( 'NONE', *, *, #102, .F. ) ;
#170 = CARTESIAN_POINT ( 'NONE',  ( -0.004988290398126466949, -0.004074941451990632749, 0.000000000000000000 ) ) ;
#171 = ADVANCED_BREP_SHAPE_REPRESENTATION ( 'Cone', ( #5, #74 ), #52 ) ;
#172 = PERSON_AND_ORGANIZATION_ROLE ( 'design_owner' ) ;
#173 = CC_DESIGN_PERSON_AND_ORGANIZATION_ASSIGNMENT ( #41, #172, ( #58 ) ) ;
ENDSEC;
END-ISO-10303-21;
