ISO-10303-21;
HEADER;
FILE_DESCRIPTION (( 'STEP AP203' ),
    '1' );
FILE_NAME ('Cone.STEP',
    '2026-01-09T05:57:20',
    ( '' ),
    ( '' ),
    'SwSTEP 2.0',
    'SolidWorks 2026',
    '' );
FILE_SCHEMA (( 'CONFIG_CONTROL_DESIGN' ));
ENDSEC;

DATA;
#1 = COORDINATED_UNIVERSAL_TIME_OFFSET ( 5, 0, .BEHIND. ) ;
#2 = PERSON_AND_ORGANIZATION ( #18446744073709551615, #18446744073709551615 ) ;
#3 = APPROVAL_ROLE ( '' ) ;
#4 = PRODUCT_DEFINITION_SHAPE ( 'NONE', 'NONE',  #39 ) ;
#5 = PERSON_AND_ORGANIZATION_ROLE ( 'classification_officer' ) ;
#6 = PERSON_AND_ORGANIZATION ( #18446744073709551615, #18446744073709551615 ) ;
#7 = CC_DESIGN_PERSON_AND_ORGANIZATION_ASSIGNMENT ( #306, #8, ( #20 ) ) ;
#8 = PERSON_AND_ORGANIZATION_ROLE ( 'design_owner' ) ;
#9 = APPROVAL_DATE_TIME ( #169, #242 ) ;
#10 = DATE_AND_TIME ( #61, #210 ) ;
#11 = CC_DESIGN_PERSON_AND_ORGANIZATION_ASSIGNMENT ( #6, #332, ( #117 ) ) ;
#12 = CC_DESIGN_APPROVAL ( #242, ( #253 ) ) ;
#13 = CALENDAR_DATE ( 2026, 9, 1 ) ;
#14 = CALENDAR_DATE ( 2026, 9, 1 ) ;
#15 = APPLICATION_CONTEXT ( 'configuration controlled 3d designs of mechanical parts and assemblies' ) ;
#16 = COORDINATED_UNIVERSAL_TIME_OFFSET ( 5, 0, .BEHIND. ) ;
#17 = CC_DESIGN_APPROVAL ( #138, ( #117 ) ) ;
#18 = APPROVAL_PERSON_ORGANIZATION ( #204, #103, #171 ) ;
#19 = SECURITY_CLASSIFICATION_LEVEL ( 'unclassified' ) ;
#20 = PRODUCT ( 'Top', 'Top', '', ( #246 ) ) ;
#21 = DESIGN_CONTEXT ( 'detailed design', #15, 'design' ) ;
#22 = PRODUCT_RELATED_PRODUCT_CATEGORY ( 'detail', '', ( #74 ) ) ;
#23 = PERSON_AND_ORGANIZATION ( #18446744073709551615, #18446744073709551615 ) ;
#24 =( GEOMETRIC_REPRESENTATION_CONTEXT ( 3 ) GLOBAL_UNCERTAINTY_ASSIGNED_CONTEXT ( ( #126 ) ) GLOBAL_UNIT_ASSIGNED_CONTEXT ( ( #257, #339, #288 ) ) REPRESENTATION_CONTEXT ( 'NONE', 'WORKASPACE' ) );
#25 = PRODUCT_DEFINITION_FORMATION_WITH_SPECIFIED_SOURCE ( 'Symmetric', '', #74, .NOT_KNOWN. ) ;
#26 = SECURITY_CLASSIFICATION ( '', '', #250 ) ;
#27 = APPROVAL_DATE_TIME ( #323, #278 ) ;
#28 = PERSON_AND_ORGANIZATION_ROLE ( 'classification_officer' ) ;
#29 = APPROVAL_ROLE ( '' ) ;
#30 = LOCAL_TIME ( 0, 57, 20.00000000000000000, #128 ) ;
#31 = COORDINATED_UNIVERSAL_TIME_OFFSET ( 5, 0, .BEHIND. ) ;
#32 = PERSON_AND_ORGANIZATION ( #212, #222 ) ;
#33 = APPROVAL_ROLE ( '' ) ;
#34 = APPLICATION_CONTEXT ( 'configuration controlled 3d designs of mechanical parts and assemblies' ) ;
#35 = APPROVAL_PERSON_ORGANIZATION ( #85, #261, #135 ) ;
#36 = APPROVAL_PERSON_ORGANIZATION ( #292, #134, #3 ) ;
#37 = CC_DESIGN_APPROVAL ( #307, ( #64 ) ) ;
#38 = CALENDAR_DATE ( 2026, 9, 1 ) ;
#39 = PRODUCT_DEFINITION ( 'General', '', #25, #21 ) ;
#40 = PERSON_AND_ORGANIZATION ( #18446744073709551615, #18446744073709551615 ) ;
#41 = DATE_TIME_ROLE ( 'classification_date' ) ;
#42 = APPROVAL ( #113, 'Coincident' ) ;
#43 = PERSON_AND_ORGANIZATION_ROLE ( 'creator' ) ;
#44 = APPLIED_DOCUMENT_REFERENCE ( #260,'',( #117) ) ;
#45 = DIRECTION ( 'NONE',  ( 0.000000000000000000, 0.000000000000000000, 1.000000000000000000 ) ) ;
#46 = CC_DESIGN_SECURITY_CLASSIFICATION ( #182, ( #315 ) ) ;
#47 = APPLICATION_PROTOCOL_DEFINITION ( 'international standard', 'config_control_design', 1994, #343 ) ;
#48 = UNCERTAINTY_MEASURE_WITH_UNIT (LENGTH_MEASURE( 1.000000000000000082E-05 ), #336, 'distance_accuracy_value', 'NONE');
#49 = PRODUCT_DEFINITION_SHAPE ( 'NONE', 'NONE',  #117 ) ;
#50 = PRODUCT_DEFINITION_SHAPE ( 'NONE', 'NONE',  #296 ) ;
#51 = DATE_TIME_ROLE ( 'creation_date' ) ;
#52 = LOCAL_TIME ( 0, 57, 20.00000000000000000, #1 ) ;
#53 =( REPRESENTATION_RELATIONSHIP ('NONE','NONE', #185, #71 ) REPRESENTATION_RELATIONSHIP_WITH_TRANSFORMATION ( #166 )SHAPE_REPRESENTATION_RELATIONSHIP( ) );
#54 = CC_DESIGN_PERSON_AND_ORGANIZATION_ASSIGNMENT ( #158, #5, ( #182 ) ) ;
#55 = PERSON_AND_ORGANIZATION ( #18446744073709551615, #18446744073709551615 ) ;
#56 = CALENDAR_DATE ( 2026, 9, 1 ) ;
#57 = DATE_AND_TIME ( #163, #161 ) ;
#58 =( NAMED_UNIT ( * ) PLANE_ANGLE_UNIT ( ) SI_UNIT ( $, .RADIAN. ) );
#59 = LOCAL_TIME ( 0, 57, 20.00000000000000000, #31 ) ;
#60 = PERSON_AND_ORGANIZATION ( #18446744073709551615, #18446744073709551615 ) ;
#61 = CALENDAR_DATE ( 2026, 9, 1 ) ;
#62 = COORDINATED_UNIVERSAL_TIME_OFFSET ( 5, 0, .BEHIND. ) ;
#63 = AXIS2_PLACEMENT_3D ( 'NONE', #206, #289, #97 ) ;
#64 = SECURITY_CLASSIFICATION ( '', '', #198 ) ;
#65 = APPLICATION_CONTEXT ( 'configuration controlled 3d designs of mechanical parts and assemblies' ) ;
#66 = CALENDAR_DATE ( 2026, 9, 1 ) ;
#67 = DATE_AND_TIME ( #330, #118 ) ;
#68 = COORDINATED_UNIVERSAL_TIME_OFFSET ( 5, 0, .BEHIND. ) ;
#69 = CONTEXT_DEPENDENT_SHAPE_REPRESENTATION ( #197, #175 ) ;
#70 = CC_DESIGN_SECURITY_CLASSIFICATION ( #341, ( #345 ) ) ;
#71 = SHAPE_REPRESENTATION ( 'Top', ( #233 ), #91 ) ;
#72 = CARTESIAN_POINT ( 'NONE',  ( 0.003366182185141841643, -0.003522896378544748686, 0.0006171153027025866322 ) ) ;
#73 = CARTESIAN_POINT ( 'NONE',  ( 0.000000000000000000, 0.000000000000000000, 0.000000000000000000 ) ) ;
#74 = PRODUCT ( 'Cone', 'Cone', '', ( #342 ) ) ;
#75 = PERSON_AND_ORGANIZATION_ROLE ( 'design_owner' ) ;
#76 = CC_DESIGN_DATE_AND_TIME_ASSIGNMENT ( #57, #160, ( #253 ) ) ;
#77 = CALENDAR_DATE ( 2026, 9, 1 ) ;
#78 = APPROVAL ( #195, 'UNKNOWN' ) ;
#79 = SHAPE_DEFINITION_REPRESENTATION ( #50, #185 ) ;
#80 = LOCAL_TIME ( 0, 57, 20.00000000000000000, #325 ) ;
#81 = APPROVAL_DATE_TIME ( #291, #261 ) ;
#82 = PROPERTY_DEFINITION ('document property','', #258 ) ;
#83 = DATE_AND_TIME ( #106, #140 ) ;
#84 = CARTESIAN_POINT ( 'NONE',  ( 0.000000000000000000, 0.000000000000000000, 0.000000000000000000 ) ) ;
#85 = PERSON_AND_ORGANIZATION ( #18446744073709551615, #18446744073709551615 ) ;
#86 = CC_DESIGN_APPROVAL ( #318, ( #182 ) ) ;
#87 = COORDINATED_UNIVERSAL_TIME_OFFSET ( 5, 0, .BEHIND. ) ;
#88 = DATE_TIME_ROLE ( 'classification_date' ) ;
#89 = CC_DESIGN_PERSON_AND_ORGANIZATION_ASSIGNMENT ( #32, #124, ( #26 ) ) ;
#90 = APPROVAL_DATE_TIME ( #251, #307 ) ;
#91 =( GEOMETRIC_REPRESENTATION_CONTEXT ( 3 ) GLOBAL_UNCERTAINTY_ASSIGNED_CONTEXT ( ( #153 ) ) GLOBAL_UNIT_ASSIGNED_CONTEXT ( ( #187, #58, #220 ) ) REPRESENTATION_CONTEXT ( 'NONE', 'WORKASPACE' ) );
#92 = CC_DESIGN_APPROVAL ( #261, ( #39 ) ) ;
#93 = APPROVAL_ROLE ( '' ) ;
#94 = APPLICATION_PROTOCOL_DEFINITION ( 'international standard', 'config_control_design', 1994, #164 ) ;
#95 = LOCAL_TIME ( 0, 57, 20.00000000000000000, #136 ) ;
#96 = APPROVAL_STATUS ( 'not_yet_approved' ) ;
#97 = DIRECTION ( 'NONE',  ( 1.000000000000000000, 0.000000000000000000, 0.000000000000000000 ) ) ;
#98 = PERSON_AND_ORGANIZATION_ROLE ( 'classification_officer' ) ;
#99 = APPROVAL ( #262, 'Coincident' ) ;
#100 = CC_DESIGN_APPROVAL ( #99, ( #296 ) ) ;
#101 = DATE_AND_TIME ( #14, #254 ) ;
#102 = CC_DESIGN_SECURITY_CLASSIFICATION ( #253, ( #25 ) ) ;
#103 = APPROVAL ( #96, 'UNKNOWN' ) ;
#104 = PERSON_AND_ORGANIZATION_ROLE ( 'creator' ) ;
#105 = CC_DESIGN_PERSON_AND_ORGANIZATION_ASSIGNMENT ( #314, #75, ( #156 ) ) ;
#106 = CALENDAR_DATE ( 2026, 9, 1 ) ;
#107 = DATE_AND_TIME ( #219, #59 ) ;
#108 = AXIS2_PLACEMENT_3D ( 'NONE', #72, #45, #309 ) ;
#109 = APPROVAL_PERSON_ORGANIZATION ( #299, #307, #191 ) ;
#110 = APPLICATION_PROTOCOL_DEFINITION ( 'international standard', 'config_control_design', 1994, #122 ) ;
#111 = CC_DESIGN_PERSON_AND_ORGANIZATION_ASSIGNMENT ( #2, #266, ( #315 ) ) ;
#112 = PERSON_AND_ORGANIZATION_ROLE ( 'design_supplier' ) ;
#113 = APPROVAL_STATUS ( 'not_yet_approved' ) ;
#114 = APPROVAL_DATE_TIME ( #10, #138 ) ;
#115 = APPLICATION_PROTOCOL_DEFINITION ( 'international standard', 'config_control_design', 1994, #65 ) ;
#116 = APPROVAL_ROLE ( '' ) ;
#117 = PRODUCT_DEFINITION ( 'General', '', #189, #238 ) ;
#118 = LOCAL_TIME ( 0, 57, 20.00000000000000000, #226 ) ;
#119 = DATE_AND_TIME ( #13, #317 ) ;
#120 = APPLIED_DOCUMENT_REFERENCE ( #258,'',( #39) ) ;
#121 = CALENDAR_DATE ( 2026, 9, 1 ) ;
#122 = APPLICATION_CONTEXT ( 'configuration controlled 3d designs of mechanical parts and assemblies' ) ;
#123 = LOCAL_TIME ( 0, 57, 20.00000000000000000, #16 ) ;
#124 = PERSON_AND_ORGANIZATION_ROLE ( 'classification_officer' ) ;
#125 =( NAMED_UNIT ( * ) SI_UNIT ( $, .STERADIAN. ) SOLID_ANGLE_UNIT ( ) );
#126 = UNCERTAINTY_MEASURE_WITH_UNIT (LENGTH_MEASURE( 1.000000000000000082E-05 ), #257, 'distance_accuracy_value', 'NONE');
#127 = CC_DESIGN_PERSON_AND_ORGANIZATION_ASSIGNMENT ( #204, #98, ( #341 ) ) ;
#128 = COORDINATED_UNIVERSAL_TIME_OFFSET ( 5, 0, .BEHIND. ) ;
#129 = CC_DESIGN_DATE_AND_TIME_ASSIGNMENT ( #337, #174, ( #296 ) ) ;
#130 = APPROVAL_STATUS ( 'not_yet_approved' ) ;
#131 = PERSON_AND_ORGANIZATION ( #18446744073709551615, #18446744073709551615 ) ;
#132 = PERSON_AND_ORGANIZATION ( #18446744073709551615, #18446744073709551615 ) ;
#133 = APPROVAL_STATUS ( 'not_yet_approved' ) ;
#134 = APPROVAL ( #245, 'Coincident' ) ;
#135 = APPROVAL_ROLE ( '' ) ;
#136 = COORDINATED_UNIVERSAL_TIME_OFFSET ( 5, 0, .BEHIND. ) ;
#137 = PERSON_AND_ORGANIZATION_ROLE ( 'design_supplier' ) ;
#138 = APPROVAL ( #276, 'Coincident' ) ;
#139 =( GEOMETRIC_REPRESENTATION_CONTEXT ( 3 ) GLOBAL_UNCERTAINTY_ASSIGNED_CONTEXT ( ( #48 ) ) GLOBAL_UNIT_ASSIGNED_CONTEXT ( ( #336, #205, #125 ) ) REPRESENTATION_CONTEXT ( 'NONE', 'WORKASPACE' ) );
#140 = LOCAL_TIME ( 0, 57, 20.00000000000000000, #298 ) ;
#141 = SHAPE_DEFINITION_REPRESENTATION ( #49, #71 ) ;
#142 = DATE_TIME_ROLE ( 'creation_date' ) ;
#143 = COORDINATED_UNIVERSAL_TIME_OFFSET ( 5, 0, .BEHIND. ) ;
#144 = CC_DESIGN_APPROVAL ( #78, ( #26 ) ) ;
#145 = CC_DESIGN_PERSON_AND_ORGANIZATION_ASSIGNMENT ( #268, #28, ( #253 ) ) ;
#146 = PROPERTY_DEFINITION_REPRESENTATION ( #203, #71 ) ;
#147 = ITEM_DEFINED_TRANSFORMATION ( 'NONE', 'NONE', #108,  #216 ) ;
#148 = APPROVAL_DATE_TIME ( #172, #99 ) ;
#149 = DATE_TIME_ROLE ( 'classification_date' ) ;
#150 = LOCAL_TIME ( 0, 57, 20.00000000000000000, #152 ) ;
#151 = MECHANICAL_CONTEXT ( 'NONE', #343, 'mechanical' ) ;
#152 = COORDINATED_UNIVERSAL_TIME_OFFSET ( 5, 0, .BEHIND. ) ;
#153 = UNCERTAINTY_MEASURE_WITH_UNIT (LENGTH_MEASURE( 1.000000000000000082E-05 ), #187, 'distance_accuracy_value', 'NONE');
#154 = DIRECTION ( 'NONE',  ( 0.000000000000000000, 0.000000000000000000, 1.000000000000000000 ) ) ;
#155 = DATE_AND_TIME ( #77, #194 ) ;
#156 = PRODUCT ( 'Cone', 'Cone', '', ( #151 ) ) ;
#157 = APPROVAL_STATUS ( 'not_yet_approved' ) ;
#158 = PERSON_AND_ORGANIZATION ( #18446744073709551615, #18446744073709551615 ) ;
#159 = APPROVAL_PERSON_ORGANIZATION ( #243, #278, #184 ) ;
#160 = DATE_TIME_ROLE ( 'classification_date' ) ;
#161 = LOCAL_TIME ( 0, 57, 20.00000000000000000, #295 ) ;
#162 = ORGANIZATION ( 'NAUO-ORG2', 'UNSPECIFIED', 'UNSPECIFIED' ) ;
#163 = CALENDAR_DATE ( 2026, 9, 1 ) ;
#164 = APPLICATION_CONTEXT ( 'configuration controlled 3d designs of mechanical parts and assemblies' ) ;
#165 = PERSON_AND_ORGANIZATION_ROLE ( 'classification_officer' ) ;
#166 = ITEM_DEFINED_TRANSFORMATION ( 'NONE', 'NONE', #63,  #233 ) ;
#167 = CC_DESIGN_SECURITY_CLASSIFICATION ( #64, ( #189 ) ) ;
#168 = PERSON_AND_ORGANIZATION ( #18446744073709551615, #18446744073709551615 ) ;
#169 = DATE_AND_TIME ( #193, #248 ) ;
#170 = DIRECTION ( 'NONE',  ( 1.000000000000000000, 0.000000000000000000, 0.000000000000000000 ) ) ;
#171 = APPROVAL_ROLE ( '' ) ;
#172 = DATE_AND_TIME ( #178, #30 ) ;
#173 = CC_DESIGN_PERSON_AND_ORGANIZATION_ASSIGNMENT ( #324, #112, ( #315 ) ) ;
#174 = DATE_TIME_ROLE ( 'creation_date' ) ;
#175 = PRODUCT_DEFINITION_SHAPE ( 'NONE', 'NONE',  #345 ) ;
#176 = DIRECTION ( 'NONE',  ( 1.000000000000000000, 0.000000000000000000, 0.000000000000000000 ) ) ;
#177 = APPROVAL_PERSON_ORGANIZATION ( #132, #318, #29 ) ;
#178 = CALENDAR_DATE ( 2026, 9, 1 ) ;
#179 = DOCUMENT_TYPE ( 'geometry' ) ;
#180 = PERSON_AND_ORGANIZATION_ROLE ( 'design_owner' ) ;
#181 = DIRECTION ( 'NONE',  ( 1.000000000000000000, 0.000000000000000000, 0.000000000000000000 ) ) ;
#182 = SECURITY_CLASSIFICATION ( '', '', #213 ) ;
#183 = PERSON_AND_ORGANIZATION_ROLE ( 'creator' ) ;
#184 = APPROVAL_ROLE ( '' ) ;
#185 = SHAPE_REPRESENTATION ( 'Cone', ( #331, #63, #108 ), #139 ) ;
#186 = SECURITY_CLASSIFICATION_LEVEL ( 'unclassified' ) ;
#187 =( LENGTH_UNIT ( ) NAMED_UNIT ( * ) SI_UNIT ( $, .METRE. ) );
#188 = DATE_TIME_ROLE ( 'classification_date' ) ;
#189 = PRODUCT_DEFINITION_FORMATION_WITH_SPECIFIED_SOURCE ( 'Symmetric', '', #20, .NOT_KNOWN. ) ;
#190 = APPLIED_EXTERNAL_IDENTIFICATION_ASSIGNMENT ( 'Top.STEP' , #280, #313,( #260) ) ;
#191 = APPROVAL_ROLE ( '' ) ;
#192 = APPROVAL_STATUS ( 'not_yet_approved' ) ;
#193 = CALENDAR_DATE ( 2026, 9, 1 ) ;
#194 = LOCAL_TIME ( 0, 57, 20.00000000000000000, #217 ) ;
#195 = APPROVAL_STATUS ( 'not_yet_approved' ) ;
#196 = CC_DESIGN_DATE_AND_TIME_ASSIGNMENT ( #293, #51, ( #39 ) ) ;
#197 =( REPRESENTATION_RELATIONSHIP ('NONE','NONE', #185, #294 ) REPRESENTATION_RELATIONSHIP_WITH_TRANSFORMATION ( #147 )SHAPE_REPRESENTATION_RELATIONSHIP( ) );
#198 = SECURITY_CLASSIFICATION_LEVEL ( 'unclassified' ) ;
#200 = CONTEXT_DEPENDENT_SHAPE_REPRESENTATION ( #53, #290 ) ;
#199 = IDENTIFICATION_ROLE ( 'external document id and location', $) ;
#201 = APPROVAL_ROLE ( '' ) ;
#202 = CC_DESIGN_PERSON_AND_ORGANIZATION_ASSIGNMENT ( #55, #218, ( #25 ) ) ;
#203 = PROPERTY_DEFINITION ('external definition','', #260 ) ;
#204 = PERSON_AND_ORGANIZATION ( #225, #162 ) ;
#205 =( NAMED_UNIT ( * ) PLANE_ANGLE_UNIT ( ) SI_UNIT ( $, .RADIAN. ) );
#206 = CARTESIAN_POINT ( 'NONE',  ( -0.001622108212984585407, -0.01259783783053536332, 0.0006171153027025866322 ) ) ;
#207 = EXTERNAL_SOURCE (IDENTIFIER('') ) ;
#208 = APPROVAL_DATE_TIME ( #232, #103 ) ;
#209 = DESIGN_CONTEXT ( 'detailed design', #164, 'design' ) ;
#210 = LOCAL_TIME ( 0, 57, 20.00000000000000000, #87 ) ;
#211 = CALENDAR_DATE ( 2026, 9, 1 ) ;
#212 = PERSON ( 'NAUO-PER1', 'UNSPECIFIED', 'UNSPECIFIED', ('UNSPECIFIED'), ('UNSPECIFIED'), ('UNSPECIFIED') ) ;
#213 = SECURITY_CLASSIFICATION_LEVEL ( 'unclassified' ) ;
#214 = CALENDAR_DATE ( 2026, 9, 1 ) ;
#215 = CC_DESIGN_DATE_AND_TIME_ASSIGNMENT ( #67, #41, ( #26 ) ) ;
#216 = AXIS2_PLACEMENT_3D ( 'NONE', #328, #333, #170 ) ;
#217 = COORDINATED_UNIVERSAL_TIME_OFFSET ( 5, 0, .BEHIND. ) ;
#218 = PERSON_AND_ORGANIZATION_ROLE ( 'design_supplier' ) ;
#219 = CALENDAR_DATE ( 2026, 9, 1 ) ;
#220 =( NAMED_UNIT ( * ) SI_UNIT ( $, .STERADIAN. ) SOLID_ANGLE_UNIT ( ) );
#221 = DATE_AND_TIME ( #66, #80 ) ;
#222 = ORGANIZATION ( 'NAUO-ORG1', 'UNSPECIFIED', 'UNSPECIFIED' ) ;
#223 = PRODUCT_RELATED_PRODUCT_CATEGORY ( 'detail', '', ( #20 ) ) ;
#224 = PERSON_AND_ORGANIZATION ( #18446744073709551615, #18446744073709551615 ) ;
#225 = PERSON ( 'NAUO-PER2', 'UNSPECIFIED', 'UNSPECIFIED', ('UNSPECIFIED'), ('UNSPECIFIED'), ('UNSPECIFIED') ) ;
#226 = COORDINATED_UNIVERSAL_TIME_OFFSET ( 5, 0, .BEHIND. ) ;
#227 = PRODUCT_RELATED_PRODUCT_CATEGORY ( 'detail', '', ( #156 ) ) ;
#228 = CALENDAR_DATE ( 2026, 9, 1 ) ;
#229 = LOCAL_TIME ( 0, 57, 20.00000000000000000, #269 ) ;
#230 = APPROVAL_PERSON_ORGANIZATION ( #32, #78, #93 ) ;
#231 = APPROVAL_DATE_TIME ( #119, #78 ) ;
#232 = DATE_AND_TIME ( #211, #150 ) ;
#233 = AXIS2_PLACEMENT_3D ( 'NONE', #84, #320, #181 ) ;
#234 = CC_DESIGN_APPROVAL ( #103, ( #341 ) ) ;
#235 = PROPERTY_DEFINITION ('external definition','', #258 ) ;
#236 = PROPERTY_DEFINITION_REPRESENTATION ( #287, #71 ) ;
#237 = CC_DESIGN_PERSON_AND_ORGANIZATION_ASSIGNMENT ( #305, #137, ( #189 ) ) ;
#238 = DESIGN_CONTEXT ( 'detailed design', #34, 'design' ) ;
#239 = LOCAL_TIME ( 0, 57, 20.00000000000000000, #271 ) ;
#240 = PERSON_AND_ORGANIZATION ( #18446744073709551615, #18446744073709551615 ) ;
#241 = CALENDAR_DATE ( 2026, 9, 1 ) ;
#242 = APPROVAL ( #130, 'Coincident' ) ;
#243 = PERSON_AND_ORGANIZATION ( #18446744073709551615, #18446744073709551615 ) ;
#244 = APPROVAL_DATE_TIME ( #107, #318 ) ;
#245 = APPROVAL_STATUS ( 'not_yet_approved' ) ;
#246 = MECHANICAL_CONTEXT ( 'NONE', #65, 'mechanical' ) ;
#247 = SHAPE_DEFINITION_REPRESENTATION ( #4, #294 ) ;
#248 = LOCAL_TIME ( 0, 57, 20.00000000000000000, #68 ) ;
#249 = OBJECT_ROLE ('mandatory',$ ) ;
#250 = SECURITY_CLASSIFICATION_LEVEL ( 'unclassified' ) ;
#251 = DATE_AND_TIME ( #281, #303 ) ;
#252 = APPROVAL_ROLE ( '' ) ;
#253 = SECURITY_CLASSIFICATION ( '', '', #186 ) ;
#254 = LOCAL_TIME ( 0, 57, 20.00000000000000000, #340 ) ;
#255 = ROLE_ASSOCIATION ( #249, #44 ) ;
#256 = CC_DESIGN_DATE_AND_TIME_ASSIGNMENT ( #302, #142, ( #117 ) ) ;
#257 =( LENGTH_UNIT ( ) NAMED_UNIT ( * ) SI_UNIT ( $, .METRE. ) );
#258 = DOCUMENT_FILE ( 'Cone.STEP' , '', '', #286, '' ,$ ) ;
#259 = LOCAL_TIME ( 0, 57, 20.00000000000000000, #327 ) ;
#260 = DOCUMENT_FILE ( 'Top.STEP' , '', '', #179, '' ,$ ) ;
#261 = APPROVAL ( #133, 'Coincident' ) ;
#262 = APPROVAL_STATUS ( 'not_yet_approved' ) ;
#263 = APPROVAL_PERSON_ORGANIZATION ( #224, #138, #116 ) ;
#264 = APPLIED_EXTERNAL_IDENTIFICATION_ASSIGNMENT ( 'Cone.STEP' , #199, #207,( #258) ) ;
#265 = CC_DESIGN_PERSON_AND_ORGANIZATION_ASSIGNMENT ( #240, #104, ( #39 ) ) ;
#266 = PERSON_AND_ORGANIZATION_ROLE ( 'creator' ) ;
#267 = OBJECT_ROLE ('mandatory',$ ) ;
#268 = PERSON_AND_ORGANIZATION ( #18446744073709551615, #18446744073709551615 ) ;
#269 = COORDINATED_UNIVERSAL_TIME_OFFSET ( 5, 0, .BEHIND. ) ;
#270 = CC_DESIGN_APPROVAL ( #134, ( #25 ) ) ;
#271 = COORDINATED_UNIVERSAL_TIME_OFFSET ( 5, 0, .BEHIND. ) ;
#272 = CC_DESIGN_PERSON_AND_ORGANIZATION_ASSIGNMENT ( #285, #43, ( #296 ) ) ;
#273 = DATE_AND_TIME ( #38, #259 ) ;
#274 = PERSON_AND_ORGANIZATION ( #18446744073709551615, #18446744073709551615 ) ;
#275 = APPROVAL_PERSON_ORGANIZATION ( #310, #99, #201 ) ;
#276 = APPROVAL_STATUS ( 'not_yet_approved' ) ;
#277 = CC_DESIGN_APPROVAL ( #42, ( #189 ) ) ;
#278 = APPROVAL ( #319, 'Coincident' ) ;
#279 = PERSON_AND_ORGANIZATION_ROLE ( 'creator' ) ;
#280 = IDENTIFICATION_ROLE ( 'external document id and location', $) ;
#281 = CALENDAR_DATE ( 2026, 9, 1 ) ;
#282 = APPROVAL_PERSON_ORGANIZATION ( #23, #242, #33 ) ;
#283 = CC_DESIGN_PERSON_AND_ORGANIZATION_ASSIGNMENT ( #168, #279, ( #189 ) ) ;
#284 = PROPERTY_DEFINITION_REPRESENTATION ( #235, #294 ) ;
#285 = PERSON_AND_ORGANIZATION ( #18446744073709551615, #18446744073709551615 ) ;
#286 = DOCUMENT_TYPE ( 'geometry' ) ;
#287 = PROPERTY_DEFINITION ('document property','', #260 ) ;
#288 =( NAMED_UNIT ( * ) SI_UNIT ( $, .STERADIAN. ) SOLID_ANGLE_UNIT ( ) );
#289 = DIRECTION ( 'NONE',  ( 0.000000000000000000, 0.000000000000000000, 1.000000000000000000 ) ) ;
#290 = PRODUCT_DEFINITION_SHAPE ( 'NONE', 'NONE',  #344 ) ;
#291 = DATE_AND_TIME ( #56, #52 ) ;
#292 = PERSON_AND_ORGANIZATION ( #18446744073709551615, #18446744073709551615 ) ;
#293 = DATE_AND_TIME ( #214, #229 ) ;
#294 = SHAPE_REPRESENTATION ( 'Cone', ( #216 ), #24 ) ;
#295 = COORDINATED_UNIVERSAL_TIME_OFFSET ( 5, 0, .BEHIND. ) ;
#296 = PRODUCT_DEFINITION ( 'General', '', #315, #209 ) ;
#297 = APPROVAL_PERSON_ORGANIZATION ( #274, #42, #252 ) ;
#298 = COORDINATED_UNIVERSAL_TIME_OFFSET ( 5, 0, .BEHIND. ) ;
#299 = PERSON_AND_ORGANIZATION ( #18446744073709551615, #18446744073709551615 ) ;
#300 = CC_DESIGN_DATE_AND_TIME_ASSIGNMENT ( #155, #188, ( #182 ) ) ;
#301 = APPLICATION_PROTOCOL_DEFINITION ( 'international standard', 'config_control_design', 1994, #34 ) ;
#302 = DATE_AND_TIME ( #228, #95 ) ;
#303 = LOCAL_TIME ( 0, 57, 20.00000000000000000, #62 ) ;
#304 = CC_DESIGN_SECURITY_CLASSIFICATION ( #26, ( #344 ) ) ;
#305 = PERSON_AND_ORGANIZATION ( #18446744073709551615, #18446744073709551615 ) ;
#306 = PERSON_AND_ORGANIZATION ( #18446744073709551615, #18446744073709551615 ) ;
#307 = APPROVAL ( #192, 'Coincident' ) ;
#308 = ROLE_ASSOCIATION ( #267, #120 ) ;
#309 = DIRECTION ( 'NONE',  ( 1.000000000000000000, 0.000000000000000000, 0.000000000000000000 ) ) ;
#310 = PERSON_AND_ORGANIZATION ( #18446744073709551615, #18446744073709551615 ) ;
#311 = PROPERTY_DEFINITION_REPRESENTATION ( #82, #294 ) ;
#312 = CC_DESIGN_DATE_AND_TIME_ASSIGNMENT ( #273, #88, ( #64 ) ) ;
#313 = EXTERNAL_SOURCE (IDENTIFIER('') ) ;
#314 = PERSON_AND_ORGANIZATION ( #18446744073709551615, #18446744073709551615 ) ;
#315 = PRODUCT_DEFINITION_FORMATION_WITH_SPECIFIED_SOURCE ( 'Symmetric', '', #156, .NOT_KNOWN. ) ;
#316 = CC_DESIGN_APPROVAL ( #278, ( #315 ) ) ;
#317 = LOCAL_TIME ( 0, 57, 20.00000000000000000, #143 ) ;
#318 = APPROVAL ( #157, 'Coincident' ) ;
#319 = APPROVAL_STATUS ( 'not_yet_approved' ) ;
#320 = DIRECTION ( 'NONE',  ( 0.000000000000000000, 0.000000000000000000, 1.000000000000000000 ) ) ;
#321 = APPROVAL_DATE_TIME ( #83, #134 ) ;
#322 = APPLICATION_PROTOCOL_DEFINITION ( 'international standard', 'config_control_design', 1994, #15 ) ;
#323 = DATE_AND_TIME ( #241, #239 ) ;
#324 = PERSON_AND_ORGANIZATION ( #18446744073709551615, #18446744073709551615 ) ;
#325 = COORDINATED_UNIVERSAL_TIME_OFFSET ( 5, 0, .BEHIND. ) ;
#326 = CC_DESIGN_PERSON_AND_ORGANIZATION_ASSIGNMENT ( #40, #165, ( #64 ) ) ;
#327 = COORDINATED_UNIVERSAL_TIME_OFFSET ( 5, 0, .BEHIND. ) ;
#328 = CARTESIAN_POINT ( 'NONE',  ( 0.000000000000000000, 0.000000000000000000, 0.000000000000000000 ) ) ;
#329 = CC_DESIGN_DATE_AND_TIME_ASSIGNMENT ( #101, #149, ( #341 ) ) ;
#330 = CALENDAR_DATE ( 2026, 9, 1 ) ;
#331 = AXIS2_PLACEMENT_3D ( 'NONE', #73, #154, #176 ) ;
#332 = PERSON_AND_ORGANIZATION_ROLE ( 'creator' ) ;
#333 = DIRECTION ( 'NONE',  ( 0.000000000000000000, 0.000000000000000000, 1.000000000000000000 ) ) ;
#334 = APPROVAL_DATE_TIME ( #221, #42 ) ;
#335 = CC_DESIGN_PERSON_AND_ORGANIZATION_ASSIGNMENT ( #60, #183, ( #25 ) ) ;
#336 =( LENGTH_UNIT ( ) NAMED_UNIT ( * ) SI_UNIT ( $, .METRE. ) );
#337 = DATE_AND_TIME ( #121, #123 ) ;
#338 = CC_DESIGN_PERSON_AND_ORGANIZATION_ASSIGNMENT ( #131, #180, ( #74 ) ) ;
#339 =( NAMED_UNIT ( * ) PLANE_ANGLE_UNIT ( ) SI_UNIT ( $, .RADIAN. ) );
#340 = COORDINATED_UNIVERSAL_TIME_OFFSET ( 5, 0, .BEHIND. ) ;
#341 = SECURITY_CLASSIFICATION ( '', '', #19 ) ;
#342 = MECHANICAL_CONTEXT ( 'NONE', #122, 'mechanical' ) ;
#343 = APPLICATION_CONTEXT ( 'configuration controlled 3d designs of mechanical parts and assemblies' ) ;
#344 = NEXT_ASSEMBLY_USAGE_OCCURRENCE ( 'NAUO1', ' ', ' ', #296, #117, $ ) ;
#345 = NEXT_ASSEMBLY_USAGE_OCCURRENCE ( 'NAUO2', ' ', ' ', #296, #39, $ ) ;
ENDSEC;
END-ISO-10303-21;
