ISO-10303-21;
HEADER;
FILE_DESCRIPTION (( 'STEP AP203' ),
    '1' );
FILE_NAME ('Cone.STEP',
    '2026-01-09T05:57:21',
    ( '' ),
    ( '' ),
    'SwSTEP 2.0',
    'SolidWorks 2026',
    '' );
FILE_SCHEMA (( 'CONFIG_CONTROL_DESIGN' ));
ENDSEC;

DATA;
#1 = MECHANICAL_CONTEXT ( 'NONE', #188, 'mechanical' ) ;
#2 = PERSON_AND_ORGANIZATION ( #18446744073709551615, #18446744073709551615 ) ;
#3 = PERSON_AND_ORGANIZATION ( #18446744073709551615, #18446744073709551615 ) ;
#4 = LOCAL_TIME ( 0, 57, 21.00000000000000000, #180 ) ;
#5 = APPLICATION_PROTOCOL_DEFINITION ( 'international standard', 'config_control_design', 1994, #89 ) ;
#6 = PERSON_AND_ORGANIZATION ( #18446744073709551615, #18446744073709551615 ) ;
#7 = PRODUCT_DEFINITION ( 'General', '', #144, #67 ) ;
#8 = COORDINATED_UNIVERSAL_TIME_OFFSET ( 5, 0, .BEHIND. ) ;
#9 = CC_DESIGN_APPROVAL ( #81, ( #7 ) ) ;
#10 = APPLICATION_PROTOCOL_DEFINITION ( 'international standard', 'config_control_design', 1994, #213 ) ;
#11 = PERSON_AND_ORGANIZATION ( #18446744073709551615, #18446744073709551615 ) ;
#12 = CC_DESIGN_DATE_AND_TIME_ASSIGNMENT ( #265, #291, ( #317 ) ) ;
#13 = SECURITY_CLASSIFICATION_LEVEL ( 'unclassified' ) ;
#14 = CALENDAR_DATE ( 2026, 9, 1 ) ;
#15 = ITEM_DEFINED_TRANSFORMATION ( 'NONE', 'NONE', #139,  #68 ) ;
#16 = SECURITY_CLASSIFICATION ( '', '', #325 ) ;
#17 = APPROVAL_PERSON_ORGANIZATION ( #33, #148, #142 ) ;
#18 = CC_DESIGN_PERSON_AND_ORGANIZATION_ASSIGNMENT ( #11, #29, ( #7 ) ) ;
#19 = APPROVAL_DATE_TIME ( #176, #336 ) ;
#20 = APPROVAL_ROLE ( '' ) ;
#21 = APPROVAL_PERSON_ORGANIZATION ( #6, #269, #295 ) ;
#22 = DATE_AND_TIME ( #267, #60 ) ;
#23 = CALENDAR_DATE ( 2026, 9, 1 ) ;
#24 = CARTESIAN_POINT ( 'NONE',  ( 0.000000000000000000, 0.000000000000000000, 0.000000000000000000 ) ) ;
#25 = DATE_AND_TIME ( #243, #314 ) ;
#26 = APPROVAL_STATUS ( 'not_yet_approved' ) ;
#27 = PERSON_AND_ORGANIZATION ( #18446744073709551615, #18446744073709551615 ) ;
#28 = CC_DESIGN_APPROVAL ( #35, ( #155 ) ) ;
#29 = PERSON_AND_ORGANIZATION_ROLE ( 'creator' ) ;
#30 = CC_DESIGN_PERSON_AND_ORGANIZATION_ASSIGNMENT ( #115, #113, ( #342 ) ) ;
#31 = EXTERNAL_SOURCE (IDENTIFIER('') ) ;
#32 = PERSON_AND_ORGANIZATION_ROLE ( 'classification_officer' ) ;
#33 = PERSON_AND_ORGANIZATION ( #319, #309 ) ;
#34 = PROPERTY_DEFINITION_REPRESENTATION ( #92, #303 ) ;
#35 = APPROVAL ( #52, 'Coincident' ) ;
#36 =( NAMED_UNIT ( * ) SI_UNIT ( $, .STERADIAN. ) SOLID_ANGLE_UNIT ( ) );
#37 = PRODUCT_DEFINITION_SHAPE ( 'NONE', 'NONE',  #317 ) ;
#38 = CALENDAR_DATE ( 2026, 9, 1 ) ;
#39 = DESIGN_CONTEXT ( 'detailed design', #89, 'design' ) ;
#40 = CALENDAR_DATE ( 2026, 9, 1 ) ;
#41 = APPROVAL_PERSON_ORGANIZATION ( #219, #81, #130 ) ;
#42 = APPROVAL_ROLE ( '' ) ;
#43 = APPROVAL ( #128, 'Coincident' ) ;
#44 = DIRECTION ( 'NONE',  ( 1.000000000000000000, 0.000000000000000000, 0.000000000000000000 ) ) ;
#45 = AXIS2_PLACEMENT_3D ( 'NONE', #301, #330, #165 ) ;
#46 = PERSON_AND_ORGANIZATION_ROLE ( 'design_owner' ) ;
#47 = PERSON_AND_ORGANIZATION ( #18446744073709551615, #18446744073709551615 ) ;
#48 = SHAPE_REPRESENTATION ( 'Cone', ( #299, #134, #139 ), #114 ) ;
#49 = DATE_AND_TIME ( #153, #79 ) ;
#50 = APPROVAL_PERSON_ORGANIZATION ( #329, #132, #80 ) ;
#51 = CALENDAR_DATE ( 2026, 9, 1 ) ;
#52 = APPROVAL_STATUS ( 'not_yet_approved' ) ;
#53 = PERSON_AND_ORGANIZATION_ROLE ( 'design_supplier' ) ;
#54 = CC_DESIGN_PERSON_AND_ORGANIZATION_ASSIGNMENT ( #271, #133, ( #223 ) ) ;
#55 = PERSON_AND_ORGANIZATION ( #18446744073709551615, #18446744073709551615 ) ;
#56 = DATE_AND_TIME ( #51, #162 ) ;
#57 = COORDINATED_UNIVERSAL_TIME_OFFSET ( 5, 0, .BEHIND. ) ;
#58 =( NAMED_UNIT ( * ) SI_UNIT ( $, .STERADIAN. ) SOLID_ANGLE_UNIT ( ) );
#59 = IDENTIFICATION_ROLE ( 'external document id and location', $) ;
#60 = LOCAL_TIME ( 0, 57, 21.00000000000000000, #77 ) ;
#61 = COORDINATED_UNIVERSAL_TIME_OFFSET ( 5, 0, .BEHIND. ) ;
#62 = PROPERTY_DEFINITION_REPRESENTATION ( #339, #303 ) ;
#63 =( LENGTH_UNIT ( ) NAMED_UNIT ( * ) SI_UNIT ( $, .METRE. ) );
#64 = PRODUCT_DEFINITION_SHAPE ( 'NONE', 'NONE',  #7 ) ;
#65 = DOCUMENT_FILE ( 'Cone.STEP' , '', '', #209, '' ,$ ) ;
#66 = CC_DESIGN_PERSON_AND_ORGANIZATION_ASSIGNMENT ( #343, #175, ( #317 ) ) ;
#67 = DESIGN_CONTEXT ( 'detailed design', #254, 'design' ) ;
#68 = AXIS2_PLACEMENT_3D ( 'NONE', #341, #248, #197 ) ;
#69 = APPLICATION_PROTOCOL_DEFINITION ( 'international standard', 'config_control_design', 1994, #188 ) ;
#70 = PRODUCT ( 'Cone', 'Cone', '', ( #191 ) ) ;
#71 = PRODUCT_RELATED_PRODUCT_CATEGORY ( 'detail', '', ( #236 ) ) ;
#72 = SHAPE_DEFINITION_REPRESENTATION ( #123, #48 ) ;
#73 = PERSON_AND_ORGANIZATION_ROLE ( 'creator' ) ;
#74 = SECURITY_CLASSIFICATION ( '', '', #278 ) ;
#75 = APPLIED_EXTERNAL_IDENTIFICATION_ASSIGNMENT ( 'Top.STEP' , #59, #98,( #199) ) ;
#76 = PERSON_AND_ORGANIZATION ( #18446744073709551615, #18446744073709551615 ) ;
#77 = COORDINATED_UNIVERSAL_TIME_OFFSET ( 5, 0, .BEHIND. ) ;
#78 = DATE_TIME_ROLE ( 'classification_date' ) ;
#79 = LOCAL_TIME ( 0, 57, 21.00000000000000000, #103 ) ;
#80 = APPROVAL_ROLE ( '' ) ;
#81 = APPROVAL ( #82, 'Coincident' ) ;
#82 = APPROVAL_STATUS ( 'not_yet_approved' ) ;
#83 = COORDINATED_UNIVERSAL_TIME_OFFSET ( 5, 0, .BEHIND. ) ;
#84 = PERSON ( 'NAUO-PER3', 'UNSPECIFIED', 'UNSPECIFIED', ('UNSPECIFIED'), ('UNSPECIFIED'), ('UNSPECIFIED') ) ;
#85 = DATE_TIME_ROLE ( 'creation_date' ) ;
#86 = APPROVAL_DATE_TIME ( #224, #148 ) ;
#87 =( NAMED_UNIT ( * ) PLANE_ANGLE_UNIT ( ) SI_UNIT ( $, .RADIAN. ) );
#88 = ITEM_DEFINED_TRANSFORMATION ( 'NONE', 'NONE', #134,  #45 ) ;
#89 = APPLICATION_CONTEXT ( 'configuration controlled 3d designs of mechanical parts and assemblies' ) ;
#90 = APPROVAL_ROLE ( '' ) ;
#91 = CC_DESIGN_PERSON_AND_ORGANIZATION_ASSIGNMENT ( #2, #73, ( #216 ) ) ;
#92 = PROPERTY_DEFINITION ('document property','', #199 ) ;
#93 = APPLIED_DOCUMENT_REFERENCE ( #65,'',( #317) ) ;
#94 =( NAMED_UNIT ( * ) SI_UNIT ( $, .STERADIAN. ) SOLID_ANGLE_UNIT ( ) );
#95 = CC_DESIGN_SECURITY_CLASSIFICATION ( #223, ( #144 ) ) ;
#96 = DATE_AND_TIME ( #23, #281 ) ;
#97 = CC_DESIGN_PERSON_AND_ORGANIZATION_ASSIGNMENT ( #47, #126, ( #216 ) ) ;
#98 = EXTERNAL_SOURCE (IDENTIFIER('') ) ;
#99 = PERSON_AND_ORGANIZATION_ROLE ( 'classification_officer' ) ;
#100 = APPROVAL_STATUS ( 'not_yet_approved' ) ;
#101 = APPROVAL_STATUS ( 'not_yet_approved' ) ;
#102 = CC_DESIGN_PERSON_AND_ORGANIZATION_ASSIGNMENT ( #76, #99, ( #16 ) ) ;
#103 = COORDINATED_UNIVERSAL_TIME_OFFSET ( 5, 0, .BEHIND. ) ;
#104 = DATE_TIME_ROLE ( 'classification_date' ) ;
#105 = PERSON_AND_ORGANIZATION ( #18446744073709551615, #18446744073709551615 ) ;
#106 = CC_DESIGN_APPROVAL ( #279, ( #216 ) ) ;
#107 = PERSON_AND_ORGANIZATION_ROLE ( 'design_owner' ) ;
#108 = CALENDAR_DATE ( 2026, 9, 1 ) ;
#109 = PERSON_AND_ORGANIZATION ( #18446744073709551615, #18446744073709551615 ) ;
#110 = LOCAL_TIME ( 0, 57, 21.00000000000000000, #332 ) ;
#111 = APPROVAL_PERSON_ORGANIZATION ( #321, #43, #42 ) ;
#112 = APPROVAL_PERSON_ORGANIZATION ( #115, #296, #90 ) ;
#113 = PERSON_AND_ORGANIZATION_ROLE ( 'classification_officer' ) ;
#114 =( GEOMETRIC_REPRESENTATION_CONTEXT ( 3 ) GLOBAL_UNCERTAINTY_ASSIGNED_CONTEXT ( ( #233 ) ) GLOBAL_UNIT_ASSIGNED_CONTEXT ( ( #63, #282, #36 ) ) REPRESENTATION_CONTEXT ( 'NONE', 'WORKASPACE' ) );
#115 = PERSON_AND_ORGANIZATION ( #84, #323 ) ;
#116 = APPLICATION_PROTOCOL_DEFINITION ( 'international standard', 'config_control_design', 1994, #119 ) ;
#117 = UNCERTAINTY_MEASURE_WITH_UNIT (LENGTH_MEASURE( 1.000000000000000082E-05 ), #214, 'distance_accuracy_value', 'NONE');
#119 = APPLICATION_CONTEXT ( 'configuration controlled 3d designs of mechanical parts and assemblies' ) ;
#118 = DATE_TIME_ROLE ( 'classification_date' ) ;
#120 = CARTESIAN_POINT ( 'NONE',  ( -0.001622108212984585407, -0.01259783783053536332, 0.0006171153027025866322 ) ) ;
#121 = CC_DESIGN_DATE_AND_TIME_ASSIGNMENT ( #25, #104, ( #223 ) ) ;
#122 = COORDINATED_UNIVERSAL_TIME_OFFSET ( 5, 0, .BEHIND. ) ;
#123 = PRODUCT_DEFINITION_SHAPE ( 'NONE', 'NONE',  #311 ) ;
#124 = COORDINATED_UNIVERSAL_TIME_OFFSET ( 5, 0, .BEHIND. ) ;
#125 = DATE_TIME_ROLE ( 'classification_date' ) ;
#126 = PERSON_AND_ORGANIZATION_ROLE ( 'design_supplier' ) ;
#127 = APPROVAL ( #178, 'Coincident' ) ;
#128 = APPROVAL_STATUS ( 'not_yet_approved' ) ;
#129 = CC_DESIGN_APPROVAL ( #304, ( #144 ) ) ;
#130 = APPROVAL_ROLE ( '' ) ;
#131 = APPROVAL_DATE_TIME ( #160, #269 ) ;
#132 = APPROVAL ( #26, 'Coincident' ) ;
#133 = PERSON_AND_ORGANIZATION_ROLE ( 'classification_officer' ) ;
#134 = AXIS2_PLACEMENT_3D ( 'NONE', #120, #141, #147 ) ;
#135 = APPROVAL_ROLE ( '' ) ;
#136 = CALENDAR_DATE ( 2026, 9, 1 ) ;
#137 = CC_DESIGN_DATE_AND_TIME_ASSIGNMENT ( #56, #85, ( #7 ) ) ;
#138 =( REPRESENTATION_RELATIONSHIP ('NONE','NONE', #48, #189 ) REPRESENTATION_RELATIONSHIP_WITH_TRANSFORMATION ( #15 )SHAPE_REPRESENTATION_RELATIONSHIP( ) );
#139 = AXIS2_PLACEMENT_3D ( 'NONE', #260, #145, #312 ) ;
#140 = APPROVAL_DATE_TIME ( #257, #296 ) ;
#141 = DIRECTION ( 'NONE',  ( 0.000000000000000000, 0.000000000000000000, 1.000000000000000000 ) ) ;
#143 = DOCUMENT_TYPE ( 'geometry' ) ;
#142 = APPROVAL_ROLE ( '' ) ;
#144 = PRODUCT_DEFINITION_FORMATION_WITH_SPECIFIED_SOURCE ( 'Symmetric', '', #236, .NOT_KNOWN. ) ;
#145 = DIRECTION ( 'NONE',  ( 0.000000000000000000, 0.000000000000000000, 1.000000000000000000 ) ) ;
#146 = UNCERTAINTY_MEASURE_WITH_UNIT (LENGTH_MEASURE( 1.000000000000000082E-05 ), #313, 'distance_accuracy_value', 'NONE');
#147 = DIRECTION ( 'NONE',  ( 1.000000000000000000, 0.000000000000000000, 0.000000000000000000 ) ) ;
#148 = APPROVAL ( #172, 'UNKNOWN' ) ;
#149 = DATE_AND_TIME ( #152, #4 ) ;
#150 = APPLICATION_CONTEXT ( 'configuration controlled 3d designs of mechanical parts and assemblies' ) ;
#151 = APPROVAL_PERSON_ORGANIZATION ( #202, #127, #290 ) ;
#152 = CALENDAR_DATE ( 2026, 9, 1 ) ;
#153 = CALENDAR_DATE ( 2026, 9, 1 ) ;
#154 = APPROVAL_DATE_TIME ( #149, #43 ) ;
#155 = PRODUCT_DEFINITION_FORMATION_WITH_SPECIFIED_SOURCE ( 'Symmetric', '', #264, .NOT_KNOWN. ) ;
#156 = PERSON_AND_ORGANIZATION ( #18446744073709551615, #18446744073709551615 ) ;
#157 = LOCAL_TIME ( 0, 57, 21.00000000000000000, #228 ) ;
#158 = OBJECT_ROLE ('mandatory',$ ) ;
#159 = PERSON_AND_ORGANIZATION_ROLE ( 'creator' ) ;
#160 = DATE_AND_TIME ( #185, #322 ) ;
#161 = DATE_AND_TIME ( #108, #307 ) ;
#162 = LOCAL_TIME ( 0, 57, 21.00000000000000000, #250 ) ;
#163 = CC_DESIGN_APPROVAL ( #296, ( #342 ) ) ;
#164 = PERSON_AND_ORGANIZATION ( #18446744073709551615, #18446744073709551615 ) ;
#165 = DIRECTION ( 'NONE',  ( 1.000000000000000000, 0.000000000000000000, 0.000000000000000000 ) ) ;
#166 = DATE_AND_TIME ( #38, #294 ) ;
#167 = SHAPE_DEFINITION_REPRESENTATION ( #64, #303 ) ;
#168 = PERSON_AND_ORGANIZATION ( #18446744073709551615, #18446744073709551615 ) ;
#169 = CC_DESIGN_APPROVAL ( #336, ( #317 ) ) ;
#170 = PROPERTY_DEFINITION_REPRESENTATION ( #211, #189 ) ;
#171 = CC_DESIGN_PERSON_AND_ORGANIZATION_ASSIGNMENT ( #168, #46, ( #70 ) ) ;
#172 = APPROVAL_STATUS ( 'not_yet_approved' ) ;
#173 = PRODUCT_DEFINITION_SHAPE ( 'NONE', 'NONE',  #344 ) ;
#174 = LOCAL_TIME ( 0, 57, 21.00000000000000000, #292 ) ;
#175 = PERSON_AND_ORGANIZATION_ROLE ( 'creator' ) ;
#176 = DATE_AND_TIME ( #324, #328 ) ;
#177 = LOCAL_TIME ( 0, 57, 21.00000000000000000, #298 ) ;
#178 = APPROVAL_STATUS ( 'not_yet_approved' ) ;
#179 = COORDINATED_UNIVERSAL_TIME_OFFSET ( 5, 0, .BEHIND. ) ;
#180 = COORDINATED_UNIVERSAL_TIME_OFFSET ( 5, 0, .BEHIND. ) ;
#181 = PERSON_AND_ORGANIZATION ( #18446744073709551615, #18446744073709551615 ) ;
#182 = CC_DESIGN_SECURITY_CLASSIFICATION ( #277, ( #345 ) ) ;
#183 = APPROVAL_DATE_TIME ( #326, #35 ) ;
#184 = APPROVAL_DATE_TIME ( #300, #304 ) ;
#185 = CALENDAR_DATE ( 2026, 9, 1 ) ;
#186 = CC_DESIGN_PERSON_AND_ORGANIZATION_ASSIGNMENT ( #203, #239, ( #264 ) ) ;
#187 = APPROVAL_PERSON_ORGANIZATION ( #242, #279, #20 ) ;
#188 = APPLICATION_CONTEXT ( 'configuration controlled 3d designs of mechanical parts and assemblies' ) ;
#189 = SHAPE_REPRESENTATION ( 'Cone', ( #68 ), #194 ) ;
#190 = PERSON_AND_ORGANIZATION_ROLE ( 'design_supplier' ) ;
#191 = MECHANICAL_CONTEXT ( 'NONE', #119, 'mechanical' ) ;
#192 = CC_DESIGN_PERSON_AND_ORGANIZATION_ASSIGNMENT ( #55, #190, ( #144 ) ) ;
#193 = PERSON_AND_ORGANIZATION_ROLE ( 'classification_officer' ) ;
#194 =( GEOMETRIC_REPRESENTATION_CONTEXT ( 3 ) GLOBAL_UNCERTAINTY_ASSIGNED_CONTEXT ( ( #146 ) ) GLOBAL_UNIT_ASSIGNED_CONTEXT ( ( #313, #87, #58 ) ) REPRESENTATION_CONTEXT ( 'NONE', 'WORKASPACE' ) );
#195 = SECURITY_CLASSIFICATION_LEVEL ( 'unclassified' ) ;
#196 = APPLIED_DOCUMENT_REFERENCE ( #199,'',( #7) ) ;
#197 = DIRECTION ( 'NONE',  ( 1.000000000000000000, 0.000000000000000000, 0.000000000000000000 ) ) ;
#198 = DESIGN_CONTEXT ( 'detailed design', #150, 'design' ) ;
#199 = DOCUMENT_FILE ( 'Top.STEP' , '', '', #143, '' ,$ ) ;
#200 = PRODUCT_RELATED_PRODUCT_CATEGORY ( 'detail', '', ( #264 ) ) ;
#201 = CC_DESIGN_SECURITY_CLASSIFICATION ( #74, ( #155 ) ) ;
#202 = PERSON_AND_ORGANIZATION ( #18446744073709551615, #18446744073709551615 ) ;
#203 = PERSON_AND_ORGANIZATION ( #18446744073709551615, #18446744073709551615 ) ;
#204 = PROPERTY_DEFINITION ('document property','', #65 ) ;
#205 = CC_DESIGN_PERSON_AND_ORGANIZATION_ASSIGNMENT ( #273, #32, ( #74 ) ) ;
#206 = DATE_AND_TIME ( #266, #174 ) ;
#207 = LOCAL_TIME ( 0, 57, 21.00000000000000000, #276 ) ;
#208 = DATE_TIME_ROLE ( 'creation_date' ) ;
#209 = DOCUMENT_TYPE ( 'geometry' ) ;
#210 = APPROVAL_DATE_TIME ( #49, #279 ) ;
#211 = PROPERTY_DEFINITION ('external definition','', #65 ) ;
#212 = APPROVAL_STATUS ( 'not_yet_approved' ) ;
#213 = APPLICATION_CONTEXT ( 'configuration controlled 3d designs of mechanical parts and assemblies' ) ;
#214 =( LENGTH_UNIT ( ) NAMED_UNIT ( * ) SI_UNIT ( $, .METRE. ) );
#215 = PRODUCT_RELATED_PRODUCT_CATEGORY ( 'detail', '', ( #70 ) ) ;
#216 = PRODUCT_DEFINITION_FORMATION_WITH_SPECIFIED_SOURCE ( 'Symmetric', '', #70, .NOT_KNOWN. ) ;
#217 = APPROVAL_DATE_TIME ( #161, #81 ) ;
#218 = CC_DESIGN_APPROVAL ( #148, ( #277 ) ) ;
#219 = PERSON_AND_ORGANIZATION ( #18446744073709551615, #18446744073709551615 ) ;
#220 = CC_DESIGN_DATE_AND_TIME_ASSIGNMENT ( #310, #118, ( #342 ) ) ;
#221 = APPROVAL_ROLE ( '' ) ;
#222 = APPLICATION_PROTOCOL_DEFINITION ( 'international standard', 'config_control_design', 1994, #254 ) ;
#223 = SECURITY_CLASSIFICATION ( '', '', #13 ) ;
#224 = DATE_AND_TIME ( #40, #230 ) ;
#225 = APPROVAL_STATUS ( 'not_yet_approved' ) ;
#226 = CC_DESIGN_DATE_AND_TIME_ASSIGNMENT ( #166, #231, ( #277 ) ) ;
#227 = IDENTIFICATION_ROLE ( 'external document id and location', $) ;
#228 = COORDINATED_UNIVERSAL_TIME_OFFSET ( 5, 0, .BEHIND. ) ;
#229 = LOCAL_TIME ( 0, 57, 21.00000000000000000, #179 ) ;
#230 = LOCAL_TIME ( 0, 57, 21.00000000000000000, #284 ) ;
#231 = DATE_TIME_ROLE ( 'classification_date' ) ;
#232 = CC_DESIGN_DATE_AND_TIME_ASSIGNMENT ( #96, #125, ( #16 ) ) ;
#233 = UNCERTAINTY_MEASURE_WITH_UNIT (LENGTH_MEASURE( 1.000000000000000082E-05 ), #63, 'distance_accuracy_value', 'NONE');
#234 = APPROVAL_ROLE ( '' ) ;
#235 = CC_DESIGN_APPROVAL ( #43, ( #311 ) ) ;
#236 = PRODUCT ( 'Top', 'Top', '', ( #249 ) ) ;
#237 = APPLIED_EXTERNAL_IDENTIFICATION_ASSIGNMENT ( 'Cone.STEP' , #227, #31,( #65) ) ;
#238 = CC_DESIGN_DATE_AND_TIME_ASSIGNMENT ( #206, #208, ( #311 ) ) ;
#239 = PERSON_AND_ORGANIZATION_ROLE ( 'design_owner' ) ;
#240 = APPROVAL_DATE_TIME ( #22, #127 ) ;
#241 = APPROVAL_PERSON_ORGANIZATION ( #181, #304, #221 ) ;
#242 = PERSON_AND_ORGANIZATION ( #18446744073709551615, #18446744073709551615 ) ;
#243 = CALENDAR_DATE ( 2026, 9, 1 ) ;
#244 = SHAPE_DEFINITION_REPRESENTATION ( #37, #189 ) ;
#245 = OBJECT_ROLE ('mandatory',$ ) ;
#246 = CC_DESIGN_SECURITY_CLASSIFICATION ( #16, ( #216 ) ) ;
#247 = COORDINATED_UNIVERSAL_TIME_OFFSET ( 5, 0, .BEHIND. ) ;
#248 = DIRECTION ( 'NONE',  ( 0.000000000000000000, 0.000000000000000000, 1.000000000000000000 ) ) ;
#249 = MECHANICAL_CONTEXT ( 'NONE', #213, 'mechanical' ) ;
#250 = COORDINATED_UNIVERSAL_TIME_OFFSET ( 5, 0, .BEHIND. ) ;
#251 = PROPERTY_DEFINITION_REPRESENTATION ( #204, #189 ) ;
#252 = CC_DESIGN_PERSON_AND_ORGANIZATION_ASSIGNMENT ( #109, #107, ( #236 ) ) ;
#253 = LOCAL_TIME ( 0, 57, 21.00000000000000000, #255 ) ;
#254 = APPLICATION_CONTEXT ( 'configuration controlled 3d designs of mechanical parts and assemblies' ) ;
#255 = COORDINATED_UNIVERSAL_TIME_OFFSET ( 5, 0, .BEHIND. ) ;
#256 = CC_DESIGN_PERSON_AND_ORGANIZATION_ASSIGNMENT ( #33, #193, ( #277 ) ) ;
#257 = DATE_AND_TIME ( #305, #316 ) ;
#258 = CC_DESIGN_PERSON_AND_ORGANIZATION_ASSIGNMENT ( #287, #318, ( #311 ) ) ;
#259 = APPROVAL_DATE_TIME ( #306, #132 ) ;
#260 = CARTESIAN_POINT ( 'NONE',  ( 0.003366182185141841643, -0.003522896378544748686, 0.0006171153027025866322 ) ) ;
#261 = CC_DESIGN_PERSON_AND_ORGANIZATION_ASSIGNMENT ( #27, #302, ( #144 ) ) ;
#262 = DIRECTION ( 'NONE',  ( 0.000000000000000000, 0.000000000000000000, 1.000000000000000000 ) ) ;
#263 = CC_DESIGN_APPROVAL ( #269, ( #74 ) ) ;
#264 = PRODUCT ( 'Cone', 'Cone', '', ( #1 ) ) ;
#265 = DATE_AND_TIME ( #288, #229 ) ;
#266 = CALENDAR_DATE ( 2026, 9, 1 ) ;
#267 = CALENDAR_DATE ( 2026, 9, 1 ) ;
#268 = APPROVAL_PERSON_ORGANIZATION ( #156, #35, #135 ) ;
#269 = APPROVAL ( #331, 'Coincident' ) ;
#270 = ROLE_ASSOCIATION ( #245, #93 ) ;
#271 = PERSON_AND_ORGANIZATION ( #18446744073709551615, #18446744073709551615 ) ;
#272 =( REPRESENTATION_RELATIONSHIP ('NONE','NONE', #48, #303 ) REPRESENTATION_RELATIONSHIP_WITH_TRANSFORMATION ( #88 )SHAPE_REPRESENTATION_RELATIONSHIP( ) );
#273 = PERSON_AND_ORGANIZATION ( #18446744073709551615, #18446744073709551615 ) ;
#274 = CALENDAR_DATE ( 2026, 9, 1 ) ;
#275 = CC_DESIGN_PERSON_AND_ORGANIZATION_ASSIGNMENT ( #105, #159, ( #155 ) ) ;
#276 = COORDINATED_UNIVERSAL_TIME_OFFSET ( 5, 0, .BEHIND. ) ;
#277 = SECURITY_CLASSIFICATION ( '', '', #195 ) ;
#278 = SECURITY_CLASSIFICATION_LEVEL ( 'unclassified' ) ;
#279 = APPROVAL ( #100, 'Coincident' ) ;
#280 = CALENDAR_DATE ( 2026, 9, 1 ) ;
#281 = LOCAL_TIME ( 0, 57, 21.00000000000000000, #124 ) ;
#282 =( NAMED_UNIT ( * ) PLANE_ANGLE_UNIT ( ) SI_UNIT ( $, .RADIAN. ) );
#283 = SECURITY_CLASSIFICATION_LEVEL ( 'unclassified' ) ;
#284 = COORDINATED_UNIVERSAL_TIME_OFFSET ( 5, 0, .BEHIND. ) ;
#285 = CC_DESIGN_PERSON_AND_ORGANIZATION_ASSIGNMENT ( #164, #53, ( #155 ) ) ;
#286 = CONTEXT_DEPENDENT_SHAPE_REPRESENTATION ( #272, #173 ) ;
#287 = PERSON_AND_ORGANIZATION ( #18446744073709551615, #18446744073709551615 ) ;
#288 = CALENDAR_DATE ( 2026, 9, 1 ) ;
#289 =( GEOMETRIC_REPRESENTATION_CONTEXT ( 3 ) GLOBAL_UNCERTAINTY_ASSIGNED_CONTEXT ( ( #117 ) ) GLOBAL_UNIT_ASSIGNED_CONTEXT ( ( #214, #308, #94 ) ) REPRESENTATION_CONTEXT ( 'NONE', 'WORKASPACE' ) );
#290 = APPROVAL_ROLE ( '' ) ;
#291 = DATE_TIME_ROLE ( 'creation_date' ) ;
#292 = COORDINATED_UNIVERSAL_TIME_OFFSET ( 5, 0, .BEHIND. ) ;
#293 = CC_DESIGN_APPROVAL ( #132, ( #223 ) ) ;
#294 = LOCAL_TIME ( 0, 57, 21.00000000000000000, #61 ) ;
#295 = APPROVAL_ROLE ( '' ) ;
#296 = APPROVAL ( #225, 'UNKNOWN' ) ;
#297 = DATE_AND_TIME ( #274, #207 ) ;
#298 = COORDINATED_UNIVERSAL_TIME_OFFSET ( 5, 0, .BEHIND. ) ;
#299 = AXIS2_PLACEMENT_3D ( 'NONE', #24, #262, #44 ) ;
#300 = DATE_AND_TIME ( #334, #110 ) ;
#301 = CARTESIAN_POINT ( 'NONE',  ( 0.000000000000000000, 0.000000000000000000, 0.000000000000000000 ) ) ;
#302 = PERSON_AND_ORGANIZATION_ROLE ( 'creator' ) ;
#303 = SHAPE_REPRESENTATION ( 'Top', ( #45 ), #289 ) ;
#304 = APPROVAL ( #212, 'Coincident' ) ;
#305 = CALENDAR_DATE ( 2026, 9, 1 ) ;
#306 = DATE_AND_TIME ( #14, #253 ) ;
#307 = LOCAL_TIME ( 0, 57, 21.00000000000000000, #8 ) ;
#308 =( NAMED_UNIT ( * ) PLANE_ANGLE_UNIT ( ) SI_UNIT ( $, .RADIAN. ) );
#309 = ORGANIZATION ( 'NAUO-ORG4', 'UNSPECIFIED', 'UNSPECIFIED' ) ;
#310 = DATE_AND_TIME ( #280, #157 ) ;
#311 = PRODUCT_DEFINITION ( 'General', '', #216, #39 ) ;
#312 = DIRECTION ( 'NONE',  ( 1.000000000000000000, 0.000000000000000000, 0.000000000000000000 ) ) ;
#313 =( LENGTH_UNIT ( ) NAMED_UNIT ( * ) SI_UNIT ( $, .METRE. ) );
#314 = LOCAL_TIME ( 0, 57, 21.00000000000000000, #247 ) ;
#315 = PRODUCT_DEFINITION_SHAPE ( 'NONE', 'NONE',  #345 ) ;
#316 = LOCAL_TIME ( 0, 57, 21.00000000000000000, #57 ) ;
#317 = PRODUCT_DEFINITION ( 'General', '', #155, #198 ) ;
#318 = PERSON_AND_ORGANIZATION_ROLE ( 'creator' ) ;
#319 = PERSON ( 'NAUO-PER4', 'UNSPECIFIED', 'UNSPECIFIED', ('UNSPECIFIED'), ('UNSPECIFIED'), ('UNSPECIFIED') ) ;
#320 = APPLICATION_PROTOCOL_DEFINITION ( 'international standard', 'config_control_design', 1994, #150 ) ;
#321 = PERSON_AND_ORGANIZATION ( #18446744073709551615, #18446744073709551615 ) ;
#322 = LOCAL_TIME ( 0, 57, 21.00000000000000000, #83 ) ;
#323 = ORGANIZATION ( 'NAUO-ORG3', 'UNSPECIFIED', 'UNSPECIFIED' ) ;
#324 = CALENDAR_DATE ( 2026, 9, 1 ) ;
#325 = SECURITY_CLASSIFICATION_LEVEL ( 'unclassified' ) ;
#326 = DATE_AND_TIME ( #136, #177 ) ;
#327 = CC_DESIGN_DATE_AND_TIME_ASSIGNMENT ( #297, #78, ( #74 ) ) ;
#328 = LOCAL_TIME ( 0, 57, 21.00000000000000000, #122 ) ;
#329 = PERSON_AND_ORGANIZATION ( #18446744073709551615, #18446744073709551615 ) ;
#330 = DIRECTION ( 'NONE',  ( 0.000000000000000000, 0.000000000000000000, 1.000000000000000000 ) ) ;
#331 = APPROVAL_STATUS ( 'not_yet_approved' ) ;
#332 = COORDINATED_UNIVERSAL_TIME_OFFSET ( 5, 0, .BEHIND. ) ;
#333 = CC_DESIGN_APPROVAL ( #127, ( #16 ) ) ;
#334 = CALENDAR_DATE ( 2026, 9, 1 ) ;
#335 = CC_DESIGN_SECURITY_CLASSIFICATION ( #342, ( #344 ) ) ;
#336 = APPROVAL ( #101, 'Coincident' ) ;
#337 = CONTEXT_DEPENDENT_SHAPE_REPRESENTATION ( #138, #315 ) ;
#338 = ROLE_ASSOCIATION ( #158, #196 ) ;
#339 = PROPERTY_DEFINITION ('external definition','', #199 ) ;
#340 = APPROVAL_PERSON_ORGANIZATION ( #3, #336, #234 ) ;
#341 = CARTESIAN_POINT ( 'NONE',  ( 0.000000000000000000, 0.000000000000000000, 0.000000000000000000 ) ) ;
#342 = SECURITY_CLASSIFICATION ( '', '', #283 ) ;
#343 = PERSON_AND_ORGANIZATION ( #18446744073709551615, #18446744073709551615 ) ;
#344 = NEXT_ASSEMBLY_USAGE_OCCURRENCE ( 'NAUO3', ' ', ' ', #311, #7, $ ) ;
#345 = NEXT_ASSEMBLY_USAGE_OCCURRENCE ( 'NAUO4', ' ', ' ', #311, #317, $ ) ;
ENDSEC;
END-ISO-10303-21;
