ISO-10303-21;
HEADER;
FILE_DESCRIPTION (( 'STEP AP203' ),
    '1' );
FILE_NAME ('Fan.STEP',
    '2026-01-09T05:57:18',
    ( '' ),
    ( '' ),
    'SwSTEP 2.0',
    'SolidWorks 2026',
    '' );
FILE_SCHEMA (( 'CONFIG_CONTROL_DESIGN' ));
ENDSEC;

DATA;
#1 = EDGE_LOOP ( 'NONE', ( #187, #270 ) ) ;
#2 = DATE_TIME_ROLE ( 'classification_date' ) ;
#3 = CARTESIAN_POINT ( 'NONE',  ( -16.29514514643414813, 0.000000000000000000, -16.00000000000000355 ) ) ;
#4 = DIRECTION ( 'NONE',  ( 0.000000000000000000, 0.000000000000000000, 1.000000000000000000 ) ) ;
#5 = LOCAL_TIME ( 0, 57, 18.00000000000000000, #568 ) ;
#6 = VECTOR ( 'NONE', #473, 1000.000000000000000 ) ;
#7 = VERTEX_POINT ( 'NONE', #15 ) ;
#8 = LINE ( 'NONE', #180, #253 ) ;
#9 = VERTEX_POINT ( 'NONE', #459 ) ;
#10 = LINE ( 'NONE', #248, #6 ) ;
#11 = DIRECTION ( 'NONE',  ( -0.000000000000000000, -1.000000000000000000, -0.000000000000000000 ) ) ;
#12 = EDGE_LOOP ( 'NONE', ( #181, #197, #398, #203 ) ) ;
#13 = EDGE_CURVE ( 'NONE', #132, #698, #641, .T. ) ;
#14 = FACE_OUTER_BOUND ( 'NONE', #12, .T. ) ;
#15 = CARTESIAN_POINT ( 'NONE',  ( -20.00000000000000355, 28.00000000000000000, 14.99999999999995914 ) ) ;
#16 = AXIS2_PLACEMENT_3D ( 'NONE', #3, #421, #694 ) ;
#17 = ORIENTED_EDGE ( 'NONE', *, *, #237, .F. ) ;
#18 = CARTESIAN_POINT ( 'NONE',  ( 15.70485485356585365, 28.00000000000000000, -16.00000000000000355 ) ) ;
#19 = EDGE_CURVE ( 'NONE', #343, #37, #322, .T. ) ;
#20 = VERTEX_POINT ( 'NONE', #252 ) ;
#21 = ORIENTED_EDGE ( 'NONE', *, *, #362, .F. ) ;
#22 = CARTESIAN_POINT ( 'NONE',  ( 15.70485485356585365, 0.000000000000000000, -16.00000000000000355 ) ) ;
#23 = FACE_OUTER_BOUND ( 'NONE', #480, .T. ) ;
#24 = ORIENTED_EDGE ( 'NONE', *, *, #664, .T. ) ;
#25 = CYLINDRICAL_SURFACE ( 'NONE', #92, 14.99539947335769341 ) ;
#26 = CARTESIAN_POINT ( 'NONE',  ( -20.00000000000000711, 28.00000000000000000, -14.99999999999996803 ) ) ;
#27 = EDGE_CURVE ( 'NONE', #343, #49, #571, .T. ) ;
#28 = VECTOR ( 'NONE', #218, 1000.000000000000000 ) ;
#29 = EDGE_LOOP ( 'NONE', ( #427, #274, #139, #157 ) ) ;
#30 = AXIS2_PLACEMENT_3D ( 'NONE', #18, #147, #76 ) ;
#31 = AXIS2_PLACEMENT_3D ( 'NONE', #54, #47, #333 ) ;
#32 = CARTESIAN_POINT ( 'NONE',  ( 14.99999999999995737, 28.00000000000000000, -20.00000000000000355 ) ) ;
#33 = DIRECTION ( 'NONE',  ( -0.000000000000000000, 1.000000000000000000, -0.000000000000000000 ) ) ;
#34 = ORIENTED_EDGE ( 'NONE', *, *, #240, .F. ) ;
#35 = LINE ( 'NONE', #89, #527 ) ;
#36 = CARTESIAN_POINT ( 'NONE',  ( -14.99999999999997158, 28.00000000000000000, -20.00000000000000355 ) ) ;
#37 = VERTEX_POINT ( 'NONE', #701 ) ;
#38 = COORDINATED_UNIVERSAL_TIME_OFFSET ( 5, 0, .BEHIND. ) ;
#39 = CARTESIAN_POINT ( 'NONE',  ( 15.70485485356585365, 28.00000000000000000, 15.99999999999999645 ) ) ;
#40 = ORIENTED_EDGE ( 'NONE', *, *, #726, .F. ) ;
#41 = CC_DESIGN_APPROVAL ( #138, ( #729 ) ) ;
#42 = VECTOR ( 'NONE', #141, 1000.000000000000000 ) ;
#43 = VECTOR ( 'NONE', #309, 1000.000000000000000 ) ;
#44 = CC_DESIGN_PERSON_AND_ORGANIZATION_ASSIGNMENT ( #290, #620, ( #531 ) ) ;
#45 = DIRECTION ( 'NONE',  ( 0.000000000000000000, 1.000000000000000000, -0.000000000000000000 ) ) ;
#46 = ORIENTED_EDGE ( 'NONE', *, *, #478, .T. ) ;
#47 = DIRECTION ( 'NONE',  ( -0.000000000000000000, 1.000000000000000000, -0.000000000000000000 ) ) ;
#48 = CARTESIAN_POINT ( 'NONE',  ( -16.29514514643414813, 28.00000000000000000, -16.00000000000000355 ) ) ;
#49 = VERTEX_POINT ( 'NONE', #587 ) ;
#50 = CALENDAR_DATE ( 2026, 9, 1 ) ;
#51 = LINE ( 'NONE', #353, #549 ) ;
#52 = ORIENTED_EDGE ( 'NONE', *, *, #712, .T. ) ;
#53 = ORIENTED_EDGE ( 'NONE', *, *, #179, .F. ) ;
#54 = CARTESIAN_POINT ( 'NONE',  ( 15.70485485356585365, 0.000000000000000000, -16.00000000000000355 ) ) ;
#55 = VECTOR ( 'NONE', #137, 1000.000000000000000 ) ;
#56 = AXIS2_PLACEMENT_3D ( 'NONE', #614, #329, #323 ) ;
#57 = CARTESIAN_POINT ( 'NONE',  ( 14.99999999999996803, 28.00000000000000000, 19.99999999999999645 ) ) ;
#58 = AXIS2_PLACEMENT_3D ( 'NONE', #164, #220, #675 ) ;
#59 = ADVANCED_FACE ( 'NONE', ( #302 ), #595, .T. ) ;
#60 = VERTEX_POINT ( 'NONE', #687 ) ;
#61 = CALENDAR_DATE ( 2026, 9, 1 ) ;
#62 = CARTESIAN_POINT ( 'NONE',  ( 0.000000000000000000, 28.00000000000000000, 0.000000000000000000 ) ) ;
#63 = DIRECTION ( 'NONE',  ( 0.000000000000000000, 1.000000000000000000, 0.000000000000000000 ) ) ;
#64 = CIRCLE ( 'NONE', #78, 1.000000000000000888 ) ;
#65 = FACE_OUTER_BOUND ( 'NONE', #650, .T. ) ;
#66 = ADVANCED_FACE ( 'NONE', ( #67 ), #533, .T. ) ;
#67 = FACE_OUTER_BOUND ( 'NONE', #683, .T. ) ;
#68 = CIRCLE ( 'NONE', #456, 4.999999999999999112 ) ;
#69 = EDGE_LOOP ( 'NONE', ( #249, #662, #81, #720, #677, #108, #482, #497 ) ) ;
#70 = DIRECTION ( 'NONE',  ( -0.000000000000000000, 1.000000000000000000, -0.000000000000000000 ) ) ;
#71 = VERTEX_POINT ( 'NONE', #173 ) ;
#72 = ORIENTED_EDGE ( 'NONE', *, *, #576, .T. ) ;
#73 = CARTESIAN_POINT ( 'NONE',  ( 15.70485485356585365, 28.00000000000000000, -15.00000000000000355 ) ) ;
#74 = EDGE_LOOP ( 'NONE', ( #507, #645, #501, #363 ) ) ;
#75 = ORIENTED_EDGE ( 'NONE', *, *, #588, .T. ) ;
#76 = DIRECTION ( 'NONE',  ( 0.000000000000000000, 0.000000000000000000, 1.000000000000000000 ) ) ;
#77 = ORIENTED_EDGE ( 'NONE', *, *, #649, .T. ) ;
#78 = AXIS2_PLACEMENT_3D ( 'NONE', #500, #199, #434 ) ;
#79 = AXIS2_PLACEMENT_3D ( 'NONE', #48, #102, #283 ) ;
#80 = AXIS2_PLACEMENT_3D ( 'NONE', #490, #710, #211 ) ;
#81 = ORIENTED_EDGE ( 'NONE', *, *, #300, .F. ) ;
#82 = DIRECTION ( 'NONE',  ( -0.000000000000000000, 1.000000000000000000, -0.000000000000000000 ) ) ;
#83 = CARTESIAN_POINT ( 'NONE',  ( 15.70485485356585365, 0.000000000000000000, 16.99999999999999645 ) ) ;
#84 = ORIENTED_EDGE ( 'NONE', *, *, #432, .F. ) ;
#85 = LINE ( 'NONE', #484, #229 ) ;
#86 = ADVANCED_FACE ( 'NONE', ( #405, #530, #419, #632, #116, #299 ), #134, .F. ) ;
#87 = DIRECTION ( 'NONE',  ( 0.000000000000000000, 1.000000000000000000, 0.000000000000000000 ) ) ;
#88 = ORIENTED_EDGE ( 'NONE', *, *, #390, .T. ) ;
#89 = CARTESIAN_POINT ( 'NONE',  ( -14.99999999999996803, 28.00000000000000000, 19.99999999999999645 ) ) ;
#90 = LINE ( 'NONE', #26, #225 ) ;
#91 = EDGE_LOOP ( 'NONE', ( #103, #250 ) ) ;
#92 = AXIS2_PLACEMENT_3D ( 'NONE', #387, #725, #550 ) ;
#93 = LOCAL_TIME ( 0, 57, 18.00000000000000000, #400 ) ;
#94 = CARTESIAN_POINT ( 'NONE',  ( -14.99999999999996803, 0.000000000000000000, 19.99999999999999645 ) ) ;
#95 = MANIFOLD_SOLID_BREP ( 'Cut-Extrude2', #526 ) ;
#96 = CYLINDRICAL_SURFACE ( 'NONE', #356, 5.000000000000000888 ) ;
#97 = ORIENTED_EDGE ( 'NONE', *, *, #432, .T. ) ;
#98 = MECHANICAL_CONTEXT ( 'NONE', #697, 'mechanical' ) ;
#99 = DIRECTION ( 'NONE',  ( -0.000000000000000000, 1.000000000000000000, -0.000000000000000000 ) ) ;
#100 = EDGE_LOOP ( 'NONE', ( #548, #84, #439, #528 ) ) ;
#101 = ADVANCED_FACE ( 'NONE', ( #479 ), #591, .F. ) ;
#102 = DIRECTION ( 'NONE',  ( 0.000000000000000000, 1.000000000000000000, 0.000000000000000000 ) ) ;
#103 = ORIENTED_EDGE ( 'NONE', *, *, #499, .T. ) ;
#104 = AXIS2_PLACEMENT_3D ( 'NONE', #120, #236, #731 ) ;
#105 = APPROVAL_STATUS ( 'not_yet_approved' ) ;
#106 = CIRCLE ( 'NONE', #743, 14.99539947335769341 ) ;
#107 = FACE_OUTER_BOUND ( 'NONE', #357, .T. ) ;
#108 = ORIENTED_EDGE ( 'NONE', *, *, #678, .F. ) ;
#109 = DATE_AND_TIME ( #730, #93 ) ;
#110 = DIRECTION ( 'NONE',  ( 0.000000000000000000, 0.000000000000000000, 1.000000000000000000 ) ) ;
#111 = ORIENTED_EDGE ( 'NONE', *, *, #27, .T. ) ;
#112 = PERSON_AND_ORGANIZATION ( #607, #518 ) ;
#113 = DIRECTION ( 'NONE',  ( 0.000000000000000000, 0.000000000000000000, 1.000000000000000000 ) ) ;
#114 = PRODUCT_DEFINITION_SHAPE ( 'NONE', 'NONE',  #437 ) ;
#115 = ADVANCED_FACE ( 'NONE', ( #23 ), #259, .F. ) ;
#116 = FACE_BOUND ( 'NONE', #126, .T. ) ;
#117 = COORDINATED_UNIVERSAL_TIME_OFFSET ( 5, 0, .BEHIND. ) ;
#118 = AXIS2_PLACEMENT_3D ( 'NONE', #719, #87, #546 ) ;
#119 = CIRCLE ( 'NONE', #201, 4.999999999999999112 ) ;
#120 = CARTESIAN_POINT ( 'NONE',  ( -14.99999999999997158, 28.00000000000000000, -20.00000000000000355 ) ) ;
#121 = CIRCLE ( 'NONE', #202, 5.000000000000000888 ) ;
#122 = EDGE_CURVE ( 'NONE', #544, #60, #596, .T. ) ;
#123 = FACE_BOUND ( 'NONE', #1, .T. ) ;
#124 = APPROVAL ( #105, 'UNSPECIFIED' ) ;
#125 = CARTESIAN_POINT ( 'NONE',  ( -15.00000000000000533, 0.000000000000000000, 14.99999999999999645 ) ) ;
#126 = EDGE_LOOP ( 'NONE', ( #150, #724 ) ) ;
#127 = DIRECTION ( 'NONE',  ( -0.000000000000000000, -1.000000000000000000, -0.000000000000000000 ) ) ;
#128 = VECTOR ( 'NONE', #33, 1000.000000000000000 ) ;
#129 = ORIENTED_EDGE ( 'NONE', *, *, #423, .F. ) ;
#130 = CIRCLE ( 'NONE', #491, 1.000000000000000888 ) ;
#131 = VECTOR ( 'NONE', #340, 1000.000000000000000 ) ;
#132 = VERTEX_POINT ( 'NONE', #36 ) ;
#133 = DIRECTION ( 'NONE',  ( 0.000000000000000000, 0.000000000000000000, 1.000000000000000000 ) ) ;
#134 = PLANE ( 'NONE',  #263 ) ;
#135 = EDGE_LOOP ( 'NONE', ( #487, #246, #206, #288 ) ) ;
#136 = CARTESIAN_POINT ( 'NONE',  ( -16.29514514643414813, 28.00000000000000000, 16.99999999999999645 ) ) ;
#137 = DIRECTION ( 'NONE',  ( -0.000000000000000000, 1.000000000000000000, -0.000000000000000000 ) ) ;
#138 = APPROVAL ( #352, 'UNSPECIFIED' ) ;
#139 = ORIENTED_EDGE ( 'NONE', *, *, #308, .T. ) ;
#140 = DIRECTION ( 'NONE',  ( 0.000000000000000000, 0.000000000000000000, 1.000000000000000000 ) ) ;
#141 = DIRECTION ( 'NONE',  ( -0.000000000000000000, -1.000000000000000000, -0.000000000000000000 ) ) ;
#142 = AXIS2_PLACEMENT_3D ( 'NONE', #159, #45, #739 ) ;
#143 = VERTEX_POINT ( 'NONE', #156 ) ;
#144 = DIRECTION ( 'NONE',  ( 0.000000000000000000, 1.000000000000000000, 0.000000000000000000 ) ) ;
#145 = DIRECTION ( 'NONE',  ( 0.000000000000000000, 0.000000000000000000, 1.000000000000000000 ) ) ;
#146 = ORIENTED_EDGE ( 'NONE', *, *, #300, .T. ) ;
#147 = DIRECTION ( 'NONE',  ( 0.000000000000000000, 1.000000000000000000, 0.000000000000000000 ) ) ;
#148 = PRODUCT_RELATED_PRODUCT_CATEGORY ( 'detail', '', ( #531 ) ) ;
#149 = DIRECTION ( 'NONE',  ( 0.000000000000000000, 0.000000000000000000, 1.000000000000000000 ) ) ;
#150 = ORIENTED_EDGE ( 'NONE', *, *, #331, .T. ) ;
#151 = CARTESIAN_POINT ( 'NONE',  ( -16.29514514643414813, 28.00000000000000000, -17.00000000000000355 ) ) ;
#152 = DIRECTION ( 'NONE',  ( 0.000000000000000000, 0.000000000000000000, 1.000000000000000000 ) ) ;
#153 = EDGE_LOOP ( 'NONE', ( #281, #233, #558, #740 ) ) ;
#154 = CIRCLE ( 'NONE', #188, 1.000000000000000888 ) ;
#155 = DIRECTION ( 'NONE',  ( 1.000000000000000000, 0.000000000000000000, -1.156482317317874190E-16 ) ) ;
#156 = CARTESIAN_POINT ( 'NONE',  ( 15.70485485356585365, 28.00000000000000000, 14.99999999999999645 ) ) ;
#157 = ORIENTED_EDGE ( 'NONE', *, *, #721, .F. ) ;
#158 = DIRECTION ( 'NONE',  ( 0.000000000000000000, 0.000000000000000000, 1.000000000000000000 ) ) ;
#159 = CARTESIAN_POINT ( 'NONE',  ( 14.99999999999999467, 0.000000000000000000, -15.00000000000000355 ) ) ;
#160 = ORIENTED_EDGE ( 'NONE', *, *, #686, .F. ) ;
#161 = CARTESIAN_POINT ( 'NONE',  ( 19.99999999999999289, 28.00000000000000000, -14.99999999999996803 ) ) ;
#162 = CARTESIAN_POINT ( 'NONE',  ( -20.00000000000000355, 0.000000000000000000, 14.99999999999995914 ) ) ;
#163 = ORIENTED_EDGE ( 'NONE', *, *, #627, .F. ) ;
#164 = CARTESIAN_POINT ( 'NONE',  ( 0.000000000000000000, 0.000000000000000000, 0.000000000000000000 ) ) ;
#165 = ADVANCED_FACE ( 'NONE', ( #372 ), #560, .F. ) ;
#166 = UNCERTAINTY_MEASURE_WITH_UNIT (LENGTH_MEASURE( 1.000000000000000082E-05 ), #230, 'distance_accuracy_value', 'NONE');
#167 = CC_DESIGN_APPROVAL ( #124, ( #437 ) ) ;
#168 = CARTESIAN_POINT ( 'NONE',  ( -20.00000000000000711, 28.00000000000000000, -14.99999999999996803 ) ) ;
#169 = ORIENTED_EDGE ( 'NONE', *, *, #504, .T. ) ;
#170 = PERSON_AND_ORGANIZATION ( #607, #518 ) ;
#171 = EDGE_CURVE ( 'NONE', #424, #222, #90, .T. ) ;
#172 = LINE ( 'NONE', #689, #28 ) ;
#173 = CARTESIAN_POINT ( 'NONE',  ( 14.99999999999995737, 28.00000000000000000, -20.00000000000000355 ) ) ;
#174 =( NAMED_UNIT ( * ) PLANE_ANGLE_UNIT ( ) SI_UNIT ( $, .RADIAN. ) );
#175 = CARTESIAN_POINT ( 'NONE',  ( -16.29514514643414813, 0.000000000000000000, -17.00000000000000355 ) ) ;
#176 = ADVANCED_FACE ( 'NONE', ( #205 ), #96, .T. ) ;
#177 = CIRCLE ( 'NONE', #516, 1.000000000000000888 ) ;
#178 = FACE_BOUND ( 'NONE', #716, .T. ) ;
#179 = EDGE_CURVE ( 'NONE', #406, #713, #64, .T. ) ;
#180 = CARTESIAN_POINT ( 'NONE',  ( -20.00000000000000711, 28.00000000000000000, -14.99999999999996803 ) ) ;
#181 = ORIENTED_EDGE ( 'NONE', *, *, #369, .F. ) ;
#182 = CARTESIAN_POINT ( 'NONE',  ( -20.00000000000000355, 28.00000000000000000, 14.99999999999995914 ) ) ;
#183 = CARTESIAN_POINT ( 'NONE',  ( -14.99999999999997158, 28.00000000000000000, -20.00000000000000355 ) ) ;
#184 = ORIENTED_EDGE ( 'NONE', *, *, #303, .T. ) ;
#185 = CARTESIAN_POINT ( 'NONE',  ( -16.29514514643414813, 0.000000000000000000, 15.99999999999999645 ) ) ;
#186 = AXIS2_PLACEMENT_3D ( 'NONE', #256, #280, #345 ) ;
#187 = ORIENTED_EDGE ( 'NONE', *, *, #122, .F. ) ;
#188 = AXIS2_PLACEMENT_3D ( 'NONE', #185, #305, #243 ) ;
#189 = ORIENTED_EDGE ( 'NONE', *, *, #736, .T. ) ;
#190 = CARTESIAN_POINT ( 'NONE',  ( -16.29514514643414813, 28.00000000000000000, 15.99999999999999645 ) ) ;
#191 = APPROVAL ( #347, 'UNSPECIFIED' ) ;
#192 = DIRECTION ( 'NONE',  ( -0.000000000000000000, -1.000000000000000000, -0.000000000000000000 ) ) ;
#193 = ORIENTED_EDGE ( 'NONE', *, *, #447, .T. ) ;
#194 = CARTESIAN_POINT ( 'NONE',  ( -15.00000000000000888, 28.00000000000000000, -15.00000000000000533 ) ) ;
#195 = DIRECTION ( 'NONE',  ( -0.000000000000000000, 1.000000000000000000, -0.000000000000000000 ) ) ;
#196 = EDGE_CURVE ( 'NONE', #20, #304, #503, .T. ) ;
#197 = ORIENTED_EDGE ( 'NONE', *, *, #442, .T. ) ;
#198 = DIRECTION ( 'NONE',  ( -1.000000000000000000, -0.000000000000000000, -0.000000000000000000 ) ) ;
#199 = DIRECTION ( 'NONE',  ( 0.000000000000000000, 1.000000000000000000, 0.000000000000000000 ) ) ;
#200 = AXIS2_PLACEMENT_3D ( 'NONE', #696, #11, #422 ) ;
#201 = AXIS2_PLACEMENT_3D ( 'NONE', #209, #438, #152 ) ;
#202 = AXIS2_PLACEMENT_3D ( 'NONE', #657, #376, #556 ) ;
#203 = ORIENTED_EDGE ( 'NONE', *, *, #303, .F. ) ;
#204 = FACE_OUTER_BOUND ( 'NONE', #541, .T. ) ;
#205 = FACE_OUTER_BOUND ( 'NONE', #435, .T. ) ;
#206 = ORIENTED_EDGE ( 'NONE', *, *, #599, .F. ) ;
#207 = DIRECTION ( 'NONE',  ( 1.000000000000000000, 0.000000000000000000, 0.000000000000000000 ) ) ;
#208 = SHAPE_DEFINITION_REPRESENTATION ( #114, #330 ) ;
#209 = CARTESIAN_POINT ( 'NONE',  ( 15.00000000000000355, 0.000000000000000000, 14.99999999999999822 ) ) ;
#210 = ORIENTED_EDGE ( 'NONE', *, *, #331, .F. ) ;
#211 = DIRECTION ( 'NONE',  ( 0.000000000000000000, 0.000000000000000000, 1.000000000000000000 ) ) ;
#212 = DIRECTION ( 'NONE',  ( 0.000000000000000000, 0.000000000000000000, 1.000000000000000000 ) ) ;
#213 = AXIS2_PLACEMENT_3D ( 'NONE', #368, #402, #517 ) ;
#214 = CIRCLE ( 'NONE', #142, 5.000000000000000888 ) ;
#215 = ORIENTED_EDGE ( 'NONE', *, *, #27, .F. ) ;
#216 = AXIS2_PLACEMENT_3D ( 'NONE', #604, #271, #321 ) ;
#217 = CARTESIAN_POINT ( 'NONE',  ( 15.70485485356585365, 0.000000000000000000, 14.99999999999999645 ) ) ;
#218 = DIRECTION ( 'NONE',  ( -0.000000000000000000, -1.000000000000000000, -0.000000000000000000 ) ) ;
#219 = EDGE_LOOP ( 'NONE', ( #97, #617 ) ) ;
#220 = DIRECTION ( 'NONE',  ( 0.000000000000000000, 0.000000000000000000, 1.000000000000000000 ) ) ;
#221 = CARTESIAN_POINT ( 'NONE',  ( 15.70485485356585365, 28.00000000000000000, 16.99999999999999645 ) ) ;
#222 = VERTEX_POINT ( 'NONE', #618 ) ;
#223 = ADVANCED_FACE ( 'NONE', ( #377 ), #610, .F. ) ;
#224 = CARTESIAN_POINT ( 'NONE',  ( -16.29514514643414813, 0.000000000000000000, -16.00000000000000355 ) ) ;
#225 = VECTOR ( 'NONE', #485, 1000.000000000000000 ) ;
#226 = ORIENTED_EDGE ( 'NONE', *, *, #336, .F. ) ;
#227 = AXIS2_PLACEMENT_3D ( 'NONE', #224, #621, #508 ) ;
#228 = ADVANCED_FACE ( 'NONE', ( #388 ), #665, .F. ) ;
#229 = VECTOR ( 'NONE', #318, 1000.000000000000000 ) ;
#230 =( LENGTH_UNIT ( ) NAMED_UNIT ( * ) SI_UNIT ( .MILLI., .METRE. ) );
#231 = VECTOR ( 'NONE', #572, 1000.000000000000000 ) ;
#232 = DIRECTION ( 'NONE',  ( 0.000000000000000000, 0.000000000000000000, 1.000000000000000000 ) ) ;
#233 = ORIENTED_EDGE ( 'NONE', *, *, #171, .F. ) ;
#234 = ORIENTED_EDGE ( 'NONE', *, *, #423, .T. ) ;
#235 = PERSON_AND_ORGANIZATION_ROLE ( 'creator' ) ;
#236 = DIRECTION ( 'NONE',  ( 0.000000000000000000, 0.000000000000000000, 1.000000000000000000 ) ) ;
#237 = EDGE_CURVE ( 'NONE', #597, #544, #430, .T. ) ;
#238 = APPROVAL_ROLE ( '' ) ;
#239 = CARTESIAN_POINT ( 'NONE',  ( -16.29514514643414813, 0.000000000000000000, 16.99999999999999645 ) ) ;
#240 = EDGE_CURVE ( 'NONE', #393, #143, #177, .T. ) ;
#241 = APPROVAL_PERSON_ORGANIZATION ( #521, #138, #238 ) ;
#242 = CIRCLE ( 'NONE', #583, 1.000000000000000888 ) ;
#243 = DIRECTION ( 'NONE',  ( 0.000000000000000000, 0.000000000000000000, 1.000000000000000000 ) ) ;
#244 = VERTEX_POINT ( 'NONE', #277 ) ;
#245 = DIRECTION ( 'NONE',  ( 0.000000000000000000, 1.000000000000000000, 0.000000000000000000 ) ) ;
#246 = ORIENTED_EDGE ( 'NONE', *, *, #390, .F. ) ;
#247 = ADVANCED_FACE ( 'NONE', ( #272 ), #426, .T. ) ;
#248 = CARTESIAN_POINT ( 'NONE',  ( -14.99999999999997158, 0.000000000000000000, -20.00000000000000355 ) ) ;
#249 = ORIENTED_EDGE ( 'NONE', *, *, #592, .F. ) ;
#250 = ORIENTED_EDGE ( 'NONE', *, *, #19, .T. ) ;
#251 = FACE_OUTER_BOUND ( 'NONE', #100, .T. ) ;
#252 = CARTESIAN_POINT ( 'NONE',  ( 0.000000000000000000, 28.00000000000000000, 14.99539947335769341 ) ) ;
#253 = VECTOR ( 'NONE', #638, 1000.000000000000000 ) ;
#254 = ORIENTED_EDGE ( 'NONE', *, *, #350, .T. ) ;
#255 = DIRECTION ( 'NONE',  ( -1.156482317317874190E-16, 0.000000000000000000, -1.000000000000000000 ) ) ;
#256 = CARTESIAN_POINT ( 'NONE',  ( 15.70485485356585365, 0.000000000000000000, 15.99999999999999645 ) ) ;
#257 = VERTEX_POINT ( 'NONE', #543 ) ;
#258 = DIRECTION ( 'NONE',  ( 0.000000000000000000, 1.000000000000000000, 0.000000000000000000 ) ) ;
#259 = CYLINDRICAL_SURFACE ( 'NONE', #667, 1.000000000000000888 ) ;
#260 = EDGE_CURVE ( 'NONE', #257, #9, #119, .T. ) ;
#261 = VERTEX_POINT ( 'NONE', #557 ) ;
#262 = LINE ( 'NONE', #32, #43 ) ;
#263 = AXIS2_PLACEMENT_3D ( 'NONE', #349, #575, #365 ) ;
#264 = CARTESIAN_POINT ( 'NONE',  ( -16.29514514643414813, 0.000000000000000000, 15.99999999999999645 ) ) ;
#265 = AXIS2_PLACEMENT_3D ( 'NONE', #295, #477, #301 ) ;
#266 = CIRCLE ( 'NONE', #615, 1.000000000000000888 ) ;
#267 = ORIENTED_EDGE ( 'NONE', *, *, #196, .F. ) ;
#268 = CARTESIAN_POINT ( 'NONE',  ( 19.99999999999999289, 28.00000000000000000, -14.99999999999996803 ) ) ;
#269 = CARTESIAN_POINT ( 'NONE',  ( -15.00000000000000888, 28.00000000000000000, -15.00000000000000533 ) ) ;
#270 = ORIENTED_EDGE ( 'NONE', *, *, #616, .F. ) ;
#271 = DIRECTION ( 'NONE',  ( 0.000000000000000000, 1.000000000000000000, 0.000000000000000000 ) ) ;
#272 = FACE_OUTER_BOUND ( 'NONE', #153, .T. ) ;
#273 = APPLICATION_CONTEXT ( 'configuration controlled 3d designs of mechanical parts and assemblies' ) ;
#274 = ORIENTED_EDGE ( 'NONE', *, *, #466, .T. ) ;
#275 = LINE ( 'NONE', #217, #231 ) ;
#276 = CC_DESIGN_PERSON_AND_ORGANIZATION_ASSIGNMENT ( #112, #578, ( #729 ) ) ;
#277 = CARTESIAN_POINT ( 'NONE',  ( 19.99999999999999289, 28.00000000000000000, -14.99999999999996803 ) ) ;
#278 = ORIENTED_EDGE ( 'NONE', *, *, #19, .F. ) ;
#279 = APPLICATION_PROTOCOL_DEFINITION ( 'international standard', 'config_control_design', 1994, #273 ) ;
#280 = DIRECTION ( 'NONE',  ( 0.000000000000000000, 1.000000000000000000, 0.000000000000000000 ) ) ;
#281 = ORIENTED_EDGE ( 'NONE', *, *, #592, .T. ) ;
#282 = APPROVAL_DATE_TIME ( #457, #124 ) ;
#283 = DIRECTION ( 'NONE',  ( 0.000000000000000000, 0.000000000000000000, 1.000000000000000000 ) ) ;
#284 = EDGE_CURVE ( 'NONE', #455, #537, #652, .T. ) ;
#285 = ORIENTED_EDGE ( 'NONE', *, *, #580, .T. ) ;
#286 = DATE_AND_TIME ( #50, #5 ) ;
#287 = CARTESIAN_POINT ( 'NONE',  ( -16.29514514643414813, 0.000000000000000000, -16.00000000000000355 ) ) ;
#288 = ORIENTED_EDGE ( 'NONE', *, *, #284, .T. ) ;
#289 = ORIENTED_EDGE ( 'NONE', *, *, #627, .T. ) ;
#290 = PERSON_AND_ORGANIZATION ( #607, #518 ) ;
#291 = AXIS2_PLACEMENT_3D ( 'NONE', #714, #155, #255 ) ;
#292 = CARTESIAN_POINT ( 'NONE',  ( 19.99999999999999289, 0.000000000000000000, -14.99999999999996803 ) ) ;
#293 = DATE_AND_TIME ( #61, #642 ) ;
#294 = EDGE_CURVE ( 'NONE', #420, #393, #606, .T. ) ;
#295 = CARTESIAN_POINT ( 'NONE',  ( 15.70485485356585365, 0.000000000000000000, 15.99999999999999645 ) ) ;
#296 = CARTESIAN_POINT ( 'NONE',  ( 0.000000000000000000, 0.000000000000000000, 0.000000000000000000 ) ) ;
#297 = DIRECTION ( 'NONE',  ( 0.000000000000000000, 0.000000000000000000, 1.000000000000000000 ) ) ;
#298 = AXIS2_PLACEMENT_3D ( 'NONE', #268, #328, #440 ) ;
#299 = FACE_OUTER_BOUND ( 'NONE', #69, .T. ) ;
#300 = EDGE_CURVE ( 'NONE', #564, #261, #214, .T. ) ;
#301 = DIRECTION ( 'NONE',  ( 0.000000000000000000, 0.000000000000000000, 1.000000000000000000 ) ) ;
#302 = FACE_OUTER_BOUND ( 'NONE', #311, .T. ) ;
#303 = EDGE_CURVE ( 'NONE', #608, #406, #681, .T. ) ;
#304 = VERTEX_POINT ( 'NONE', #395 ) ;
#305 = DIRECTION ( 'NONE',  ( 0.000000000000000000, 1.000000000000000000, 0.000000000000000000 ) ) ;
#306 = ORIENTED_EDGE ( 'NONE', *, *, #721, .T. ) ;
#307 = ORIENTED_EDGE ( 'NONE', *, *, #624, .T. ) ;
#308 = EDGE_CURVE ( 'NONE', #304, #20, #612, .T. ) ;
#309 = DIRECTION ( 'NONE',  ( -0.000000000000000000, -1.000000000000000000, -0.000000000000000000 ) ) ;
#310 = VECTOR ( 'NONE', #742, 1000.000000000000000 ) ;
#311 = EDGE_LOOP ( 'NONE', ( #494, #577, #129, #88 ) ) ;
#312 = AXIS2_PLACEMENT_3D ( 'NONE', #452, #747, #505 ) ;
#313 = ORIENTED_EDGE ( 'NONE', *, *, #588, .F. ) ;
#314 = CARTESIAN_POINT ( 'NONE',  ( -15.00000000000000888, 0.000000000000000000, -15.00000000000000533 ) ) ;
#315 = ADVANCED_FACE ( 'NONE', ( #628 ), #625, .F. ) ;
#316 = DIRECTION ( 'NONE',  ( -0.000000000000000000, -1.000000000000000000, -0.000000000000000000 ) ) ;
#317 = ORIENTED_EDGE ( 'NONE', *, *, #726, .T. ) ;
#318 = DIRECTION ( 'NONE',  ( 1.156482317317874190E-16, 0.000000000000000000, 1.000000000000000000 ) ) ;
#319 = DIRECTION ( 'NONE',  ( -0.000000000000000000, -1.000000000000000000, -0.000000000000000000 ) ) ;
#320 = EDGE_LOOP ( 'NONE', ( #317, #52 ) ) ;
#321 = DIRECTION ( 'NONE',  ( 0.000000000000000000, 0.000000000000000000, 1.000000000000000000 ) ) ;
#322 = CIRCLE ( 'NONE', #213, 1.000000000000000888 ) ;
#323 = DIRECTION ( 'NONE',  ( -1.000000000000000000, 0.000000000000000000, -0.000000000000000000 ) ) ;
#324 = LOCAL_TIME ( 0, 57, 18.00000000000000000, #464 ) ;
#325 = VECTOR ( 'NONE', #573, 1000.000000000000000 ) ;
#326 = EDGE_CURVE ( 'NONE', #713, #406, #410, .T. ) ;
#327 = VERTEX_POINT ( 'NONE', #162 ) ;
#328 = DIRECTION ( 'NONE',  ( -1.000000000000000000, 0.000000000000000000, 3.469446951953623064E-16 ) ) ;
#329 = DIRECTION ( 'NONE',  ( 0.000000000000000000, 0.000000000000000000, -1.000000000000000000 ) ) ;
#330 = ADVANCED_BREP_SHAPE_REPRESENTATION ( 'Fan', ( #95, #58 ), #385 ) ;
#331 = EDGE_CURVE ( 'NONE', #608, #534, #242, .T. ) ;
#332 = EDGE_LOOP ( 'NONE', ( #278, #111, #289, #567 ) ) ;
#333 = DIRECTION ( 'NONE',  ( 0.000000000000000000, 0.000000000000000000, 1.000000000000000000 ) ) ;
#334 = DIRECTION ( 'NONE',  ( 0.000000000000000000, 0.000000000000000000, 1.000000000000000000 ) ) ;
#335 = EDGE_LOOP ( 'NONE', ( #705, #169 ) ) ;
#336 = EDGE_CURVE ( 'NONE', #603, #420, #429, .T. ) ;
#337 = DIRECTION ( 'NONE',  ( 0.000000000000000000, 0.000000000000000000, 1.000000000000000000 ) ) ;
#338 = ORIENTED_EDGE ( 'NONE', *, *, #486, .F. ) ;
#339 = AXIS2_PLACEMENT_3D ( 'NONE', #581, #63, #469 ) ;
#340 = DIRECTION ( 'NONE',  ( -0.000000000000000000, -1.000000000000000000, -0.000000000000000000 ) ) ;
#341 = ADVANCED_FACE ( 'NONE', ( #107 ), #631, .F. ) ;
#342 = DIRECTION ( 'NONE',  ( 0.000000000000000000, 1.000000000000000000, 0.000000000000000000 ) ) ;
#343 = VERTEX_POINT ( 'NONE', #579 ) ;
#344 = APPROVAL_ROLE ( '' ) ;
#345 = DIRECTION ( 'NONE',  ( 0.000000000000000000, 0.000000000000000000, 1.000000000000000000 ) ) ;
#346 = DIRECTION ( 'NONE',  ( -0.000000000000000000, -1.000000000000000000, -0.000000000000000000 ) ) ;
#347 = APPROVAL_STATUS ( 'not_yet_approved' ) ;
#348 = DIRECTION ( 'NONE',  ( 0.000000000000000000, 1.000000000000000000, 0.000000000000000000 ) ) ;
#349 = CARTESIAN_POINT ( 'NONE',  ( -15.00000000000000888, 0.000000000000000000, -15.00000000000000533 ) ) ;
#350 = EDGE_CURVE ( 'NONE', #622, #60, #408, .T. ) ;
#351 = CIRCLE ( 'NONE', #373, 4.999999999999999112 ) ;
#352 = APPROVAL_STATUS ( 'not_yet_approved' ) ;
#353 = CARTESIAN_POINT ( 'NONE',  ( 19.99999999999999289, 28.00000000000000000, -14.99999999999996803 ) ) ;
#354 = PLANE ( 'NONE',  #339 ) ;
#355 = CYLINDRICAL_SURFACE ( 'NONE', #265, 1.000000000000000888 ) ;
#356 = AXIS2_PLACEMENT_3D ( 'NONE', #496, #319, #715 ) ;
#357 = EDGE_LOOP ( 'NONE', ( #285, #659, #313, #370 ) ) ;
#358 = CIRCLE ( 'NONE', #227, 1.000000000000000888 ) ;
#359 = VECTOR ( 'NONE', #446, 1000.000000000000000 ) ;
#360 = CARTESIAN_POINT ( 'NONE',  ( 1.836406796698340596E-15, 0.000000000000000000, -14.99539947335769341 ) ) ;
#361 = AXIS2_PLACEMENT_3D ( 'NONE', #542, #651, #140 ) ;
#362 = EDGE_CURVE ( 'NONE', #509, #244, #51, .T. ) ;
#363 = ORIENTED_EDGE ( 'NONE', *, *, #171, .T. ) ;
#364 = DIRECTION ( 'NONE',  ( -0.000000000000000000, 1.000000000000000000, -0.000000000000000000 ) ) ;
#365 = DIRECTION ( 'NONE',  ( 0.000000000000000000, -0.000000000000000000, 1.000000000000000000 ) ) ;
#366 = ORIENTED_EDGE ( 'NONE', *, *, #499, .F. ) ;
#367 = FACE_BOUND ( 'NONE', #708, .T. ) ;
#368 = CARTESIAN_POINT ( 'NONE',  ( -16.29514514643414813, 0.000000000000000000, 15.99999999999999645 ) ) ;
#369 = EDGE_CURVE ( 'NONE', #534, #608, #358, .T. ) ;
#370 = ORIENTED_EDGE ( 'NONE', *, *, #686, .T. ) ;
#371 = CARTESIAN_POINT ( 'NONE',  ( 15.70485485356585365, 0.000000000000000000, -17.00000000000000355 ) ) ;
#372 = FACE_OUTER_BOUND ( 'NONE', #378, .T. ) ;
#373 = AXIS2_PLACEMENT_3D ( 'NONE', #314, #144, #495 ) ;
#374 = EDGE_LOOP ( 'NONE', ( #215, #366, #46, #709 ) ) ;
#375 = APPROVAL_PERSON_ORGANIZATION ( #745, #191, #344 ) ;
#376 = DIRECTION ( 'NONE',  ( 0.000000000000000000, 1.000000000000000000, -0.000000000000000000 ) ) ;
#377 = FACE_OUTER_BOUND ( 'NONE', #374, .T. ) ;
#378 = EDGE_LOOP ( 'NONE', ( #226, #189, #648, #540 ) ) ;
#379 = LINE ( 'NONE', #718, #506 ) ;
#380 = CARTESIAN_POINT ( 'NONE',  ( -16.29514514643414813, 0.000000000000000000, -16.00000000000000355 ) ) ;
#381 = ORIENTED_EDGE ( 'NONE', *, *, #712, .F. ) ;
#382 = LINE ( 'NONE', #601, #553 ) ;
#383 = CARTESIAN_POINT ( 'NONE',  ( -14.99999999999996803, 28.00000000000000000, 19.99999999999999645 ) ) ;
#384 = CC_DESIGN_SECURITY_CLASSIFICATION ( #729, ( #584 ) ) ;
#385 =( GEOMETRIC_REPRESENTATION_CONTEXT ( 3 ) GLOBAL_UNCERTAINTY_ASSIGNED_CONTEXT ( ( #166 ) ) GLOBAL_UNIT_ASSIGNED_CONTEXT ( ( #230, #174, #502 ) ) REPRESENTATION_CONTEXT ( 'NONE', 'WORKASPACE' ) );
#386 = EDGE_LOOP ( 'NONE', ( #381, #254, #472, #17 ) ) ;
#387 = CARTESIAN_POINT ( 'NONE',  ( 0.000000000000000000, 0.000000000000000000, 0.000000000000000000 ) ) ;
#388 = FACE_OUTER_BOUND ( 'NONE', #135, .T. ) ;
#389 = ORIENTED_EDGE ( 'NONE', *, *, #308, .F. ) ;
#390 = EDGE_CURVE ( 'NONE', #444, #257, #172, .T. ) ;
#391 = LINE ( 'NONE', #161, #131 ) ;
#392 = DIRECTION ( 'NONE',  ( -0.000000000000000000, 1.000000000000000000, -0.000000000000000000 ) ) ;
#393 = VERTEX_POINT ( 'NONE', #221 ) ;
#394 = EDGE_CURVE ( 'NONE', #143, #393, #453, .T. ) ;
#395 = CARTESIAN_POINT ( 'NONE',  ( 1.836406796698340596E-15, 28.00000000000000000, -14.99539947335769341 ) ) ;
#396 = AXIS2_PLACEMENT_3D ( 'NONE', #264, #492, #670 ) ;
#397 = VECTOR ( 'NONE', #590, 1000.000000000000000 ) ;
#398 = ORIENTED_EDGE ( 'NONE', *, *, #326, .T. ) ;
#399 = CIRCLE ( 'NONE', #30, 1.000000000000000888 ) ;
#400 = COORDINATED_UNIVERSAL_TIME_OFFSET ( 5, 0, .BEHIND. ) ;
#401 = DIRECTION ( 'NONE',  ( 0.000000000000000000, 1.000000000000000000, 0.000000000000000000 ) ) ;
#402 = DIRECTION ( 'NONE',  ( 0.000000000000000000, 1.000000000000000000, 0.000000000000000000 ) ) ;
#403 = PERSON_AND_ORGANIZATION_ROLE ( 'design_supplier' ) ;
#404 = CARTESIAN_POINT ( 'NONE',  ( 15.70485485356585365, 0.000000000000000000, 15.99999999999999645 ) ) ;
#405 = FACE_BOUND ( 'NONE', #335, .T. ) ;
#406 = VERTEX_POINT ( 'NONE', #449 ) ;
#407 = DATE_AND_TIME ( #691, #324 ) ;
#408 = LINE ( 'NONE', #569, #680 ) ;
#409 = CC_DESIGN_PERSON_AND_ORGANIZATION_ASSIGNMENT ( #510, #738, ( #437 ) ) ;
#410 = CIRCLE ( 'NONE', #79, 1.000000000000000888 ) ;
#411 = FACE_OUTER_BOUND ( 'NONE', #619, .T. ) ;
#412 = CARTESIAN_POINT ( 'NONE',  ( -14.99999999999996803, 0.000000000000000000, 19.99999999999999645 ) ) ;
#413 = CC_DESIGN_DATE_AND_TIME_ASSIGNMENT ( #293, #2, ( #729 ) ) ;
#414 = CARTESIAN_POINT ( 'NONE',  ( -16.29514514643414813, 0.000000000000000000, -17.00000000000000355 ) ) ;
#415 = ORIENTED_EDGE ( 'NONE', *, *, #746, .F. ) ;
#416 = CIRCLE ( 'NONE', #80, 5.000000000000000888 ) ;
#417 = LINE ( 'NONE', #644, #551 ) ;
#418 = LOCAL_TIME ( 0, 57, 18.00000000000000000, #38 ) ;
#419 = FACE_BOUND ( 'NONE', #219, .T. ) ;
#420 = VERTEX_POINT ( 'NONE', #511 ) ;
#421 = DIRECTION ( 'NONE',  ( -0.000000000000000000, 1.000000000000000000, -0.000000000000000000 ) ) ;
#422 = DIRECTION ( 'NONE',  ( 0.000000000000000000, 0.000000000000000000, -1.000000000000000000 ) ) ;
#423 = EDGE_CURVE ( 'NONE', #444, #509, #703, .T. ) ;
#424 = VERTEX_POINT ( 'NONE', #168 ) ;
#425 = DIRECTION ( 'NONE',  ( 0.000000000000000000, 0.000000000000000000, 1.000000000000000000 ) ) ;
#426 = CYLINDRICAL_SURFACE ( 'NONE', #598, 4.999999999999999112 ) ;
#427 = ORIENTED_EDGE ( 'NONE', *, *, #504, .F. ) ;
#428 = CARTESIAN_POINT ( 'NONE',  ( 15.70485485356585365, 0.000000000000000000, -15.00000000000000355 ) ) ;
#429 = CIRCLE ( 'NONE', #186, 1.000000000000000888 ) ;
#430 = LINE ( 'NONE', #552, #128 ) ;
#431 = ORIENTED_EDGE ( 'NONE', *, *, #284, .F. ) ;
#432 = EDGE_CURVE ( 'NONE', #420, #603, #130, .T. ) ;
#433 = DIRECTION ( 'NONE',  ( 1.000000000000000000, 0.000000000000000000, 0.000000000000000000 ) ) ;
#434 = DIRECTION ( 'NONE',  ( 0.000000000000000000, 0.000000000000000000, 1.000000000000000000 ) ) ;
#435 = EDGE_LOOP ( 'NONE', ( #561, #431, #460, #72 ) ) ;
#436 = CARTESIAN_POINT ( 'NONE',  ( -14.99999999999997158, 0.000000000000000000, -20.00000000000000355 ) ) ;
#437 = PRODUCT_DEFINITION ( 'UNKNOWN', '', #584, #451 ) ;
#438 = DIRECTION ( 'NONE',  ( 0.000000000000000000, 1.000000000000000000, 0.000000000000000000 ) ) ;
#439 = ORIENTED_EDGE ( 'NONE', *, *, #294, .T. ) ;
#440 = DIRECTION ( 'NONE',  ( 3.469446951953623064E-16, 0.000000000000000000, 1.000000000000000000 ) ) ;
#441 = CARTESIAN_POINT ( 'NONE',  ( 15.70485485356585365, 0.000000000000000000, 15.99999999999999645 ) ) ;
#442 = EDGE_CURVE ( 'NONE', #534, #713, #676, .T. ) ;
#443 = AXIS2_PLACEMENT_3D ( 'NONE', #296, #364, #297 ) ;
#444 = VERTEX_POINT ( 'NONE', #57 ) ;
#445 = APPROVAL_ROLE ( '' ) ;
#446 = DIRECTION ( 'NONE',  ( -3.469446951953622570E-16, -0.000000000000000000, -1.000000000000000000 ) ) ;
#447 = EDGE_CURVE ( 'NONE', #9, #564, #566, .T. ) ;
#448 = EDGE_LOOP ( 'NONE', ( #693, #40, #666, #626 ) ) ;
#449 = CARTESIAN_POINT ( 'NONE',  ( -16.29514514643414813, 28.00000000000000000, -15.00000000000000355 ) ) ;
#450 = VERTEX_POINT ( 'NONE', #635 ) ;
#451 = DESIGN_CONTEXT ( 'detailed design', #273, 'design' ) ;
#452 = CARTESIAN_POINT ( 'NONE',  ( 15.00000000000000355, 28.00000000000000000, 14.99999999999999822 ) ) ;
#453 = CIRCLE ( 'NONE', #643, 1.000000000000000888 ) ;
#454 = CIRCLE ( 'NONE', #682, 14.99539947335769341 ) ;
#455 = VERTEX_POINT ( 'NONE', #594 ) ;
#456 = AXIS2_PLACEMENT_3D ( 'NONE', #194, #663, #425 ) ;
#457 = DATE_AND_TIME ( #565, #418 ) ;
#458 = DIRECTION ( 'NONE',  ( -0.000000000000000000, 1.000000000000000000, -0.000000000000000000 ) ) ;
#459 = CARTESIAN_POINT ( 'NONE',  ( 20.00000000000000355, 0.000000000000000000, 14.99999999999996092 ) ) ;
#460 = ORIENTED_EDGE ( 'NONE', *, *, #649, .F. ) ;
#461 = CYLINDRICAL_SURFACE ( 'NONE', #31, 1.000000000000000888 ) ;
#462 = ADVANCED_FACE ( 'NONE', ( #14 ), #524, .F. ) ;
#463 = DIRECTION ( 'NONE',  ( 0.000000000000000000, 1.000000000000000000, 0.000000000000000000 ) ) ;
#464 = COORDINATED_UNIVERSAL_TIME_OFFSET ( 5, 0, .BEHIND. ) ;
#465 = DIRECTION ( 'NONE',  ( 0.000000000000000000, 1.000000000000000000, 0.000000000000000000 ) ) ;
#466 = EDGE_CURVE ( 'NONE', #450, #304, #586, .T. ) ;
#467 = AXIS2_PLACEMENT_3D ( 'NONE', #661, #727, #212 ) ;
#468 = AXIS2_PLACEMENT_3D ( 'NONE', #125, #245, #695 ) ;
#469 = DIRECTION ( 'NONE',  ( 0.000000000000000000, -0.000000000000000000, 1.000000000000000000 ) ) ;
#470 = ADVANCED_FACE ( 'NONE', ( #251 ), #355, .F. ) ;
#471 = DIRECTION ( 'NONE',  ( 0.000000000000000000, 1.000000000000000000, 0.000000000000000000 ) ) ;
#472 = ORIENTED_EDGE ( 'NONE', *, *, #616, .T. ) ;
#473 = DIRECTION ( 'NONE',  ( -1.000000000000000000, -0.000000000000000000, -0.000000000000000000 ) ) ;
#474 = DIRECTION ( 'NONE',  ( 0.000000000000000000, 0.000000000000000000, -1.000000000000000000 ) ) ;
#475 = ORIENTED_EDGE ( 'NONE', *, *, #362, .T. ) ;
#476 = AXIS2_PLACEMENT_3D ( 'NONE', #190, #706, #647 ) ;
#477 = DIRECTION ( 'NONE',  ( -0.000000000000000000, 1.000000000000000000, -0.000000000000000000 ) ) ;
#478 = EDGE_CURVE ( 'NONE', #37, #512, #522, .T. ) ;
#479 = FACE_OUTER_BOUND ( 'NONE', #332, .T. ) ;
#480 = EDGE_LOOP ( 'NONE', ( #520, #210, #184, #554 ) ) ;
#481 = FACE_OUTER_BOUND ( 'NONE', #74, .T. ) ;
#482 = ORIENTED_EDGE ( 'NONE', *, *, #559, .F. ) ;
#483 = ORIENTED_EDGE ( 'NONE', *, *, #555, .F. ) ;
#484 = CARTESIAN_POINT ( 'NONE',  ( -20.00000000000000711, 0.000000000000000000, -14.99999999999996803 ) ) ;
#485 = DIRECTION ( 'NONE',  ( -0.000000000000000000, -1.000000000000000000, -0.000000000000000000 ) ) ;
#486 = EDGE_CURVE ( 'NONE', #512, #49, #656, .T. ) ;
#487 = ORIENTED_EDGE ( 'NONE', *, *, #678, .T. ) ;
#488 = AXIS2_PLACEMENT_3D ( 'NONE', #629, #346, #474 ) ;
#489 = AXIS2_PLACEMENT_3D ( 'NONE', #62, #463, #232 ) ;
#490 = CARTESIAN_POINT ( 'NONE',  ( -15.00000000000000533, 28.00000000000000000, 14.99999999999999645 ) ) ;
#491 = AXIS2_PLACEMENT_3D ( 'NONE', #404, #342, #113 ) ;
#492 = DIRECTION ( 'NONE',  ( -0.000000000000000000, 1.000000000000000000, -0.000000000000000000 ) ) ;
#493 = APPROVAL_PERSON_ORGANIZATION ( #623, #124, #445 ) ;
#494 = ORIENTED_EDGE ( 'NONE', *, *, #260, .T. ) ;
#495 = DIRECTION ( 'NONE',  ( 0.000000000000000000, 0.000000000000000000, 1.000000000000000000 ) ) ;
#496 = CARTESIAN_POINT ( 'NONE',  ( -15.00000000000000533, 28.00000000000000000, 14.99999999999999645 ) ) ;
#497 = ORIENTED_EDGE ( 'NONE', *, *, #640, .F. ) ;
#498 = FACE_OUTER_BOUND ( 'NONE', #29, .T. ) ;
#499 = EDGE_CURVE ( 'NONE', #37, #343, #154, .T. ) ;
#500 = CARTESIAN_POINT ( 'NONE',  ( -16.29514514643414813, 28.00000000000000000, -16.00000000000000355 ) ) ;
#501 = ORIENTED_EDGE ( 'NONE', *, *, #525, .F. ) ;
#502 =( NAMED_UNIT ( * ) SI_UNIT ( $, .STERADIAN. ) SOLID_ANGLE_UNIT ( ) );
#503 = CIRCLE ( 'NONE', #467, 14.99539947335769341 ) ;
#504 = EDGE_CURVE ( 'NONE', #450, #674, #454, .T. ) ;
#505 = DIRECTION ( 'NONE',  ( 0.000000000000000000, 0.000000000000000000, 1.000000000000000000 ) ) ;
#506 = VECTOR ( 'NONE', #545, 1000.000000000000000 ) ;
#507 = ORIENTED_EDGE ( 'NONE', *, *, #640, .T. ) ;
#508 = DIRECTION ( 'NONE',  ( 0.000000000000000000, 0.000000000000000000, 1.000000000000000000 ) ) ;
#509 = VERTEX_POINT ( 'NONE', #529 ) ;
#510 = PERSON_AND_ORGANIZATION ( #607, #518 ) ;
#511 = CARTESIAN_POINT ( 'NONE',  ( 15.70485485356585365, 0.000000000000000000, 16.99999999999999645 ) ) ;
#512 = VERTEX_POINT ( 'NONE', #136 ) ;
#513 = ADVANCED_FACE ( 'NONE', ( #65 ), #582, .F. ) ;
#514 = APPROVAL_DATE_TIME ( #286, #191 ) ;
#515 = CARTESIAN_POINT ( 'NONE',  ( -16.29514514643414813, 0.000000000000000000, -15.00000000000000355 ) ) ;
#516 = AXIS2_PLACEMENT_3D ( 'NONE', #39, #658, #145 ) ;
#517 = DIRECTION ( 'NONE',  ( 0.000000000000000000, 0.000000000000000000, 1.000000000000000000 ) ) ;
#518 = ORGANIZATION ( 'UNSPECIFIED', 'UNSPECIFIED', '' ) ;
#519 = DIRECTION ( 'NONE',  ( 0.000000000000000000, 0.000000000000000000, 1.000000000000000000 ) ) ;
#520 = ORIENTED_EDGE ( 'NONE', *, *, #442, .F. ) ;
#521 = PERSON_AND_ORGANIZATION ( #607, #518 ) ;
#522 = LINE ( 'NONE', #239, #636 ) ;
#523 = ADVANCED_FACE ( 'NONE', ( #532, #692, #178, #123, #367, #411 ), #354, .T. ) ;
#524 = CYLINDRICAL_SURFACE ( 'NONE', #16, 1.000000000000000888 ) ;
#525 = EDGE_CURVE ( 'NONE', #424, #7, #8, .T. ) ;
#526 = CLOSED_SHELL ( 'NONE', ( #671, #101, #165, #732, #462, #247, #699, #176, #228, #59, #690, #66, #341, #523, #86, #115, #315, #470, #223, #513 ) ) ;
#527 = VECTOR ( 'NONE', #433, 1000.000000000000000 ) ;
#528 = ORIENTED_EDGE ( 'NONE', *, *, #240, .T. ) ;
#529 = CARTESIAN_POINT ( 'NONE',  ( 20.00000000000000355, 28.00000000000000000, 14.99999999999996092 ) ) ;
#530 = FACE_BOUND ( 'NONE', #91, .T. ) ;
#531 = PRODUCT ( 'Fan', 'Fan', '', ( #98 ) ) ;
#532 = FACE_BOUND ( 'NONE', #737, .T. ) ;
#533 = CYLINDRICAL_SURFACE ( 'NONE', #200, 5.000000000000000888 ) ;
#534 = VERTEX_POINT ( 'NONE', #414 ) ;
#535 = CARTESIAN_POINT ( 'NONE',  ( 0.000000000000000000, 0.000000000000000000, 0.000000000000000000 ) ) ;
#536 = CARTESIAN_POINT ( 'NONE',  ( -16.29514514643414813, 0.000000000000000000, 15.99999999999999645 ) ) ;
#537 = VERTEX_POINT ( 'NONE', #412 ) ;
#538 = CIRCLE ( 'NONE', #216, 1.000000000000000888 ) ;
#539 = PLANE ( 'NONE',  #298 ) ;
#540 = ORIENTED_EDGE ( 'NONE', *, *, #294, .F. ) ;
#541 = EDGE_LOOP ( 'NONE', ( #193, #415, #21, #24 ) ) ;
#542 = CARTESIAN_POINT ( 'NONE',  ( 15.70485485356585365, 0.000000000000000000, -16.00000000000000355 ) ) ;
#543 = CARTESIAN_POINT ( 'NONE',  ( 14.99999999999996803, 0.000000000000000000, 19.99999999999999645 ) ) ;
#544 = VERTEX_POINT ( 'NONE', #73 ) ;
#545 = DIRECTION ( 'NONE',  ( -0.000000000000000000, -1.000000000000000000, -0.000000000000000000 ) ) ;
#546 = DIRECTION ( 'NONE',  ( 0.000000000000000000, 0.000000000000000000, 1.000000000000000000 ) ) ;
#547 = CC_DESIGN_PERSON_AND_ORGANIZATION_ASSIGNMENT ( #170, #403, ( #584 ) ) ;
#548 = ORIENTED_EDGE ( 'NONE', *, *, #736, .F. ) ;
#549 = VECTOR ( 'NONE', #685, 1000.000000000000000 ) ;
#550 = DIRECTION ( 'NONE',  ( 0.000000000000000000, 0.000000000000000000, 1.000000000000000000 ) ) ;
#551 = VECTOR ( 'NONE', #198, 1000.000000000000000 ) ;
#552 = CARTESIAN_POINT ( 'NONE',  ( 15.70485485356585365, 0.000000000000000000, -15.00000000000000355 ) ) ;
#553 = VECTOR ( 'NONE', #82, 1000.000000000000000 ) ;
#554 = ORIENTED_EDGE ( 'NONE', *, *, #179, .T. ) ;
#555 = EDGE_CURVE ( 'NONE', #674, #450, #106, .T. ) ;
#556 = DIRECTION ( 'NONE',  ( 0.000000000000000000, 0.000000000000000000, -1.000000000000000000 ) ) ;
#557 = CARTESIAN_POINT ( 'NONE',  ( 14.99999999999995737, 0.000000000000000000, -20.00000000000000355 ) ) ;
#558 = ORIENTED_EDGE ( 'NONE', *, *, #707, .F. ) ;
#559 = EDGE_CURVE ( 'NONE', #327, #537, #717, .T. ) ;
#560 = CYLINDRICAL_SURFACE ( 'NONE', #679, 1.000000000000000888 ) ;
#561 = ORIENTED_EDGE ( 'NONE', *, *, #559, .T. ) ;
#562 = CARTESIAN_POINT ( 'NONE',  ( 15.70485485356585365, 0.000000000000000000, -16.00000000000000355 ) ) ;
#563 = AXIS2_PLACEMENT_3D ( 'NONE', #562, #392, #519 ) ;
#564 = VERTEX_POINT ( 'NONE', #639 ) ;
#565 = CALENDAR_DATE ( 2026, 9, 1 ) ;
#566 = LINE ( 'NONE', #292, #359 ) ;
#567 = ORIENTED_EDGE ( 'NONE', *, *, #478, .F. ) ;
#568 = COORDINATED_UNIVERSAL_TIME_OFFSET ( 5, 0, .BEHIND. ) ;
#569 = CARTESIAN_POINT ( 'NONE',  ( 15.70485485356585365, 0.000000000000000000, -17.00000000000000355 ) ) ;
#570 = CC_DESIGN_PERSON_AND_ORGANIZATION_ASSIGNMENT ( #741, #235, ( #584 ) ) ;
#571 = LINE ( 'NONE', #744, #55 ) ;
#572 = DIRECTION ( 'NONE',  ( -0.000000000000000000, 1.000000000000000000, -0.000000000000000000 ) ) ;
#573 = DIRECTION ( 'NONE',  ( -0.000000000000000000, 1.000000000000000000, -0.000000000000000000 ) ) ;
#574 = AXIS2_PLACEMENT_3D ( 'NONE', #536, #99, #723 ) ;
#575 = DIRECTION ( 'NONE',  ( 0.000000000000000000, 1.000000000000000000, 0.000000000000000000 ) ) ;
#576 = EDGE_CURVE ( 'NONE', #7, #327, #700, .T. ) ;
#577 = ORIENTED_EDGE ( 'NONE', *, *, #664, .F. ) ;
#578 = PERSON_AND_ORGANIZATION_ROLE ( 'classification_officer' ) ;
#579 = CARTESIAN_POINT ( 'NONE',  ( -16.29514514643414813, 0.000000000000000000, 14.99999999999999645 ) ) ;
#580 = EDGE_CURVE ( 'NONE', #261, #698, #10, .T. ) ;
#581 = CARTESIAN_POINT ( 'NONE',  ( -15.00000000000000888, 28.00000000000000000, -15.00000000000000533 ) ) ;
#582 = CYLINDRICAL_SURFACE ( 'NONE', #443, 14.99539947335769341 ) ;
#583 = AXIS2_PLACEMENT_3D ( 'NONE', #287, #401, #110 ) ;
#584 = PRODUCT_DEFINITION_FORMATION_WITH_SPECIFIED_SOURCE ( 'ANY', '', #531, .NOT_KNOWN. ) ;
#585 = ORIENTED_EDGE ( 'NONE', *, *, #394, .F. ) ;
#586 = LINE ( 'NONE', #360, #397 ) ;
#587 = CARTESIAN_POINT ( 'NONE',  ( -16.29514514643414813, 28.00000000000000000, 14.99999999999999645 ) ) ;
#588 = EDGE_CURVE ( 'NONE', #71, #132, #417, .T. ) ;
#589 = ORIENTED_EDGE ( 'NONE', *, *, #624, .F. ) ;
#590 = DIRECTION ( 'NONE',  ( -0.000000000000000000, 1.000000000000000000, -0.000000000000000000 ) ) ;
#591 = CYLINDRICAL_SURFACE ( 'NONE', #574, 1.000000000000000888 ) ;
#592 = EDGE_CURVE ( 'NONE', #698, #222, #351, .T. ) ;
#593 = ORIENTED_EDGE ( 'NONE', *, *, #196, .T. ) ;
#594 = CARTESIAN_POINT ( 'NONE',  ( -14.99999999999996803, 28.00000000000000000, 19.99999999999999645 ) ) ;
#595 = CYLINDRICAL_SURFACE ( 'NONE', #488, 4.999999999999999112 ) ;
#596 = CIRCLE ( 'NONE', #118, 1.000000000000000888 ) ;
#597 = VERTEX_POINT ( 'NONE', #428 ) ;
#598 = AXIS2_PLACEMENT_3D ( 'NONE', #269, #316, #711 ) ;
#599 = EDGE_CURVE ( 'NONE', #455, #444, #35, .T. ) ;
#600 = VECTOR ( 'NONE', #207, 1000.000000000000000 ) ;
#601 = CARTESIAN_POINT ( 'NONE',  ( 0.000000000000000000, 0.000000000000000000, 14.99539947335769341 ) ) ;
#602 = DIRECTION ( 'NONE',  ( -0.000000000000000000, 1.000000000000000000, -0.000000000000000000 ) ) ;
#603 = VERTEX_POINT ( 'NONE', #613 ) ;
#604 = CARTESIAN_POINT ( 'NONE',  ( -16.29514514643414813, 28.00000000000000000, 15.99999999999999645 ) ) ;
#605 = CC_DESIGN_DATE_AND_TIME_ASSIGNMENT ( #109, #684, ( #437 ) ) ;
#606 = LINE ( 'NONE', #83, #655 ) ;
#607 = PERSON ( 'UNSPECIFIED', 'UNSPECIFIED', 'UNSPECIFIED', ('UNSPECIFIED'), ('UNSPECIFIED'), ('UNSPECIFIED') ) ;
#608 = VERTEX_POINT ( 'NONE', #722 ) ;
#609 = CARTESIAN_POINT ( 'NONE',  ( 0.000000000000000000, 0.000000000000000000, 14.99539947335769341 ) ) ;
#610 = CYLINDRICAL_SURFACE ( 'NONE', #396, 1.000000000000000888 ) ;
#611 = ORIENTED_EDGE ( 'NONE', *, *, #746, .T. ) ;
#612 = CIRCLE ( 'NONE', #489, 14.99539947335769341 ) ;
#613 = CARTESIAN_POINT ( 'NONE',  ( 15.70485485356585365, 0.000000000000000000, 14.99999999999999645 ) ) ;
#614 = CARTESIAN_POINT ( 'NONE',  ( -14.99999999999996803, 28.00000000000000000, 19.99999999999999645 ) ) ;
#615 = AXIS2_PLACEMENT_3D ( 'NONE', #22, #258, #158 ) ;
#616 = EDGE_CURVE ( 'NONE', #60, #544, #399, .T. ) ;
#617 = ORIENTED_EDGE ( 'NONE', *, *, #336, .T. ) ;
#618 = CARTESIAN_POINT ( 'NONE',  ( -20.00000000000000711, 0.000000000000000000, -14.99999999999996803 ) ) ;
#619 = EDGE_LOOP ( 'NONE', ( #654, #672, #77, #646, #234, #475, #307, #75 ) ) ;
#620 = PERSON_AND_ORGANIZATION_ROLE ( 'design_owner' ) ;
#621 = DIRECTION ( 'NONE',  ( 0.000000000000000000, 1.000000000000000000, 0.000000000000000000 ) ) ;
#622 = VERTEX_POINT ( 'NONE', #371 ) ;
#623 = PERSON_AND_ORGANIZATION ( #607, #518 ) ;
#624 = EDGE_CURVE ( 'NONE', #244, #71, #121, .T. ) ;
#625 = CYLINDRICAL_SURFACE ( 'NONE', #563, 1.000000000000000888 ) ;
#626 = ORIENTED_EDGE ( 'NONE', *, *, #122, .T. ) ;
#627 = EDGE_CURVE ( 'NONE', #49, #512, #538, .T. ) ;
#628 = FACE_OUTER_BOUND ( 'NONE', #448, .T. ) ;
#629 = CARTESIAN_POINT ( 'NONE',  ( 15.00000000000000355, 28.00000000000000000, 14.99999999999999822 ) ) ;
#630 = SECURITY_CLASSIFICATION_LEVEL ( 'unclassified' ) ;
#631 = PLANE ( 'NONE',  #104 ) ;
#632 = FACE_BOUND ( 'NONE', #320, .T. ) ;
#633 = ORIENTED_EDGE ( 'NONE', *, *, #326, .F. ) ;
#634 = APPROVAL_DATE_TIME ( #407, #138 ) ;
#635 = CARTESIAN_POINT ( 'NONE',  ( 1.836406796698340596E-15, 0.000000000000000000, -14.99539947335769341 ) ) ;
#636 = VECTOR ( 'NONE', #70, 1000.000000000000000 ) ;
#637 = CARTESIAN_POINT ( 'NONE',  ( 0.000000000000000000, 0.000000000000000000, 0.000000000000000000 ) ) ;
#638 = DIRECTION ( 'NONE',  ( 1.156482317317874190E-16, 0.000000000000000000, 1.000000000000000000 ) ) ;
#639 = CARTESIAN_POINT ( 'NONE',  ( 19.99999999999999289, 0.000000000000000000, -14.99999999999996803 ) ) ;
#640 = EDGE_CURVE ( 'NONE', #222, #327, #85, .T. ) ;
#641 = LINE ( 'NONE', #183, #702 ) ;
#642 = LOCAL_TIME ( 0, 57, 18.00000000000000000, #117 ) ;
#643 = AXIS2_PLACEMENT_3D ( 'NONE', #673, #348, #337 ) ;
#644 = CARTESIAN_POINT ( 'NONE',  ( -14.99999999999997158, 28.00000000000000000, -20.00000000000000355 ) ) ;
#645 = ORIENTED_EDGE ( 'NONE', *, *, #576, .F. ) ;
#646 = ORIENTED_EDGE ( 'NONE', *, *, #599, .T. ) ;
#647 = DIRECTION ( 'NONE',  ( 0.000000000000000000, 0.000000000000000000, 1.000000000000000000 ) ) ;
#648 = ORIENTED_EDGE ( 'NONE', *, *, #394, .T. ) ;
#649 = EDGE_CURVE ( 'NONE', #7, #455, #416, .T. ) ;
#650 = EDGE_LOOP ( 'NONE', ( #728, #483, #306, #593 ) ) ;
#651 = DIRECTION ( 'NONE',  ( 0.000000000000000000, 1.000000000000000000, 0.000000000000000000 ) ) ;
#652 = LINE ( 'NONE', #383, #42 ) ;
#653 = CC_DESIGN_APPROVAL ( #191, ( #584 ) ) ;
#654 = ORIENTED_EDGE ( 'NONE', *, *, #707, .T. ) ;
#655 = VECTOR ( 'NONE', #458, 1000.000000000000000 ) ;
#656 = CIRCLE ( 'NONE', #476, 1.000000000000000888 ) ;
#657 = CARTESIAN_POINT ( 'NONE',  ( 14.99999999999999467, 28.00000000000000000, -15.00000000000000355 ) ) ;
#658 = DIRECTION ( 'NONE',  ( 0.000000000000000000, 1.000000000000000000, 0.000000000000000000 ) ) ;
#659 = ORIENTED_EDGE ( 'NONE', *, *, #13, .F. ) ;
#660 = LINE ( 'NONE', #94, #600 ) ;
#661 = CARTESIAN_POINT ( 'NONE',  ( 0.000000000000000000, 28.00000000000000000, 0.000000000000000000 ) ) ;
#662 = ORIENTED_EDGE ( 'NONE', *, *, #580, .F. ) ;
#663 = DIRECTION ( 'NONE',  ( 0.000000000000000000, 1.000000000000000000, 0.000000000000000000 ) ) ;
#664 = EDGE_CURVE ( 'NONE', #509, #9, #379, .T. ) ;
#665 = PLANE ( 'NONE',  #56 ) ;
#666 = ORIENTED_EDGE ( 'NONE', *, *, #237, .T. ) ;
#667 = AXIS2_PLACEMENT_3D ( 'NONE', #380, #602, #334 ) ;
#668 = PLANE ( 'NONE',  #291 ) ;
#669 = VECTOR ( 'NONE', #127, 1000.000000000000000 ) ;
#670 = DIRECTION ( 'NONE',  ( 0.000000000000000000, 0.000000000000000000, 1.000000000000000000 ) ) ;
#671 = ADVANCED_FACE ( 'NONE', ( #498 ), #25, .F. ) ;
#672 = ORIENTED_EDGE ( 'NONE', *, *, #525, .T. ) ;
#673 = CARTESIAN_POINT ( 'NONE',  ( 15.70485485356585365, 28.00000000000000000, 15.99999999999999645 ) ) ;
#674 = VERTEX_POINT ( 'NONE', #609 ) ;
#675 = DIRECTION ( 'NONE',  ( 1.000000000000000000, 0.000000000000000000, 0.000000000000000000 ) ) ;
#676 = LINE ( 'NONE', #175, #325 ) ;
#677 = ORIENTED_EDGE ( 'NONE', *, *, #260, .F. ) ;
#678 = EDGE_CURVE ( 'NONE', #537, #257, #660, .T. ) ;
#679 = AXIS2_PLACEMENT_3D ( 'NONE', #441, #195, #149 ) ;
#680 = VECTOR ( 'NONE', #735, 1000.000000000000000 ) ;
#681 = LINE ( 'NONE', #515, #310 ) ;
#682 = AXIS2_PLACEMENT_3D ( 'NONE', #637, #465, #4 ) ;
#683 = EDGE_LOOP ( 'NONE', ( #146, #160, #589, #611 ) ) ;
#684 = DATE_TIME_ROLE ( 'creation_date' ) ;
#685 = DIRECTION ( 'NONE',  ( -3.469446951953622570E-16, -0.000000000000000000, -1.000000000000000000 ) ) ;
#686 = EDGE_CURVE ( 'NONE', #71, #261, #262, .T. ) ;
#687 = CARTESIAN_POINT ( 'NONE',  ( 15.70485485356585365, 28.00000000000000000, -17.00000000000000355 ) ) ;
#688 = APPLICATION_PROTOCOL_DEFINITION ( 'international standard', 'config_control_design', 1994, #697 ) ;
#689 = CARTESIAN_POINT ( 'NONE',  ( 14.99999999999996803, 28.00000000000000000, 19.99999999999999645 ) ) ;
#690 = ADVANCED_FACE ( 'NONE', ( #204 ), #539, .F. ) ;
#691 = CALENDAR_DATE ( 2026, 9, 1 ) ;
#692 = FACE_BOUND ( 'NONE', #733, .T. ) ;
#693 = ORIENTED_EDGE ( 'NONE', *, *, #350, .F. ) ;
#694 = DIRECTION ( 'NONE',  ( 0.000000000000000000, 0.000000000000000000, 1.000000000000000000 ) ) ;
#695 = DIRECTION ( 'NONE',  ( 0.000000000000000000, 0.000000000000000000, 1.000000000000000000 ) ) ;
#696 = CARTESIAN_POINT ( 'NONE',  ( 14.99999999999999467, 28.00000000000000000, -15.00000000000000355 ) ) ;
#697 = APPLICATION_CONTEXT ( 'configuration controlled 3d designs of mechanical parts and assemblies' ) ;
#698 = VERTEX_POINT ( 'NONE', #436 ) ;
#699 = ADVANCED_FACE ( 'NONE', ( #481 ), #668, .F. ) ;
#700 = LINE ( 'NONE', #182, #669 ) ;
#701 = CARTESIAN_POINT ( 'NONE',  ( -16.29514514643414813, 0.000000000000000000, 16.99999999999999645 ) ) ;
#702 = VECTOR ( 'NONE', #192, 1000.000000000000000 ) ;
#703 = CIRCLE ( 'NONE', #312, 4.999999999999999112 ) ;
#704 = CIRCLE ( 'NONE', #361, 1.000000000000000888 ) ;
#705 = ORIENTED_EDGE ( 'NONE', *, *, #555, .T. ) ;
#706 = DIRECTION ( 'NONE',  ( 0.000000000000000000, 1.000000000000000000, 0.000000000000000000 ) ) ;
#707 = EDGE_CURVE ( 'NONE', #132, #424, #68, .T. ) ;
#708 = EDGE_LOOP ( 'NONE', ( #53, #633 ) ) ;
#709 = ORIENTED_EDGE ( 'NONE', *, *, #486, .T. ) ;
#710 = DIRECTION ( 'NONE',  ( 0.000000000000000000, 1.000000000000000000, 0.000000000000000000 ) ) ;
#711 = DIRECTION ( 'NONE',  ( 0.000000000000000000, 0.000000000000000000, -1.000000000000000000 ) ) ;
#712 = EDGE_CURVE ( 'NONE', #622, #597, #704, .T. ) ;
#713 = VERTEX_POINT ( 'NONE', #151 ) ;
#714 = CARTESIAN_POINT ( 'NONE',  ( -20.00000000000000711, 28.00000000000000000, -14.99999999999996803 ) ) ;
#715 = DIRECTION ( 'NONE',  ( 0.000000000000000000, 0.000000000000000000, -1.000000000000000000 ) ) ;
#716 = EDGE_LOOP ( 'NONE', ( #34, #585 ) ) ;
#717 = CIRCLE ( 'NONE', #468, 5.000000000000000888 ) ;
#718 = CARTESIAN_POINT ( 'NONE',  ( 20.00000000000000355, 28.00000000000000000, 14.99999999999996092 ) ) ;
#719 = CARTESIAN_POINT ( 'NONE',  ( 15.70485485356585365, 28.00000000000000000, -16.00000000000000355 ) ) ;
#720 = ORIENTED_EDGE ( 'NONE', *, *, #447, .F. ) ;
#721 = EDGE_CURVE ( 'NONE', #674, #20, #382, .T. ) ;
#722 = CARTESIAN_POINT ( 'NONE',  ( -16.29514514643414813, 0.000000000000000000, -15.00000000000000355 ) ) ;
#723 = DIRECTION ( 'NONE',  ( 0.000000000000000000, 0.000000000000000000, 1.000000000000000000 ) ) ;
#724 = ORIENTED_EDGE ( 'NONE', *, *, #369, .T. ) ;
#725 = DIRECTION ( 'NONE',  ( -0.000000000000000000, 1.000000000000000000, -0.000000000000000000 ) ) ;
#726 = EDGE_CURVE ( 'NONE', #597, #622, #266, .T. ) ;
#727 = DIRECTION ( 'NONE',  ( 0.000000000000000000, 1.000000000000000000, 0.000000000000000000 ) ) ;
#728 = ORIENTED_EDGE ( 'NONE', *, *, #466, .F. ) ;
#729 = SECURITY_CLASSIFICATION ( '', '', #630 ) ;
#730 = CALENDAR_DATE ( 2026, 9, 1 ) ;
#731 = DIRECTION ( 'NONE',  ( 1.000000000000000000, 0.000000000000000000, -0.000000000000000000 ) ) ;
#732 = ADVANCED_FACE ( 'NONE', ( #734 ), #461, .F. ) ;
#733 = EDGE_LOOP ( 'NONE', ( #338, #163 ) ) ;
#734 = FACE_OUTER_BOUND ( 'NONE', #386, .T. ) ;
#735 = DIRECTION ( 'NONE',  ( -0.000000000000000000, 1.000000000000000000, -0.000000000000000000 ) ) ;
#736 = EDGE_CURVE ( 'NONE', #603, #143, #275, .T. ) ;
#737 = EDGE_LOOP ( 'NONE', ( #267, #389 ) ) ;
#738 = PERSON_AND_ORGANIZATION_ROLE ( 'creator' ) ;
#739 = DIRECTION ( 'NONE',  ( 0.000000000000000000, 0.000000000000000000, -1.000000000000000000 ) ) ;
#740 = ORIENTED_EDGE ( 'NONE', *, *, #13, .T. ) ;
#741 = PERSON_AND_ORGANIZATION ( #607, #518 ) ;
#742 = DIRECTION ( 'NONE',  ( -0.000000000000000000, 1.000000000000000000, -0.000000000000000000 ) ) ;
#743 = AXIS2_PLACEMENT_3D ( 'NONE', #535, #471, #133 ) ;
#744 = CARTESIAN_POINT ( 'NONE',  ( -16.29514514643414813, 0.000000000000000000, 14.99999999999999645 ) ) ;
#745 = PERSON_AND_ORGANIZATION ( #607, #518 ) ;
#746 = EDGE_CURVE ( 'NONE', #244, #564, #391, .T. ) ;
#747 = DIRECTION ( 'NONE',  ( 0.000000000000000000, 1.000000000000000000, 0.000000000000000000 ) ) ;
ENDSEC;
END-ISO-10303-21;
