ISO-10303-21;
HEADER;
FILE_DESCRIPTION (( 'STEP AP203' ),
    '1' );
FILE_NAME ('Main Assembly.STEP',
    '2026-01-09T05:57:21',
    ( '' ),
    ( '' ),
    'SwSTEP 2.0',
    'SolidWorks 2026',
    '' );
FILE_SCHEMA (( 'CONFIG_CONTROL_DESIGN' ));
ENDSEC;

DATA;
#1 =( NAMED_UNIT ( * ) SI_UNIT ( $, .STERADIAN. ) SOLID_ANGLE_UNIT ( ) );
#2 = PROPERTY_DEFINITION_REPRESENTATION ( #715, #719 ) ;
#3 = COORDINATED_UNIVERSAL_TIME_OFFSET ( 5, 0, .BEHIND. ) ;
#4 = PROPERTY_DEFINITION ('external definition','', #434 ) ;
#5 =( NAMED_UNIT ( * ) SI_UNIT ( $, .STERADIAN. ) SOLID_ANGLE_UNIT ( ) );
#6 = COORDINATED_UNIVERSAL_TIME_OFFSET ( 5, 0, .BEHIND. ) ;
#7 = CC_DESIGN_APPROVAL ( #904, ( #400 ) ) ;
#8 = COORDINATED_UNIVERSAL_TIME_OFFSET ( 5, 0, .BEHIND. ) ;
#9 = DOCUMENT_TYPE ( 'geometry' ) ;
#10 = DATE_AND_TIME ( #740, #851 ) ;
#11 = APPROVAL_PERSON_ORGANIZATION ( #638, #793, #771 ) ;
#12 = LOCAL_TIME ( 0, 57, 21.00000000000000000, #823 ) ;
#13 = CALENDAR_DATE ( 2026, 9, 1 ) ;
#14 = PERSON_AND_ORGANIZATION ( #18446744073709551615, #18446744073709551615 ) ;
#15 = CC_DESIGN_DATE_AND_TIME_ASSIGNMENT ( #573, #734, ( #273 ) ) ;
#16 = CARTESIAN_POINT ( 'NONE',  ( 662.3717920314171579, 944.0368841466350887, 1313.509989206542741 ) ) ;
#17 = CALENDAR_DATE ( 2026, 9, 1 ) ;
#18 = PERSON_AND_ORGANIZATION_ROLE ( 'creator' ) ;
#19 = ORGANIZATION ( 'NAUO-ORG13', 'UNSPECIFIED', 'UNSPECIFIED' ) ;
#20 = DATE_AND_TIME ( #531, #40 ) ;
#21 = PRODUCT_RELATED_PRODUCT_CATEGORY ( 'detail', '', ( #71 ) ) ;
#22 = CALENDAR_DATE ( 2026, 9, 1 ) ;
#23 = APPLICATION_PROTOCOL_DEFINITION ( 'international standard', 'config_control_design', 1994, #175 ) ;
#24 =( REPRESENTATION_RELATIONSHIP ('NONE','NONE', #1035, #723 ) REPRESENTATION_RELATIONSHIP_WITH_TRANSFORMATION ( #89 )SHAPE_REPRESENTATION_RELATIONSHIP( ) );
#25 = APPROVAL_PERSON_ORGANIZATION ( #711, #428, #1033 ) ;
#26 = CC_DESIGN_APPROVAL ( #593, ( #157 ) ) ;
#27 = CALENDAR_DATE ( 2026, 9, 1 ) ;
#28 = LOCAL_TIME ( 0, 57, 21.00000000000000000, #6 ) ;
#29 =( REPRESENTATION_RELATIONSHIP ('NONE','NONE', #1035, #138 ) REPRESENTATION_RELATIONSHIP_WITH_TRANSFORMATION ( #188 )SHAPE_REPRESENTATION_RELATIONSHIP( ) );
#30 = PROPERTY_DEFINITION_REPRESENTATION ( #4, #928 ) ;
#31 = CC_DESIGN_PERSON_AND_ORGANIZATION_ASSIGNMENT ( #861, #856, ( #267 ) ) ;
#32 = SECURITY_CLASSIFICATION_LEVEL ( 'unclassified' ) ;
#33 = APPROVAL_STATUS ( 'not_yet_approved' ) ;
#34 = APPROVAL_ROLE ( '' ) ;
#35 = CONTEXT_DEPENDENT_SHAPE_REPRESENTATION ( #996, #238 ) ;
#36 = CALENDAR_DATE ( 2026, 9, 1 ) ;
#37 = CC_DESIGN_PERSON_AND_ORGANIZATION_ASSIGNMENT ( #700, #294, ( #821 ) ) ;
#38 = CALENDAR_DATE ( 2026, 9, 1 ) ;
#39 = CONTEXT_DEPENDENT_SHAPE_REPRESENTATION ( #87, #504 ) ;
#40 = LOCAL_TIME ( 0, 57, 21.00000000000000000, #774 ) ;
#41 = DOCUMENT_FILE ( 'Cone_asm_1.STEP' , '', '', #836, '' ,$ ) ;
#42 = APPROVAL_DATE_TIME ( #994, #330 ) ;
#43 = AXIS2_PLACEMENT_3D ( 'NONE', #16, #520, #900 ) ;
#44 = PRODUCT_DEFINITION ( 'General', '', #170, #862 ) ;
#45 = APPROVAL_STATUS ( 'not_yet_approved' ) ;
#46 = APPROVAL_PERSON_ORGANIZATION ( #614, #818, #795 ) ;
#47 = CC_DESIGN_SECURITY_CLASSIFICATION ( #84, ( #885 ) ) ;
#48 = ITEM_DEFINED_TRANSFORMATION ( 'NONE', 'NONE', #97,  #379 ) ;
#49 = APPROVAL_STATUS ( 'not_yet_approved' ) ;
#51 = APPROVAL_STATUS ( 'not_yet_approved' ) ;
#50 = APPLICATION_CONTEXT ( 'configuration controlled 3d designs of mechanical parts and assemblies' ) ;
#52 = APPROVAL_DATE_TIME ( #390, #904 ) ;
#53 = APPROVAL ( #786, 'Coincident' ) ;
#54 = PERSON_AND_ORGANIZATION_ROLE ( 'design_owner' ) ;
#55 = APPROVAL_DATE_TIME ( #369, #981 ) ;
#56 = CC_DESIGN_PERSON_AND_ORGANIZATION_ASSIGNMENT ( #518, #54, ( #156 ) ) ;
#57 = CALENDAR_DATE ( 2026, 9, 1 ) ;
#58 = APPROVAL_PERSON_ORGANIZATION ( #687, #409, #911 ) ;
#59 = COORDINATED_UNIVERSAL_TIME_OFFSET ( 5, 0, .BEHIND. ) ;
#60 = PROPERTY_DEFINITION ('document property','', #843 ) ;
#61 = DATE_AND_TIME ( #788, #659 ) ;
#62 = LOCAL_TIME ( 0, 57, 21.00000000000000000, #982 ) ;
#63 = DATE_AND_TIME ( #326, #958 ) ;
#64 = CC_DESIGN_DATE_AND_TIME_ASSIGNMENT ( #834, #444, ( #456 ) ) ;
#65 = EXTERNAL_SOURCE (IDENTIFIER('') ) ;
#66 = CALENDAR_DATE ( 2026, 9, 1 ) ;
#67 = ITEM_DEFINED_TRANSFORMATION ( 'NONE', 'NONE', #676,  #730 ) ;
#68 = DESIGN_CONTEXT ( 'detailed design', #754, 'design' ) ;
#69 = PERSON ( 'NAUO-PER6', 'UNSPECIFIED', 'UNSPECIFIED', ('UNSPECIFIED'), ('UNSPECIFIED'), ('UNSPECIFIED') ) ;
#70 = COORDINATED_UNIVERSAL_TIME_OFFSET ( 5, 0, .BEHIND. ) ;
#71 = PRODUCT ( '21700 Battery', '21700 Battery', '', ( #109 ) ) ;
#72 = DATE_AND_TIME ( #753, #810 ) ;
#73 = CC_DESIGN_PERSON_AND_ORGANIZATION_ASSIGNMENT ( #780, #951, ( #470 ) ) ;
#74 = PERSON_AND_ORGANIZATION ( #18446744073709551615, #18446744073709551615 ) ;
#75 = APPROVAL_STATUS ( 'not_yet_approved' ) ;
#76 = CALENDAR_DATE ( 2026, 9, 1 ) ;
#77 = APPLIED_EXTERNAL_IDENTIFICATION_ASSIGNMENT ( 'Cone_asm_1.STEP' , #232, #967,( #308) ) ;
#78 = APPROVAL ( #962, 'Coincident' ) ;
#79 = CONTEXT_DEPENDENT_SHAPE_REPRESENTATION ( #595, #954 ) ;
#80 = APPROVAL_PERSON_ORGANIZATION ( #412, #876, #410 ) ;
#81 = PROPERTY_DEFINITION ('document property','', #908 ) ;
#82 = APPROVAL_PERSON_ORGANIZATION ( #873, #468, #827 ) ;
#83 = APPROVAL_DATE_TIME ( #807, #78 ) ;
#84 = SECURITY_CLASSIFICATION ( '', '', #431 ) ;
#85 = LOCAL_TIME ( 0, 57, 21.00000000000000000, #570 ) ;
#86 = APPROVAL_DATE_TIME ( #882, #876 ) ;
#87 =( REPRESENTATION_RELATIONSHIP ('NONE','NONE', #1035, #432 ) REPRESENTATION_RELATIONSHIP_WITH_TRANSFORMATION ( #892 )SHAPE_REPRESENTATION_RELATIONSHIP( ) );
#88 = PROPERTY_DEFINITION ('document property','', #975 ) ;
#89 = ITEM_DEFINED_TRANSFORMATION ( 'NONE', 'NONE', #957,  #523 ) ;
#90 = CC_DESIGN_PERSON_AND_ORGANIZATION_ASSIGNMENT ( #442, #297, ( #368 ) ) ;
#91 = DATE_AND_TIME ( #104, #121 ) ;
#92 = CC_DESIGN_APPROVAL ( #78, ( #124 ) ) ;
#93 =( NAMED_UNIT ( * ) PLANE_ANGLE_UNIT ( ) SI_UNIT ( $, .RADIAN. ) );
#94 = PERSON_AND_ORGANIZATION ( #964, #591 ) ;
#95 = PROPERTY_DEFINITION ('external definition','', #405 ) ;
#96 = APPROVAL_STATUS ( 'not_yet_approved' ) ;
#97 = AXIS2_PLACEMENT_3D ( 'NONE', #879, #977, #345 ) ;
#98 = LOCAL_TIME ( 0, 57, 21.00000000000000000, #530 ) ;
#99 = COORDINATED_UNIVERSAL_TIME_OFFSET ( 5, 0, .BEHIND. ) ;
#100 = APPROVAL_STATUS ( 'not_yet_approved' ) ;
#101 = EXTERNAL_SOURCE (IDENTIFIER('') ) ;
#102 = SHAPE_REPRESENTATION ( 'Heatsink', ( #730 ), #454 ) ;
#103 = PERSON ( 'NAUO-PER10', 'UNSPECIFIED', 'UNSPECIFIED', ('UNSPECIFIED'), ('UNSPECIFIED'), ('UNSPECIFIED') ) ;
#104 = CALENDAR_DATE ( 2026, 9, 1 ) ;
#105 =( NAMED_UNIT ( * ) SI_UNIT ( $, .STERADIAN. ) SOLID_ANGLE_UNIT ( ) );
#106 = CC_DESIGN_PERSON_AND_ORGANIZATION_ASSIGNMENT ( #354, #678, ( #214 ) ) ;
#107 = CONTEXT_DEPENDENT_SHAPE_REPRESENTATION ( #857, #262 ) ;
#108 = COORDINATED_UNIVERSAL_TIME_OFFSET ( 5, 0, .BEHIND. ) ;
#109 = MECHANICAL_CONTEXT ( 'NONE', #613, 'mechanical' ) ;
#110 = LOCAL_TIME ( 0, 57, 21.00000000000000000, #203 ) ;
#111 = LOCAL_TIME ( 0, 57, 21.00000000000000000, #226 ) ;
#112 = SECURITY_CLASSIFICATION_LEVEL ( 'unclassified' ) ;
#113 = PROPERTY_DEFINITION_REPRESENTATION ( #884, #719 ) ;
#114 = CALENDAR_DATE ( 2026, 9, 1 ) ;
#115 = EXTERNAL_SOURCE (IDENTIFIER('') ) ;
#116 = DIRECTION ( 'NONE',  ( 0.9790759008244467321, 0.000000000000000000, 0.2034954063972897187 ) ) ;
#117 = COORDINATED_UNIVERSAL_TIME_OFFSET ( 5, 0, .BEHIND. ) ;
#118 = DATE_AND_TIME ( #841, #289 ) ;
#119 = CALENDAR_DATE ( 2026, 9, 1 ) ;
#120 = DATE_AND_TIME ( #522, #978 ) ;
#121 = LOCAL_TIME ( 0, 57, 21.00000000000000000, #99 ) ;
#122 = PERSON_AND_ORGANIZATION_ROLE ( 'classification_officer' ) ;
#123 = PERSON_AND_ORGANIZATION ( #18446744073709551615, #18446744073709551615 ) ;
#124 = PRODUCT_DEFINITION_FORMATION_WITH_SPECIFIED_SOURCE ( 'Symmetric', '', #135, .NOT_KNOWN. ) ;
#125 = PERSON_AND_ORGANIZATION ( #18446744073709551615, #18446744073709551615 ) ;
#126 = PRODUCT_DEFINITION ( 'General', '', #507, #68 ) ;
#127 = CC_DESIGN_APPROVAL ( #650, ( #84 ) ) ;
#128 = APPROVAL_PERSON_ORGANIZATION ( #342, #990, #822 ) ;
#129 = APPROVAL_DATE_TIME ( #1029, #164 ) ;
#130 = SHAPE_DEFINITION_REPRESENTATION ( #654, #432 ) ;
#131 = DATE_AND_TIME ( #1014, #661 ) ;
#132 = CC_DESIGN_PERSON_AND_ORGANIZATION_ASSIGNMENT ( #748, #408, ( #171 ) ) ;
#133 =( NAMED_UNIT ( * ) PLANE_ANGLE_UNIT ( ) SI_UNIT ( $, .RADIAN. ) );
#134 = DATE_AND_TIME ( #802, #950 ) ;
#135 = PRODUCT ( 'Fan', 'Fan', '', ( #630 ) ) ;
#136 = COORDINATED_UNIVERSAL_TIME_OFFSET ( 5, 0, .BEHIND. ) ;
#137 =( REPRESENTATION_RELATIONSHIP ('NONE','NONE', #1035, #138 ) REPRESENTATION_RELATIONSHIP_WITH_TRANSFORMATION ( #48 )SHAPE_REPRESENTATION_RELATIONSHIP( ) );
#138 = SHAPE_REPRESENTATION ( '21700 Battery', ( #379 ), #819 ) ;
#139 = APPROVAL_STATUS ( 'not_yet_approved' ) ;
#140 =( LENGTH_UNIT ( ) NAMED_UNIT ( * ) SI_UNIT ( .MILLI., .METRE. ) );
#141 = DOCUMENT_FILE ( 'Heatsink.STEP' , '', '', #543, '' ,$ ) ;
#142 = UNCERTAINTY_MEASURE_WITH_UNIT (LENGTH_MEASURE( 1.000000000000000082E-05 ), #295, 'distance_accuracy_value', 'NONE');
#143 = PERSON_AND_ORGANIZATION_ROLE ( 'design_supplier' ) ;
#144 = LOCAL_TIME ( 0, 57, 21.00000000000000000, #782 ) ;
#145 = DATE_TIME_ROLE ( 'creation_date' ) ;
#146 = PRODUCT_DEFINITION_SHAPE ( 'NONE', 'NONE',  #1039 ) ;
#147 = APPROVAL_PERSON_ORGANIZATION ( #863, #593, #161 ) ;
#148 = APPROVAL_ROLE ( '' ) ;
#149 = DESIGN_CONTEXT ( 'detailed design', #812, 'design' ) ;
#150 = CC_DESIGN_APPROVAL ( #793, ( #126 ) ) ;
#151 = DATE_TIME_ROLE ( 'classification_date' ) ;
#152 = APPROVAL_ROLE ( '' ) ;
#153 =( LENGTH_UNIT ( ) NAMED_UNIT ( * ) SI_UNIT ( .MILLI., .METRE. ) );
#154 = CALENDAR_DATE ( 2026, 9, 1 ) ;
#155 = APPLICATION_PROTOCOL_DEFINITION ( 'international standard', 'config_control_design', 1994, #685 ) ;
#156 = PRODUCT ( 'Case Upper Piece', 'Case Upper Piece', '', ( #210 ) ) ;
#157 = PRODUCT_DEFINITION ( 'General', '', #1024, #948 ) ;
#158 = PERSON_AND_ORGANIZATION_ROLE ( 'creator' ) ;
#159 = PERSON ( 'NAUO-PER13', 'UNSPECIFIED', 'UNSPECIFIED', ('UNSPECIFIED'), ('UNSPECIFIED'), ('UNSPECIFIED') ) ;
#160 = APPROVAL_STATUS ( 'not_yet_approved' ) ;
#161 = APPROVAL_ROLE ( '' ) ;
#162 = OBJECT_ROLE ('mandatory',$ ) ;
#163 = APPROVAL_PERSON_ORGANIZATION ( #861, #225, #148 ) ;
#164 = APPROVAL ( #227, 'UNKNOWN' ) ;
#165 = CC_DESIGN_PERSON_AND_ORGANIZATION_ASSIGNMENT ( #1002, #290, ( #255 ) ) ;
#166 = DIRECTION ( 'NONE',  ( 0.000000000000000000, 0.000000000000000000, 1.000000000000000000 ) ) ;
#167 = CC_DESIGN_SECURITY_CLASSIFICATION ( #273, ( #1037 ) ) ;
#168 = PRODUCT ( 'Main Assembly', 'Main Assembly', '', ( #181 ) ) ;
#169 = DATE_AND_TIME ( #13, #674 ) ;
#170 = PRODUCT_DEFINITION_FORMATION_WITH_SPECIFIED_SOURCE ( 'Symmetric', '', #156, .NOT_KNOWN. ) ;
#171 = SECURITY_CLASSIFICATION ( '', '', #182 ) ;
#172 = CARTESIAN_POINT ( 'NONE',  ( 676.2796105210738915, 858.6347219771705568, 1329.390969747888903 ) ) ;
#173 = CC_DESIGN_PERSON_AND_ORGANIZATION_ASSIGNMENT ( #271, #158, ( #944 ) ) ;
#174 = COORDINATED_UNIVERSAL_TIME_OFFSET ( 5, 0, .BEHIND. ) ;
#175 = APPLICATION_CONTEXT ( 'configuration controlled 3d designs of mechanical parts and assemblies' ) ;
#176 =( LENGTH_UNIT ( ) NAMED_UNIT ( * ) SI_UNIT ( .MILLI., .METRE. ) );
#177 = CC_DESIGN_PERSON_AND_ORGANIZATION_ASSIGNMENT ( #683, #122, ( #896 ) ) ;
#178 = ROLE_ASSOCIATION ( #162, #972 ) ;
#179 = APPROVAL_STATUS ( 'not_yet_approved' ) ;
#180 = CC_DESIGN_SECURITY_CLASSIFICATION ( #586, ( #1042 ) ) ;
#181 = MECHANICAL_CONTEXT ( 'NONE', #327, 'mechanical' ) ;
#182 = SECURITY_CLASSIFICATION_LEVEL ( 'unclassified' ) ;
#183 = DATE_TIME_ROLE ( 'creation_date' ) ;
#184 = APPROVAL_PERSON_ORGANIZATION ( #592, #650, #152 ) ;
#185 = CC_DESIGN_PERSON_AND_ORGANIZATION_ASSIGNMENT ( #587, #339, ( #923 ) ) ;
#186 = APPROVAL_ROLE ( '' ) ;
#187 = DIRECTION ( 'NONE',  ( 0.000000000000000000, 0.000000000000000000, 1.000000000000000000 ) ) ;
#188 = ITEM_DEFINED_TRANSFORMATION ( 'NONE', 'NONE', #505,  #379 ) ;
#189 = PERSON_AND_ORGANIZATION_ROLE ( 'design_supplier' ) ;
#190 = CC_DESIGN_PERSON_AND_ORGANIZATION_ASSIGNMENT ( #852, #845, ( #170 ) ) ;
#191 = DIRECTION ( 'NONE',  ( 1.000000000000000000, 0.000000000000000000, 0.000000000000000000 ) ) ;
#192 = DOCUMENT_FILE ( '21700 Battery.STEP' , '', '', #664, '' ,$ ) ;
#193 = CALENDAR_DATE ( 2026, 9, 1 ) ;
#194 = APPROVAL_ROLE ( '' ) ;
#195 = DOCUMENT_TYPE ( 'geometry' ) ;
#196 = COORDINATED_UNIVERSAL_TIME_OFFSET ( 5, 0, .BEHIND. ) ;
#197 = CC_DESIGN_SECURITY_CLASSIFICATION ( #400, ( #1043 ) ) ;
#198 = CC_DESIGN_PERSON_AND_ORGANIZATION_ASSIGNMENT ( #910, #603, ( #1022 ) ) ;
#199 = APPLIED_DOCUMENT_REFERENCE ( #434,'',( #944) ) ;
#200 = CALENDAR_DATE ( 2026, 9, 1 ) ;
#201 = LOCAL_TIME ( 0, 57, 21.00000000000000000, #589 ) ;
#202 = APPROVAL_PERSON_ORGANIZATION ( #519, #781, #480 ) ;
#203 = COORDINATED_UNIVERSAL_TIME_OFFSET ( 5, 0, .BEHIND. ) ;
#204 = CALENDAR_DATE ( 2026, 9, 1 ) ;
#205 = APPROVAL ( #1030, 'Coincident' ) ;
#206 = CONTEXT_DEPENDENT_SHAPE_REPRESENTATION ( #631, #891 ) ;
#207 = APPROVAL_STATUS ( 'not_yet_approved' ) ;
#208 = APPROVAL ( #160, 'UNKNOWN' ) ;
#209 = COORDINATED_UNIVERSAL_TIME_OFFSET ( 5, 0, .BEHIND. ) ;
#210 = MECHANICAL_CONTEXT ( 'NONE', #508, 'mechanical' ) ;
#211 = PERSON_AND_ORGANIZATION ( #18446744073709551615, #18446744073709551615 ) ;
#212 =( NAMED_UNIT ( * ) SI_UNIT ( $, .STERADIAN. ) SOLID_ANGLE_UNIT ( ) );
#213 = APPROVAL_STATUS ( 'not_yet_approved' ) ;
#214 = SECURITY_CLASSIFICATION ( '', '', #112 ) ;
#215 = SHAPE_DEFINITION_REPRESENTATION ( #560, #928 ) ;
#216 = DOCUMENT_TYPE ( 'geometry' ) ;
#217 = LOCAL_TIME ( 0, 57, 21.00000000000000000, #926 ) ;
#218 = COORDINATED_UNIVERSAL_TIME_OFFSET ( 5, 0, .BEHIND. ) ;
#219 = PERSON_AND_ORGANIZATION ( #18446744073709551615, #18446744073709551615 ) ;
#220 = CC_DESIGN_APPROVAL ( #956, ( #885 ) ) ;
#221 = SECURITY_CLASSIFICATION ( '', '', #281 ) ;
#222 = CARTESIAN_POINT ( 'NONE',  ( 0.000000000000000000, 0.000000000000000000, 0.000000000000000000 ) ) ;
#223 = ITEM_DEFINED_TRANSFORMATION ( 'NONE', 'NONE', #1003,  #403 ) ;
#224 = PERSON_AND_ORGANIZATION_ROLE ( 'creator' ) ;
#225 = APPROVAL ( #1034, 'UNKNOWN' ) ;
#226 = COORDINATED_UNIVERSAL_TIME_OFFSET ( 5, 0, .BEHIND. ) ;
#227 = APPROVAL_STATUS ( 'not_yet_approved' ) ;
#228 = PRODUCT ( 'Cone_asm', 'Cone_asm', '', ( #877 ) ) ;
#229 = DATE_AND_TIME ( #244, #381 ) ;
#230 = MECHANICAL_CONTEXT ( 'NONE', #943, 'mechanical' ) ;
#231 = COORDINATED_UNIVERSAL_TIME_OFFSET ( 5, 0, .BEHIND. ) ;
#232 = IDENTIFICATION_ROLE ( 'external document id and location', $) ;
#233 = CC_DESIGN_DATE_AND_TIME_ASSIGNMENT ( #353, #362, ( #575 ) ) ;
#234 = DESIGN_CONTEXT ( 'detailed design', #1019, 'design' ) ;
#235 = SECURITY_CLASSIFICATION_LEVEL ( 'unclassified' ) ;
#236 = APPROVAL_PERSON_ORGANIZATION ( #683, #426, #999 ) ;
#237 = DATE_AND_TIME ( #959, #971 ) ;
#238 = PRODUCT_DEFINITION_SHAPE ( 'NONE', 'NONE',  #1045 ) ;
#239 = DIRECTION ( 'NONE',  ( 0.000000000000000000, 0.000000000000000000, 1.000000000000000000 ) ) ;
#240 =( GEOMETRIC_REPRESENTATION_CONTEXT ( 3 ) GLOBAL_UNCERTAINTY_ASSIGNED_CONTEXT ( ( #142 ) ) GLOBAL_UNIT_ASSIGNED_CONTEXT ( ( #295, #133, #946 ) ) REPRESENTATION_CONTEXT ( 'NONE', 'WORKASPACE' ) );
#241 = CONTEXT_DEPENDENT_SHAPE_REPRESENTATION ( #825, #867 ) ;
#242 = CC_DESIGN_APPROVAL ( #243, ( #1024 ) ) ;
#243 = APPROVAL ( #1025, 'Coincident' ) ;
#244 = CALENDAR_DATE ( 2026, 9, 1 ) ;
#245 = COORDINATED_UNIVERSAL_TIME_OFFSET ( 5, 0, .BEHIND. ) ;
#246 = CARTESIAN_POINT ( 'NONE',  ( 693.1338512182943532, 776.7318781783103532, 1341.645051295314715 ) ) ;
#247 = APPROVAL_ROLE ( '' ) ;
#248 = PROPERTY_DEFINITION ('document property','', #141 ) ;
#249 = CC_DESIGN_PERSON_AND_ORGANIZATION_ASSIGNMENT ( #721, #663, ( #885 ) ) ;
#250 = SECURITY_CLASSIFICATION_LEVEL ( 'unclassified' ) ;
#251 = CC_DESIGN_APPROVAL ( #164, ( #586 ) ) ;
#252 = CC_DESIGN_PERSON_AND_ORGANIZATION_ASSIGNMENT ( #689, #1001, ( #71 ) ) ;
#253 = OBJECT_ROLE ('mandatory',$ ) ;
#254 = PRODUCT_DEFINITION_SHAPE ( 'NONE', 'NONE',  #126 ) ;
#255 = SECURITY_CLASSIFICATION ( '', '', #838 ) ;
#256 = PERSON_AND_ORGANIZATION_ROLE ( 'classification_officer' ) ;
#257 = CC_DESIGN_APPROVAL ( #468, ( #944 ) ) ;
#258 = CC_DESIGN_DATE_AND_TIME_ASSIGNMENT ( #429, #296, ( #221 ) ) ;
#259 = DIRECTION ( 'NONE',  ( 1.000000000000000000, 0.000000000000000000, 0.000000000000000000 ) ) ;
#260 = PROPERTY_DEFINITION_REPRESENTATION ( #402, #138 ) ;
#261 = CALENDAR_DATE ( 2026, 9, 1 ) ;
#262 = PRODUCT_DEFINITION_SHAPE ( 'NONE', 'NONE',  #1040 ) ;
#263 = DIRECTION ( 'NONE',  ( 0.000000000000000000, 0.000000000000000000, 1.000000000000000000 ) ) ;
#264 = PERSON ( 'NAUO-PER9', 'UNSPECIFIED', 'UNSPECIFIED', ('UNSPECIFIED'), ('UNSPECIFIED'), ('UNSPECIFIED') ) ;
#265 = PROPERTY_DEFINITION_REPRESENTATION ( #790, #723 ) ;
#266 = COORDINATED_UNIVERSAL_TIME_OFFSET ( 5, 0, .BEHIND. ) ;
#267 = SECURITY_CLASSIFICATION ( '', '', #934 ) ;
#268 = COORDINATED_UNIVERSAL_TIME_OFFSET ( 5, 0, .BEHIND. ) ;
#269 = CC_DESIGN_APPROVAL ( #435, ( #439 ) ) ;
#270 = CC_DESIGN_PERSON_AND_ORGANIZATION_ASSIGNMENT ( #558, #314, ( #305 ) ) ;
#271 = PERSON_AND_ORGANIZATION ( #18446744073709551615, #18446744073709551615 ) ;
#272 = PRODUCT_DEFINITION_FORMATION_WITH_SPECIFIED_SOURCE ( 'Symmetric', '', #228, .NOT_KNOWN. ) ;
#273 = SECURITY_CLASSIFICATION ( '', '', #496 ) ;
#274 = DOCUMENT_TYPE ( 'geometry' ) ;
#275 = DIRECTION ( 'NONE',  ( 1.000000000000000000, 0.000000000000000000, 0.000000000000000000 ) ) ;
#276 = ITEM_DEFINED_TRANSFORMATION ( 'NONE', 'NONE', #436,  #349 ) ;
#277 = ROLE_ASSOCIATION ( #767, #452 ) ;
#278 = DATE_AND_TIME ( #114, #420 ) ;
#279 = CC_DESIGN_PERSON_AND_ORGANIZATION_ASSIGNMENT ( #219, #553, ( #507 ) ) ;
#280 = PERSON_AND_ORGANIZATION_ROLE ( 'creator' ) ;
#281 = SECURITY_CLASSIFICATION_LEVEL ( 'unclassified' ) ;
#282 = DATE_AND_TIME ( #193, #931 ) ;
#283 = COORDINATED_UNIVERSAL_TIME_OFFSET ( 5, 0, .BEHIND. ) ;
#284 = PERSON_AND_ORGANIZATION_ROLE ( 'design_owner' ) ;
#285 = APPLIED_EXTERNAL_IDENTIFICATION_ASSIGNMENT ( '21700 Battery.STEP' , #485, #65,( #192) ) ;
#286 = APPROVAL_DATE_TIME ( #762, #854 ) ;
#287 = DOCUMENT_TYPE ( 'geometry' ) ;
#288 = APPLICATION_PROTOCOL_DEFINITION ( 'international standard', 'config_control_design', 1994, #451 ) ;
#289 = LOCAL_TIME ( 0, 57, 21.00000000000000000, #783 ) ;
#290 = PERSON_AND_ORGANIZATION_ROLE ( 'classification_officer' ) ;
#291 = DATE_AND_TIME ( #204, #755 ) ;
#292 = APPROVAL_ROLE ( '' ) ;
#293 = CALENDAR_DATE ( 2026, 9, 1 ) ;
#294 = PERSON_AND_ORGANIZATION_ROLE ( 'classification_officer' ) ;
#295 =( LENGTH_UNIT ( ) NAMED_UNIT ( * ) SI_UNIT ( .MILLI., .METRE. ) );
#296 = DATE_TIME_ROLE ( 'classification_date' ) ;
#297 = PERSON_AND_ORGANIZATION_ROLE ( 'classification_officer' ) ;
#298 = APPLICATION_PROTOCOL_DEFINITION ( 'international standard', 'config_control_design', 1994, #943 ) ;
#299 = APPROVAL_ROLE ( '' ) ;
#300 = ORGANIZATION ( 'NAUO-ORG8', 'UNSPECIFIED', 'UNSPECIFIED' ) ;
#301 = APPROVAL_DATE_TIME ( #803, #205 ) ;
#302 = LOCAL_TIME ( 0, 57, 21.00000000000000000, #658 ) ;
#303 = LOCAL_TIME ( 0, 57, 21.00000000000000000, #196 ) ;
#304 = DATE_AND_TIME ( #66, #710 ) ;
#305 = SECURITY_CLASSIFICATION ( '', '', #235 ) ;
#306 = APPLIED_EXTERNAL_IDENTIFICATION_ASSIGNMENT ( 'Case Upper Piece.STEP' , #727, #430,( #843) ) ;
#307 = DIRECTION ( 'NONE',  ( 0.000000000000000000, 0.000000000000000000, 1.000000000000000000 ) ) ;
#308 = DOCUMENT_FILE ( 'Cone_asm_1.STEP' , '', '', #9, '' ,$ ) ;
#309 = EXTERNAL_SOURCE (IDENTIFIER('') ) ;
#310 = SHAPE_DEFINITION_REPRESENTATION ( #633, #138 ) ;
#311 = APPROVAL_ROLE ( '' ) ;
#312 = APPLIED_DOCUMENT_REFERENCE ( #308,'',( #126) ) ;
#313 = PRODUCT_DEFINITION_SHAPE ( 'NONE', 'NONE',  #923 ) ;
#314 = PERSON_AND_ORGANIZATION_ROLE ( 'classification_officer' ) ;
#315 = COORDINATED_UNIVERSAL_TIME_OFFSET ( 5, 0, .BEHIND. ) ;
#316 = PRODUCT_RELATED_PRODUCT_CATEGORY ( 'detail', '', ( #470 ) ) ;
#317 = DATE_TIME_ROLE ( 'classification_date' ) ;
#318 = UNCERTAINTY_MEASURE_WITH_UNIT (LENGTH_MEASURE( 1.000000000000000082E-05 ), #153, 'distance_accuracy_value', 'NONE');
#319 = DATE_AND_TIME ( #548, #346 ) ;
#320 = APPROVAL_PERSON_ORGANIZATION ( #918, #208, #292 ) ;
#321 = APPROVAL_ROLE ( '' ) ;
#322 = PROPERTY_DEFINITION ('external definition','', #843 ) ;
#323 =( GEOMETRIC_REPRESENTATION_CONTEXT ( 3 ) GLOBAL_UNCERTAINTY_ASSIGNED_CONTEXT ( ( #475 ) ) GLOBAL_UNIT_ASSIGNED_CONTEXT ( ( #576, #491, #5 ) ) REPRESENTATION_CONTEXT ( 'NONE', 'WORKASPACE' ) );
#324 = APPROVAL_PERSON_ORGANIZATION ( #919, #500, #598 ) ;
#325 = APPROVAL_PERSON_ORGANIZATION ( #798, #78, #247 ) ;
#326 = CALENDAR_DATE ( 2026, 9, 1 ) ;
#327 = APPLICATION_CONTEXT ( 'configuration controlled 3d designs of mechanical parts and assemblies' ) ;
#328 = PERSON_AND_ORGANIZATION_ROLE ( 'classification_officer' ) ;
#329 = APPROVAL_ROLE ( '' ) ;
#330 = APPROVAL ( #376, 'Coincident' ) ;
#331 = PERSON_AND_ORGANIZATION ( #18446744073709551615, #18446744073709551615 ) ;
#332 = CC_DESIGN_PERSON_AND_ORGANIZATION_ASSIGNMENT ( #687, #766, ( #456 ) ) ;
#333 = APPROVAL_PERSON_ORGANIZATION ( #354, #915, #997 ) ;
#334 = CONTEXT_DEPENDENT_SHAPE_REPRESENTATION ( #29, #706 ) ;
#335 = LOCAL_TIME ( 0, 57, 21.00000000000000000, #266 ) ;
#336 = APPROVAL_STATUS ( 'not_yet_approved' ) ;
#337 = OBJECT_ROLE ('mandatory',$ ) ;
#338 = APPROVAL_DATE_TIME ( #169, #990 ) ;
#339 = PERSON_AND_ORGANIZATION_ROLE ( 'creator' ) ;
#340 = DATE_AND_TIME ( #750, #110 ) ;
#341 = CC_DESIGN_PERSON_AND_ORGANIZATION_ASSIGNMENT ( #651, #143, ( #1024 ) ) ;
#342 = PERSON_AND_ORGANIZATION ( #18446744073709551615, #18446744073709551615 ) ;
#343 = PERSON_AND_ORGANIZATION ( #18446744073709551615, #18446744073709551615 ) ;
#344 = CC_DESIGN_APPROVAL ( #915, ( #214 ) ) ;
#345 = DIRECTION ( 'NONE',  ( 1.000000000000000000, 0.000000000000000000, 0.000000000000000000 ) ) ;
#346 = LOCAL_TIME ( 0, 57, 21.00000000000000000, #469 ) ;
#347 = CC_DESIGN_DATE_AND_TIME_ASSIGNMENT ( #20, #605, ( #214 ) ) ;
#348 = APPLIED_DOCUMENT_REFERENCE ( #192,'',( #157) ) ;
#349 = AXIS2_PLACEMENT_3D ( 'NONE', #222, #263, #652 ) ;
#350 = APPROVAL_STATUS ( 'not_yet_approved' ) ;
#351 = CC_DESIGN_APPROVAL ( #428, ( #923 ) ) ;
#352 = LOCAL_TIME ( 0, 57, 21.00000000000000000, #364 ) ;
#353 = DATE_AND_TIME ( #27, #201 ) ;
#354 = PERSON_AND_ORGANIZATION ( #264, #501 ) ;
#355 = EXTERNAL_SOURCE (IDENTIFIER('') ) ;
#356 = COORDINATED_UNIVERSAL_TIME_OFFSET ( 5, 0, .BEHIND. ) ;
#357 = PERSON_AND_ORGANIZATION_ROLE ( 'creator' ) ;
#358 = CC_DESIGN_DATE_AND_TIME_ASSIGNMENT ( #870, #151, ( #305 ) ) ;
#359 = DIRECTION ( 'NONE',  ( 1.000000000000000000, 0.000000000000000000, 0.000000000000000000 ) ) ;
#360 = DATE_AND_TIME ( #36, #1004 ) ;
#361 = CC_DESIGN_DATE_AND_TIME_ASSIGNMENT ( #282, #844, ( #896 ) ) ;
#362 = DATE_TIME_ROLE ( 'creation_date' ) ;
#363 = APPLIED_EXTERNAL_IDENTIFICATION_ASSIGNMENT ( 'Cone_asm_1.STEP' , #463, #411,( #405) ) ;
#364 = COORDINATED_UNIVERSAL_TIME_OFFSET ( 5, 0, .BEHIND. ) ;
#365 = ROLE_ASSOCIATION ( #890, #826 ) ;
#366 = CALENDAR_DATE ( 2026, 9, 1 ) ;
#367 = AXIS2_PLACEMENT_3D ( 'NONE', #551, #239, #634 ) ;
#368 = SECURITY_CLASSIFICATION ( '', '', #32 ) ;
#369 = DATE_AND_TIME ( #714, #111 ) ;
#370 = CONTEXT_DEPENDENT_SHAPE_REPRESENTATION ( #137, #146 ) ;
#371 = PERSON_AND_ORGANIZATION ( #18446744073709551615, #18446744073709551615 ) ;
#372 = DATE_AND_TIME ( #549, #775 ) ;
#373 = APPLIED_DOCUMENT_REFERENCE ( #141,'',( #923) ) ;
#374 = CC_DESIGN_PERSON_AND_ORGANIZATION_ASSIGNMENT ( #331, #966, ( #124 ) ) ;
#375 = IDENTIFICATION_ROLE ( 'external document id and location', $) ;
#376 = APPROVAL_STATUS ( 'not_yet_approved' ) ;
#377 = PERSON_AND_ORGANIZATION_ROLE ( 'design_supplier' ) ;
#378 = DATE_AND_TIME ( #57, #695 ) ;
#379 = AXIS2_PLACEMENT_3D ( 'NONE', #640, #307, #389 ) ;
#380 = DATE_AND_TIME ( #544, #541 ) ;
#381 = LOCAL_TIME ( 0, 57, 21.00000000000000000, #392 ) ;
#382 = CARTESIAN_POINT ( 'NONE',  ( 0.000000000000000000, 0.000000000000000000, 0.000000000000000000 ) ) ;
#383 = PROPERTY_DEFINITION_REPRESENTATION ( #742, #102 ) ;
#384 = UNCERTAINTY_MEASURE_WITH_UNIT (LENGTH_MEASURE( 1.000000000000000082E-05 ), #965, 'distance_accuracy_value', 'NONE');
#385 = APPROVAL_DATE_TIME ( #63, #243 ) ;
#386 = CC_DESIGN_PERSON_AND_ORGANIZATION_ASSIGNMENT ( #955, #792, ( #135 ) ) ;
#388 = APPLICATION_CONTEXT ( 'configuration controlled 3d designs of mechanical parts and assemblies' ) ;
#387 = APPLICATION_PROTOCOL_DEFINITION ( 'international standard', 'config_control_design', 1994, #656 ) ;
#389 = DIRECTION ( 'NONE',  ( 1.000000000000000000, 0.000000000000000000, 0.000000000000000000 ) ) ;
#390 = DATE_AND_TIME ( #797, #144 ) ;
#391 = PRODUCT_DEFINITION_SHAPE ( 'NONE', 'NONE',  #1012 ) ;
#392 = COORDINATED_UNIVERSAL_TIME_OFFSET ( 5, 0, .BEHIND. ) ;
#393 = CC_DESIGN_PERSON_AND_ORGANIZATION_ASSIGNMENT ( #94, #256, ( #439 ) ) ;
#394 = APPROVAL_DATE_TIME ( #973, #650 ) ;
#395 = CC_DESIGN_PERSON_AND_ORGANIZATION_ASSIGNMENT ( #599, #280, ( #1022 ) ) ;
#396 =( NAMED_UNIT ( * ) PLANE_ANGLE_UNIT ( ) SI_UNIT ( $, .RADIAN. ) );
#397 = COORDINATED_UNIVERSAL_TIME_OFFSET ( 5, 0, .BEHIND. ) ;
#398 = PERSON ( 'NAUO-PER7', 'UNSPECIFIED', 'UNSPECIFIED', ('UNSPECIFIED'), ('UNSPECIFIED'), ('UNSPECIFIED') ) ;
#399 = DATE_AND_TIME ( #76, #811 ) ;
#400 = SECURITY_CLASSIFICATION ( '', '', #874 ) ;
#401 = CC_DESIGN_APPROVAL ( #854, ( #221 ) ) ;
#402 = PROPERTY_DEFINITION ('external definition','', #662 ) ;
#403 = AXIS2_PLACEMENT_3D ( 'NONE', #572, #166, #497 ) ;
#404 = CC_DESIGN_APPROVAL ( #781, ( #272 ) ) ;
#405 = DOCUMENT_FILE ( 'Cone_asm_1.STEP' , '', '', #287, '' ,$ ) ;
#406 = CC_DESIGN_DATE_AND_TIME_ASSIGNMENT ( #229, #623, ( #157 ) ) ;
#407 = ORGANIZATION ( 'NAUO-ORG6', 'UNSPECIFIED', 'UNSPECIFIED' ) ;
#408 = PERSON_AND_ORGANIZATION_ROLE ( 'classification_officer' ) ;
#409 = APPROVAL ( #213, 'UNKNOWN' ) ;
#410 = APPROVAL_ROLE ( '' ) ;
#411 = EXTERNAL_SOURCE (IDENTIFIER('') ) ;
#412 = PERSON_AND_ORGANIZATION ( #69, #407 ) ;
#413 = CC_DESIGN_SECURITY_CLASSIFICATION ( #770, ( #1044 ) ) ;
#414 = COORDINATED_UNIVERSAL_TIME_OFFSET ( 5, 0, .BEHIND. ) ;
#415 = APPLIED_EXTERNAL_IDENTIFICATION_ASSIGNMENT ( 'Cone_asm.STEP' , #980, #355,( #434) ) ;
#416 = CC_DESIGN_PERSON_AND_ORGANIZATION_ASSIGNMENT ( #448, #377, ( #507 ) ) ;
#417 = PROPERTY_DEFINITION ('document property','', #308 ) ;
#418 = APPROVAL_PERSON_ORGANIZATION ( #1017, #205, #479 ) ;
#419 = COORDINATED_UNIVERSAL_TIME_OFFSET ( 5, 0, .BEHIND. ) ;
#420 = LOCAL_TIME ( 0, 57, 21.00000000000000000, #283 ) ;
#421 = PERSON_AND_ORGANIZATION ( #18446744073709551615, #18446744073709551615 ) ;
#422 = APPROVAL ( #875, 'Coincident' ) ;
#423 = PERSON_AND_ORGANIZATION ( #18446744073709551615, #18446744073709551615 ) ;
#424 = APPROVAL_DATE_TIME ( #816, #435 ) ;
#425 = PERSON_AND_ORGANIZATION ( #18446744073709551615, #18446744073709551615 ) ;
#426 = APPROVAL ( #606, 'UNKNOWN' ) ;
#427 = PERSON_AND_ORGANIZATION ( #18446744073709551615, #18446744073709551615 ) ;
#428 = APPROVAL ( #942, 'Coincident' ) ;
#429 = DATE_AND_TIME ( #921, #352 ) ;
#430 = EXTERNAL_SOURCE (IDENTIFIER('') ) ;
#431 = SECURITY_CLASSIFICATION_LEVEL ( 'unclassified' ) ;
#432 = SHAPE_REPRESENTATION ( 'Case Upper Piece', ( #367 ), #773 ) ;
#433 = DATE_AND_TIME ( #38, #303 ) ;
#434 = DOCUMENT_FILE ( 'Cone_asm.STEP' , '', '', #274, '' ,$ ) ;
#435 = APPROVAL ( #494, 'UNKNOWN' ) ;
#436 = AXIS2_PLACEMENT_3D ( 'NONE', #985, #526, #191 ) ;
#437 = PERSON_AND_ORGANIZATION ( #18446744073709551615, #18446744073709551615 ) ;
#438 = CC_DESIGN_APPROVAL ( #53, ( #255 ) ) ;
#439 = SECURITY_CLASSIFICATION ( '', '', #250 ) ;
#440 = DIRECTION ( 'NONE',  ( 0.2034954063972897187, 0.000000000000000000, -0.9790759008244467321 ) ) ;
#441 = CC_DESIGN_PERSON_AND_ORGANIZATION_ASSIGNMENT ( #412, #738, ( #273 ) ) ;
#442 = PERSON_AND_ORGANIZATION ( #18446744073709551615, #18446744073709551615 ) ;
#443 = IDENTIFICATION_ROLE ( 'external document id and location', $) ;
#444 = DATE_TIME_ROLE ( 'classification_date' ) ;
#445 = CALENDAR_DATE ( 2026, 9, 1 ) ;
#446 = APPROVAL_ROLE ( '' ) ;
#447 = CC_DESIGN_PERSON_AND_ORGANIZATION_ASSIGNMENT ( #632, #784, ( #126 ) ) ;
#448 = PERSON_AND_ORGANIZATION ( #18446744073709551615, #18446744073709551615 ) ;
#449 = LOCAL_TIME ( 0, 57, 21.00000000000000000, #117 ) ;
#450 = PROPERTY_DEFINITION_REPRESENTATION ( #322, #432 ) ;
#451 = APPLICATION_CONTEXT ( 'configuration controlled 3d designs of mechanical parts and assemblies' ) ;
#452 = APPLIED_DOCUMENT_REFERENCE ( #908,'',( #126) ) ;
#453 = DATE_AND_TIME ( #200, #872 ) ;
#454 =( GEOMETRIC_REPRESENTATION_CONTEXT ( 3 ) GLOBAL_UNCERTAINTY_ASSIGNED_CONTEXT ( ( #384 ) ) GLOBAL_UNIT_ASSIGNED_CONTEXT ( ( #965, #396, #1 ) ) REPRESENTATION_CONTEXT ( 'NONE', 'WORKASPACE' ) );
#455 = LOCAL_TIME ( 0, 57, 21.00000000000000000, #769 ) ;
#456 = SECURITY_CLASSIFICATION ( '', '', #615 ) ;
#457 = PRODUCT_RELATED_PRODUCT_CATEGORY ( 'detail', '', ( #228 ) ) ;
#458 = CALENDAR_DATE ( 2026, 9, 1 ) ;
#459 = DATE_AND_TIME ( #366, #984 ) ;
#460 = COORDINATED_UNIVERSAL_TIME_OFFSET ( 5, 0, .BEHIND. ) ;
#461 = APPROVAL_ROLE ( '' ) ;
#462 = COORDINATED_UNIVERSAL_TIME_OFFSET ( 5, 0, .BEHIND. ) ;
#464 = APPLICATION_PROTOCOL_DEFINITION ( 'international standard', 'config_control_design', 1994, #1019 ) ;
#463 = IDENTIFICATION_ROLE ( 'external document id and location', $) ;
#465 = CARTESIAN_POINT ( 'NONE',  ( 0.000000000000000000, 0.000000000000000000, 0.000000000000000000 ) ) ;
#466 = DATE_AND_TIME ( #649, #554 ) ;
#467 = APPLIED_EXTERNAL_IDENTIFICATION_ASSIGNMENT ( 'Heatsink.STEP' , #375, #309,( #141) ) ;
#468 = APPROVAL ( #96, 'Coincident' ) ;
#469 = COORDINATED_UNIVERSAL_TIME_OFFSET ( 5, 0, .BEHIND. ) ;
#470 = PRODUCT ( 'Heatsink', 'Heatsink', '', ( #848 ) ) ;
#471 =( GEOMETRIC_REPRESENTATION_CONTEXT ( 3 ) GLOBAL_UNCERTAINTY_ASSIGNED_CONTEXT ( ( #868 ) ) GLOBAL_UNIT_ASSIGNED_CONTEXT ( ( #176, #93, #724 ) ) REPRESENTATION_CONTEXT ( 'NONE', 'WORKASPACE' ) );
#472 = COORDINATED_UNIVERSAL_TIME_OFFSET ( 5, 0, .BEHIND. ) ;
#473 = APPROVAL_PERSON_ORGANIZATION ( #125, #981, #855 ) ;
#474 = DATE_AND_TIME ( #629, #602 ) ;
#475 = UNCERTAINTY_MEASURE_WITH_UNIT (LENGTH_MEASURE( 1.000000000000000082E-05 ), #576, 'distance_accuracy_value', 'NONE');
#476 = PERSON_AND_ORGANIZATION_ROLE ( 'creator' ) ;
#477 = APPROVAL_DATE_TIME ( #91, #468 ) ;
#478 = PERSON_AND_ORGANIZATION ( #1009, #1018 ) ;
#479 = APPROVAL_ROLE ( '' ) ;
#480 = APPROVAL_ROLE ( '' ) ;
#481 = APPROVAL ( #539, 'Coincident' ) ;
#482 = PROPERTY_DEFINITION_REPRESENTATION ( #95, #719 ) ;
#483 = PERSON_AND_ORGANIZATION ( #18446744073709551615, #18446744073709551615 ) ;
#484 = ORGANIZATION ( 'NAUO-ORG14', 'UNSPECIFIED', 'UNSPECIFIED' ) ;
#485 = IDENTIFICATION_ROLE ( 'external document id and location', $) ;
#486 = LOCAL_TIME ( 0, 57, 21.00000000000000000, #3 ) ;
#487 = PRODUCT ( 'Cone_asm_1', 'Cone_asm_1', '', ( #230 ) ) ;
#488 = PERSON ( 'NAUO-PER8', 'UNSPECIFIED', 'UNSPECIFIED', ('UNSPECIFIED'), ('UNSPECIFIED'), ('UNSPECIFIED') ) ;
#489 =( GEOMETRIC_REPRESENTATION_CONTEXT ( 3 ) GLOBAL_UNCERTAINTY_ASSIGNED_CONTEXT ( ( #718 ) ) GLOBAL_UNIT_ASSIGNED_CONTEXT ( ( #920, #995, #105 ) ) REPRESENTATION_CONTEXT ( 'NONE', 'WORKASPACE' ) );
#490 = CC_DESIGN_DATE_AND_TIME_ASSIGNMENT ( #969, #655, ( #439 ) ) ;
#491 =( NAMED_UNIT ( * ) PLANE_ANGLE_UNIT ( ) SI_UNIT ( $, .RADIAN. ) );
#492 = CC_DESIGN_SECURITY_CLASSIFICATION ( #935, ( #170 ) ) ;
#493 = LOCAL_TIME ( 0, 57, 21.00000000000000000, #136 ) ;
#494 = APPROVAL_STATUS ( 'not_yet_approved' ) ;
#495 = DIRECTION ( 'NONE',  ( 1.000000000000000000, 0.000000000000000000, 0.000000000000000000 ) ) ;
#496 = SECURITY_CLASSIFICATION_LEVEL ( 'unclassified' ) ;
#497 = DIRECTION ( 'NONE',  ( 1.000000000000000000, 0.000000000000000000, 0.000000000000000000 ) ) ;
#498 = DATE_AND_TIME ( #17, #679 ) ;
#499 = DOCUMENT_TYPE ( 'geometry' ) ;
#500 = APPROVAL ( #207, 'Coincident' ) ;
#501 = ORGANIZATION ( 'NAUO-ORG9', 'UNSPECIFIED', 'UNSPECIFIED' ) ;
#502 = PERSON_AND_ORGANIZATION_ROLE ( 'design_owner' ) ;
#503 = DIRECTION ( 'NONE',  ( 0.000000000000000000, 0.000000000000000000, 1.000000000000000000 ) ) ;
#504 = PRODUCT_DEFINITION_SHAPE ( 'NONE', 'NONE',  #1038 ) ;
#505 = AXIS2_PLACEMENT_3D ( 'NONE', #246, #580, #737 ) ;
#506 = APPROVAL_STATUS ( 'not_yet_approved' ) ;
#507 = PRODUCT_DEFINITION_FORMATION_WITH_SPECIFIED_SOURCE ( 'Symmetric', '', #487, .NOT_KNOWN. ) ;
#508 = APPLICATION_CONTEXT ( 'configuration controlled 3d designs of mechanical parts and assemblies' ) ;
#509 = APPROVAL_DATE_TIME ( #10, #781 ) ;
#510 = CC_DESIGN_DATE_AND_TIME_ASSIGNMENT ( #616, #513, ( #770 ) ) ;
#511 = DIRECTION ( 'NONE',  ( 1.000000000000000000, 0.000000000000000000, 0.000000000000000000 ) ) ;
#512 = APPROVAL_STATUS ( 'not_yet_approved' ) ;
#513 = DATE_TIME_ROLE ( 'classification_date' ) ;
#514 = DATE_TIME_ROLE ( 'classification_date' ) ;
#515 = CC_DESIGN_PERSON_AND_ORGANIZATION_ASSIGNMENT ( #684, #837, ( #170 ) ) ;
#516 = CARTESIAN_POINT ( 'NONE',  ( 675.9844653746397398, 891.6347219771705568, 1329.390969747888903 ) ) ;
#517 = PROPERTY_DEFINITION_REPRESENTATION ( #1031, #138 ) ;
#518 = PERSON_AND_ORGANIZATION ( #18446744073709551615, #18446744073709551615 ) ;
#519 = PERSON_AND_ORGANIZATION ( #18446744073709551615, #18446744073709551615 ) ;
#520 = DIRECTION ( 'NONE',  ( 0.000000000000000000, -2.775557561562891351E-17, -1.000000000000000000 ) ) ;
#521 = OBJECT_ROLE ('mandatory',$ ) ;
#522 = CALENDAR_DATE ( 2026, 9, 1 ) ;
#523 = AXIS2_PLACEMENT_3D ( 'NONE', #465, #1010, #697 ) ;
#524 = DATE_TIME_ROLE ( 'creation_date' ) ;
#525 = CC_DESIGN_SECURITY_CLASSIFICATION ( #821, ( #507 ) ) ;
#526 = DIRECTION ( 'NONE',  ( 0.000000000000000000, -2.775557561562891351E-17, -1.000000000000000000 ) ) ;
#527 = PROPERTY_DEFINITION_REPRESENTATION ( #60, #432 ) ;
#528 = APPROVAL_DATE_TIME ( #532, #426 ) ;
#529 = PERSON_AND_ORGANIZATION ( #18446744073709551615, #18446744073709551615 ) ;
#530 = COORDINATED_UNIVERSAL_TIME_OFFSET ( 5, 0, .BEHIND. ) ;
#531 = CALENDAR_DATE ( 2026, 9, 1 ) ;
#532 = DATE_AND_TIME ( #993, #690 ) ;
#533 = COORDINATED_UNIVERSAL_TIME_OFFSET ( 5, 0, .BEHIND. ) ;
#534 = CC_DESIGN_PERSON_AND_ORGANIZATION_ASSIGNMENT ( #123, #777, ( #935 ) ) ;
#535 = APPROVAL_DATE_TIME ( #304, #818 ) ;
#536 = CC_DESIGN_APPROVAL ( #208, ( #770 ) ) ;
#537 = APPROVAL_DATE_TIME ( #291, #409 ) ;
#538 = CC_DESIGN_SECURITY_CLASSIFICATION ( #171, ( #124 ) ) ;
#539 = APPROVAL_STATUS ( 'not_yet_approved' ) ;
#540 = APPROVAL_PERSON_ORGANIZATION ( #529, #481, #194 ) ;
#541 = LOCAL_TIME ( 0, 57, 21.00000000000000000, #472 ) ;
#542 = CC_DESIGN_APPROVAL ( #990, ( #171 ) ) ;
#544 = CALENDAR_DATE ( 2026, 9, 1 ) ;
#543 = DOCUMENT_TYPE ( 'geometry' ) ;
#545 = CC_DESIGN_PERSON_AND_ORGANIZATION_ASSIGNMENT ( #74, #284, ( #168 ) ) ;
#546 =( NAMED_UNIT ( * ) PLANE_ANGLE_UNIT ( ) SI_UNIT ( $, .RADIAN. ) );
#547 = SECURITY_CLASSIFICATION_LEVEL ( 'unclassified' ) ;
#548 = CALENDAR_DATE ( 2026, 9, 1 ) ;
#549 = CALENDAR_DATE ( 2026, 9, 1 ) ;
#550 = CC_DESIGN_PERSON_AND_ORGANIZATION_ASSIGNMENT ( #804, #567, ( #84 ) ) ;
#551 = CARTESIAN_POINT ( 'NONE',  ( 0.000000000000000000, 0.000000000000000000, 0.000000000000000000 ) ) ;
#552 = APPROVAL_ROLE ( '' ) ;
#553 = PERSON_AND_ORGANIZATION_ROLE ( 'creator' ) ;
#554 = LOCAL_TIME ( 0, 57, 21.00000000000000000, #231 ) ;
#555 = ROLE_ASSOCIATION ( #521, #373 ) ;
#556 = CC_DESIGN_PERSON_AND_ORGANIZATION_ASSIGNMENT ( #918, #768, ( #770 ) ) ;
#557 = DESIGN_CONTEXT ( 'detailed design', #685, 'design' ) ;
#558 = PERSON_AND_ORGANIZATION ( #18446744073709551615, #18446744073709551615 ) ;
#559 = IDENTIFICATION_ROLE ( 'external document id and location', $) ;
#560 = PRODUCT_DEFINITION_SHAPE ( 'NONE', 'NONE',  #944 ) ;
#561 = CC_DESIGN_APPROVAL ( #716, ( #575 ) ) ;
#562 = APPROVAL_DATE_TIME ( #898, #956 ) ;
#563 = CC_DESIGN_APPROVAL ( #735, ( #935 ) ) ;
#564 = COORDINATED_UNIVERSAL_TIME_OFFSET ( 5, 0, .BEHIND. ) ;
#565 = PERSON_AND_ORGANIZATION_ROLE ( 'creator' ) ;
#566 = IDENTIFICATION_ROLE ( 'external document id and location', $) ;
#567 = PERSON_AND_ORGANIZATION_ROLE ( 'classification_officer' ) ;
#568 = DIRECTION ( 'NONE',  ( 1.000000000000000000, 0.000000000000000000, 0.000000000000000000 ) ) ;
#569 = SECURITY_CLASSIFICATION_LEVEL ( 'unclassified' ) ;
#570 = COORDINATED_UNIVERSAL_TIME_OFFSET ( 5, 0, .BEHIND. ) ;
#571 = CC_DESIGN_PERSON_AND_ORGANIZATION_ASSIGNMENT ( #425, #18, ( #272 ) ) ;
#572 = CARTESIAN_POINT ( 'NONE',  ( 0.000000000000000000, 0.000000000000000000, 0.000000000000000000 ) ) ;
#573 = DATE_AND_TIME ( #902, #28 ) ;
#574 = APPROVAL_PERSON_ORGANIZATION ( #427, #905, #691 ) ;
#575 = PRODUCT_DEFINITION ( 'General', '', #1022, #636 ) ;
#576 =( LENGTH_UNIT ( ) NAMED_UNIT ( * ) SI_UNIT ( .MILLI., .METRE. ) );
#577 = CC_DESIGN_APPROVAL ( #330, ( #170 ) ) ;
#578 = CALENDAR_DATE ( 2026, 9, 1 ) ;
#579 = OBJECT_ROLE ('mandatory',$ ) ;
#580 = DIRECTION ( 'NONE',  ( 0.000000000000000000, 0.000000000000000000, 1.000000000000000000 ) ) ;
#581 = CC_DESIGN_PERSON_AND_ORGANIZATION_ASSIGNMENT ( #881, #224, ( #1024 ) ) ;
#582 = PROPERTY_DEFINITION_REPRESENTATION ( #644, #138 ) ;
#583 = DATE_AND_TIME ( #746, #62 ) ;
#584 = APPLICATION_PROTOCOL_DEFINITION ( 'international standard', 'config_control_design', 1994, #327 ) ;
#585 = PROPERTY_DEFINITION_REPRESENTATION ( #88, #723 ) ;
#586 = SECURITY_CLASSIFICATION ( '', '', #547 ) ;
#587 = PERSON_AND_ORGANIZATION ( #18446744073709551615, #18446744073709551615 ) ;
#588 = CC_DESIGN_APPROVAL ( #409, ( #456 ) ) ;
#589 = COORDINATED_UNIVERSAL_TIME_OFFSET ( 5, 0, .BEHIND. ) ;
#590 = APPROVAL_PERSON_ORGANIZATION ( #421, #956, #321 ) ;
#591 = ORGANIZATION ( 'NAUO-ORG5', 'UNSPECIFIED', 'UNSPECIFIED' ) ;
#592 = PERSON_AND_ORGANIZATION ( #18446744073709551615, #18446744073709551615 ) ;
#593 = APPROVAL ( #785, 'Coincident' ) ;
#594 = APPLICATION_PROTOCOL_DEFINITION ( 'international standard', 'config_control_design', 1994, #388 ) ;
#595 =( REPRESENTATION_RELATIONSHIP ('NONE','NONE', #1035, #719 ) REPRESENTATION_RELATIONSHIP_WITH_TRANSFORMATION ( #1015 )SHAPE_REPRESENTATION_RELATIONSHIP( ) );
#596 = COORDINATED_UNIVERSAL_TIME_OFFSET ( 5, 0, .BEHIND. ) ;
#597 = PROPERTY_DEFINITION_REPRESENTATION ( #729, #719 ) ;
#598 = APPROVAL_ROLE ( '' ) ;
#599 = PERSON_AND_ORGANIZATION ( #18446744073709551615, #18446744073709551615 ) ;
#600 = CALENDAR_DATE ( 2026, 9, 1 ) ;
#601 = APPLICATION_PROTOCOL_DEFINITION ( 'international standard', 'config_control_design', 1994, #703 ) ;
#602 = LOCAL_TIME ( 0, 57, 21.00000000000000000, #397 ) ;
#603 = PERSON_AND_ORGANIZATION_ROLE ( 'design_supplier' ) ;
#604 = CC_DESIGN_DATE_AND_TIME_ASSIGNMENT ( #372, #145, ( #126 ) ) ;
#605 = DATE_TIME_ROLE ( 'classification_date' ) ;
#606 = APPROVAL_STATUS ( 'not_yet_approved' ) ;
#607 = COORDINATED_UNIVERSAL_TIME_OFFSET ( 5, 0, .BEHIND. ) ;
#608 = CC_DESIGN_SECURITY_CLASSIFICATION ( #368, ( #272 ) ) ;
#609 = OBJECT_ROLE ('mandatory',$ ) ;
#610 = CARTESIAN_POINT ( 'NONE',  ( 677.9195827379877528, 944.0368841466350887, 1330.921133972316738 ) ) ;
#611 = CC_DESIGN_DATE_AND_TIME_ASSIGNMENT ( #278, #763, ( #935 ) ) ;
#612 = APPROVAL_DATE_TIME ( #760, #500 ) ;
#614 = PERSON_AND_ORGANIZATION ( #18446744073709551615, #18446744073709551615 ) ;
#613 = APPLICATION_CONTEXT ( 'configuration controlled 3d designs of mechanical parts and assemblies' ) ;
#615 = SECURITY_CLASSIFICATION_LEVEL ( 'unclassified' ) ;
#616 = DATE_AND_TIME ( #22, #449 ) ;
#617 = COORDINATED_UNIVERSAL_TIME_OFFSET ( 5, 0, .BEHIND. ) ;
#618 = CC_DESIGN_DATE_AND_TIME_ASSIGNMENT ( #704, #842, ( #255 ) ) ;
#619 = APPLICATION_PROTOCOL_DEFINITION ( 'international standard', 'config_control_design', 1994, #754 ) ;
#620 = APPLIED_EXTERNAL_IDENTIFICATION_ASSIGNMENT ( 'Cone_asm_1.STEP' , #443, #115,( #908) ) ;
#621 = PERSON_AND_ORGANIZATION ( #945, #739 ) ;
#622 = ORGANIZATION ( 'NAUO-ORG7', 'UNSPECIFIED', 'UNSPECIFIED' ) ;
#623 = DATE_TIME_ROLE ( 'creation_date' ) ;
#624 = APPROVAL_PERSON_ORGANIZATION ( #423, #716, #765 ) ;
#625 = APPROVAL_PERSON_ORGANIZATION ( #483, #243, #186 ) ;
#626 = CC_DESIGN_DATE_AND_TIME_ASSIGNMENT ( #498, #733, ( #171 ) ) ;
#627 = LOCAL_TIME ( 0, 57, 21.00000000000000000, #174 ) ;
#628 = DATE_TIME_ROLE ( 'classification_date' ) ;
#629 = CALENDAR_DATE ( 2026, 9, 1 ) ;
#630 = MECHANICAL_CONTEXT ( 'NONE', #50, 'mechanical' ) ;
#631 =( REPRESENTATION_RELATIONSHIP ('NONE','NONE', #1035, #719 ) REPRESENTATION_RELATIONSHIP_WITH_TRANSFORMATION ( #653 )SHAPE_REPRESENTATION_RELATIONSHIP( ) );
#632 = PERSON_AND_ORGANIZATION ( #18446744073709551615, #18446744073709551615 ) ;
#633 = PRODUCT_DEFINITION_SHAPE ( 'NONE', 'NONE',  #157 ) ;
#634 = DIRECTION ( 'NONE',  ( 1.000000000000000000, 0.000000000000000000, 0.000000000000000000 ) ) ;
#635 = ROLE_ASSOCIATION ( #337, #312 ) ;
#636 = DESIGN_CONTEXT ( 'detailed design', #388, 'design' ) ;
#637 = PERSON_AND_ORGANIZATION ( #18446744073709551615, #18446744073709551615 ) ;
#638 = PERSON_AND_ORGANIZATION ( #18446744073709551615, #18446744073709551615 ) ;
#639 = PERSON ( 'NAUO-PER14', 'UNSPECIFIED', 'UNSPECIFIED', ('UNSPECIFIED'), ('UNSPECIFIED'), ('UNSPECIFIED') ) ;
#640 = CARTESIAN_POINT ( 'NONE',  ( 0.000000000000000000, 0.000000000000000000, 0.000000000000000000 ) ) ;
#641 = PERSON_AND_ORGANIZATION_ROLE ( 'classification_officer' ) ;
#642 = PRODUCT_RELATED_PRODUCT_CATEGORY ( 'detail', '', ( #487 ) ) ;
#643 = APPLICATION_PROTOCOL_DEFINITION ( 'international standard', 'config_control_design', 1994, #50 ) ;
#644 = PROPERTY_DEFINITION ('document property','', #662 ) ;
#645 = AXIS2_PLACEMENT_3D ( 'NONE', #675, #668, #686 ) ;
#646 = APPROVAL_PERSON_ORGANIZATION ( #925, #53, #311 ) ;
#647 = DATE_TIME_ROLE ( 'creation_date' ) ;
#648 = CC_DESIGN_APPROVAL ( #818, ( #821 ) ) ;
#649 = CALENDAR_DATE ( 2026, 9, 1 ) ;
#650 = APPROVAL ( #336, 'Coincident' ) ;
#651 = PERSON_AND_ORGANIZATION ( #18446744073709551615, #18446744073709551615 ) ;
#652 = DIRECTION ( 'NONE',  ( 1.000000000000000000, 0.000000000000000000, 0.000000000000000000 ) ) ;
#653 = ITEM_DEFINED_TRANSFORMATION ( 'NONE', 'NONE', #645,  #403 ) ;
#654 = PRODUCT_DEFINITION_SHAPE ( 'NONE', 'NONE',  #44 ) ;
#655 = DATE_TIME_ROLE ( 'classification_date' ) ;
#656 = APPLICATION_CONTEXT ( 'configuration controlled 3d designs of mechanical parts and assemblies' ) ;
#657 = CC_DESIGN_PERSON_AND_ORGANIZATION_ASSIGNMENT ( #211, #864, ( #487 ) ) ;
#658 = COORDINATED_UNIVERSAL_TIME_OFFSET ( 5, 0, .BEHIND. ) ;
#659 = LOCAL_TIME ( 0, 57, 21.00000000000000000, #564 ) ;
#660 = PRODUCT_RELATED_PRODUCT_CATEGORY ( 'detail', '', ( #156 ) ) ;
#661 = LOCAL_TIME ( 0, 57, 21.00000000000000000, #1008 ) ;
#662 = DOCUMENT_FILE ( '21700 Battery.STEP' , '', '', #195, '' ,$ ) ;
#663 = PERSON_AND_ORGANIZATION_ROLE ( 'creator' ) ;
#664 = DOCUMENT_TYPE ( 'geometry' ) ;
#665 = CALENDAR_DATE ( 2026, 9, 1 ) ;
#666 = PROPERTY_DEFINITION ('document property','', #192 ) ;
#667 = CALENDAR_DATE ( 2026, 9, 1 ) ;
#668 = DIRECTION ( 'NONE',  ( 0.000000000000000000, -2.775557561562891351E-17, -1.000000000000000000 ) ) ;
#669 = EXTERNAL_SOURCE (IDENTIFIER('') ) ;
#670 = SHAPE_DEFINITION_REPRESENTATION ( #391, #723 ) ;
#671 = CC_DESIGN_DATE_AND_TIME_ASSIGNMENT ( #237, #647, ( #923 ) ) ;
#672 = CC_DESIGN_SECURITY_CLASSIFICATION ( #896, ( #1045 ) ) ;
#673 = PERSON_AND_ORGANIZATION_ROLE ( 'design_supplier' ) ;
#674 = LOCAL_TIME ( 0, 57, 21.00000000000000000, #8 ) ;
#675 = CARTESIAN_POINT ( 'NONE',  ( 691.1790742776835259, 944.0368841466350887, 1313.509989206542741 ) ) ;
#676 = AXIS2_PLACEMENT_3D ( 'NONE', #516, #116, #440 ) ;
#677 = CC_DESIGN_APPROVAL ( #500, ( #368 ) ) ;
#678 = PERSON_AND_ORGANIZATION_ROLE ( 'classification_officer' ) ;
#679 = LOCAL_TIME ( 0, 57, 21.00000000000000000, #419 ) ;
#680 = DATE_AND_TIME ( #667, #98 ) ;
#681 = DIRECTION ( 'NONE',  ( 0.000000000000000000, -2.775557561562891351E-17, -1.000000000000000000 ) ) ;
#682 = PERSON_AND_ORGANIZATION_ROLE ( 'classification_officer' ) ;
#683 = PERSON_AND_ORGANIZATION ( #639, #484 ) ;
#684 = PERSON_AND_ORGANIZATION ( #18446744073709551615, #18446744073709551615 ) ;
#685 = APPLICATION_CONTEXT ( 'configuration controlled 3d designs of mechanical parts and assemblies' ) ;
#686 = DIRECTION ( 'NONE',  ( 1.000000000000000000, 0.000000000000000000, 0.000000000000000000 ) ) ;
#687 = PERSON_AND_ORGANIZATION ( #488, #300 ) ;
#688 = PROPERTY_DEFINITION_REPRESENTATION ( #801, #719 ) ;
#689 = PERSON_AND_ORGANIZATION ( #18446744073709551615, #18446744073709551615 ) ;
#690 = LOCAL_TIME ( 0, 57, 21.00000000000000000, #209 ) ;
#691 = APPROVAL_ROLE ( '' ) ;
#692 = APPLIED_DOCUMENT_REFERENCE ( #843,'',( #44) ) ;
#693 = LOCAL_TIME ( 0, 57, 21.00000000000000000, #268 ) ;
#694 = APPROVAL_DATE_TIME ( #118, #481 ) ;
#695 = LOCAL_TIME ( 0, 57, 21.00000000000000000, #702 ) ;
#696 = SECURITY_CLASSIFICATION_LEVEL ( 'unclassified' ) ;
#697 = DIRECTION ( 'NONE',  ( 1.000000000000000000, 0.000000000000000000, 0.000000000000000000 ) ) ;
#698 = COORDINATED_UNIVERSAL_TIME_OFFSET ( 5, 0, .BEHIND. ) ;
#699 = COORDINATED_UNIVERSAL_TIME_OFFSET ( 5, 0, .BEHIND. ) ;
#700 = PERSON_AND_ORGANIZATION ( #18446744073709551615, #18446744073709551615 ) ;
#701 = CC_DESIGN_PERSON_AND_ORGANIZATION_ASSIGNMENT ( #637, #476, ( #1012 ) ) ;
#702 = COORDINATED_UNIVERSAL_TIME_OFFSET ( 5, 0, .BEHIND. ) ;
#703 = APPLICATION_CONTEXT ( 'configuration controlled 3d designs of mechanical parts and assemblies' ) ;
#704 = DATE_AND_TIME ( #119, #693 ) ;
#705 = APPROVAL_PERSON_ORGANIZATION ( #621, #904, #299 ) ;
#706 = PRODUCT_DEFINITION_SHAPE ( 'NONE', 'NONE',  #1037 ) ;
#707 = APPROVAL_DATE_TIME ( #378, #593 ) ;
#708 = CC_DESIGN_APPROVAL ( #905, ( #1022 ) ) ;
#709 = CC_DESIGN_DATE_AND_TIME_ASSIGNMENT ( #474, #939, ( #400 ) ) ;
#710 = LOCAL_TIME ( 0, 57, 21.00000000000000000, #460 ) ;
#711 = PERSON_AND_ORGANIZATION ( #18446744073709551615, #18446744073709551615 ) ;
#712 = COORDINATED_UNIVERSAL_TIME_OFFSET ( 5, 0, .BEHIND. ) ;
#713 = PERSON_AND_ORGANIZATION ( #18446744073709551615, #18446744073709551615 ) ;
#714 = CALENDAR_DATE ( 2026, 9, 1 ) ;
#715 = PROPERTY_DEFINITION ('document property','', #405 ) ;
#716 = APPROVAL ( #100, 'Coincident' ) ;
#717 = PROPERTY_DEFINITION_REPRESENTATION ( #417, #719 ) ;
#718 = UNCERTAINTY_MEASURE_WITH_UNIT (LENGTH_MEASURE( 1.000000000000000082E-05 ), #920, 'distance_accuracy_value', 'NONE');
#719 = SHAPE_REPRESENTATION ( 'Cone_asm_1', ( #403 ), #323 ) ;
#720 = PERSON_AND_ORGANIZATION ( #18446744073709551615, #18446744073709551615 ) ;
#721 = PERSON_AND_ORGANIZATION ( #18446744073709551615, #18446744073709551615 ) ;
#722 = CC_DESIGN_DATE_AND_TIME_ASSIGNMENT ( #583, #514, ( #84 ) ) ;
#723 = SHAPE_REPRESENTATION ( 'Fan', ( #523 ), #240 ) ;
#724 =( NAMED_UNIT ( * ) SI_UNIT ( $, .STERADIAN. ) SOLID_ANGLE_UNIT ( ) );
#725 = PROPERTY_DEFINITION_REPRESENTATION ( #970, #928 ) ;
#726 = CALENDAR_DATE ( 2026, 9, 1 ) ;
#727 = IDENTIFICATION_ROLE ( 'external document id and location', $) ;
#728 = LOCAL_TIME ( 0, 57, 21.00000000000000000, #462 ) ;
#729 = PROPERTY_DEFINITION ('document property','', #41 ) ;
#730 = AXIS2_PLACEMENT_3D ( 'NONE', #382, #968, #495 ) ;
#731 = LOCAL_TIME ( 0, 57, 21.00000000000000000, #59 ) ;
#732 = APPLIED_EXTERNAL_IDENTIFICATION_ASSIGNMENT ( 'Fan.STEP' , #566, #669,( #975) ) ;
#733 = DATE_TIME_ROLE ( 'classification_date' ) ;
#734 = DATE_TIME_ROLE ( 'classification_date' ) ;
#735 = APPROVAL ( #49, 'Coincident' ) ;
#736 = EXTERNAL_SOURCE (IDENTIFIER('') ) ;
#737 = DIRECTION ( 'NONE',  ( 1.000000000000000000, 0.000000000000000000, 0.000000000000000000 ) ) ;
#738 = PERSON_AND_ORGANIZATION_ROLE ( 'classification_officer' ) ;
#739 = ORGANIZATION ( 'NAUO-ORG12', 'UNSPECIFIED', 'UNSPECIFIED' ) ;
#740 = CALENDAR_DATE ( 2026, 9, 1 ) ;
#741 = CC_DESIGN_DATE_AND_TIME_ASSIGNMENT ( #134, #317, ( #586 ) ) ;
#742 = PROPERTY_DEFINITION ('external definition','', #141 ) ;
#743 =( NAMED_UNIT ( * ) SI_UNIT ( $, .STERADIAN. ) SOLID_ANGLE_UNIT ( ) );
#744 = LOCAL_TIME ( 0, 57, 21.00000000000000000, #607 ) ;
#745 = PERSON_AND_ORGANIZATION_ROLE ( 'design_supplier' ) ;
#746 = CALENDAR_DATE ( 2026, 9, 1 ) ;
#747 = PERSON_AND_ORGANIZATION_ROLE ( 'creator' ) ;
#748 = PERSON_AND_ORGANIZATION ( #18446744073709551615, #18446744073709551615 ) ;
#749 = SHAPE_DEFINITION_REPRESENTATION ( #313, #102 ) ;
#750 = CALENDAR_DATE ( 2026, 9, 1 ) ;
#751 = APPROVAL_STATUS ( 'not_yet_approved' ) ;
#752 = CC_DESIGN_SECURITY_CLASSIFICATION ( #214, ( #1040 ) ) ;
#753 = CALENDAR_DATE ( 2026, 9, 1 ) ;
#754 = APPLICATION_CONTEXT ( 'configuration controlled 3d designs of mechanical parts and assemblies' ) ;
#755 = LOCAL_TIME ( 0, 57, 21.00000000000000000, #987 ) ;
#756 = APPROVAL_DATE_TIME ( #433, #716 ) ;
#757 = APPROVAL_PERSON_ORGANIZATION ( #371, #330, #989 ) ;
#758 = ROLE_ASSOCIATION ( #878, #199 ) ;
#759 = CC_DESIGN_SECURITY_CLASSIFICATION ( #439, ( #1036 ) ) ;
#760 = DATE_AND_TIME ( #293, #744 ) ;
#761 = PERSON_AND_ORGANIZATION ( #18446744073709551615, #18446744073709551615 ) ;
#762 = DATE_AND_TIME ( #600, #983 ) ;
#763 = DATE_TIME_ROLE ( 'classification_date' ) ;
#764 = CC_DESIGN_PERSON_AND_ORGANIZATION_ASSIGNMENT ( #720, #565, ( #157 ) ) ;
#765 = APPROVAL_ROLE ( '' ) ;
#766 = PERSON_AND_ORGANIZATION_ROLE ( 'classification_officer' ) ;
#767 = OBJECT_ROLE ('mandatory',$ ) ;
#768 = PERSON_AND_ORGANIZATION_ROLE ( 'classification_officer' ) ;
#769 = COORDINATED_UNIVERSAL_TIME_OFFSET ( 5, 0, .BEHIND. ) ;
#770 = SECURITY_CLASSIFICATION ( '', '', #569 ) ;
#771 = APPROVAL_ROLE ( '' ) ;
#772 = CC_DESIGN_PERSON_AND_ORGANIZATION_ASSIGNMENT ( #14, #189, ( #885 ) ) ;
#773 =( GEOMETRIC_REPRESENTATION_CONTEXT ( 3 ) GLOBAL_UNCERTAINTY_ASSIGNED_CONTEXT ( ( #791 ) ) GLOBAL_UNIT_ASSIGNED_CONTEXT ( ( #140, #796, #743 ) ) REPRESENTATION_CONTEXT ( 'NONE', 'WORKASPACE' ) );
#774 = COORDINATED_UNIVERSAL_TIME_OFFSET ( 5, 0, .BEHIND. ) ;
#775 = LOCAL_TIME ( 0, 57, 21.00000000000000000, #315 ) ;
#776 = PROPERTY_DEFINITION_REPRESENTATION ( #81, #719 ) ;
#777 = PERSON_AND_ORGANIZATION_ROLE ( 'classification_officer' ) ;
#778 = CC_DESIGN_SECURITY_CLASSIFICATION ( #221, ( #1038 ) ) ;
#779 = OBJECT_ROLE ('mandatory',$ ) ;
#780 = PERSON_AND_ORGANIZATION ( #18446744073709551615, #18446744073709551615 ) ;
#781 = APPROVAL ( #350, 'Coincident' ) ;
#782 = COORDINATED_UNIVERSAL_TIME_OFFSET ( 5, 0, .BEHIND. ) ;
#783 = COORDINATED_UNIVERSAL_TIME_OFFSET ( 5, 0, .BEHIND. ) ;
#784 = PERSON_AND_ORGANIZATION_ROLE ( 'creator' ) ;
#785 = APPROVAL_STATUS ( 'not_yet_approved' ) ;
#786 = APPROVAL_STATUS ( 'not_yet_approved' ) ;
#787 = APPLIED_EXTERNAL_IDENTIFICATION_ASSIGNMENT ( 'Cone_asm_1.STEP' , #789, #736,( #41) ) ;
#788 = CALENDAR_DATE ( 2026, 9, 1 ) ;
#789 = IDENTIFICATION_ROLE ( 'external document id and location', $) ;
#790 = PROPERTY_DEFINITION ('external definition','', #975 ) ;
#791 = UNCERTAINTY_MEASURE_WITH_UNIT (LENGTH_MEASURE( 1.000000000000000082E-05 ), #140, 'distance_accuracy_value', 'NONE');
#792 = PERSON_AND_ORGANIZATION_ROLE ( 'design_owner' ) ;
#793 = APPROVAL ( #51, 'Coincident' ) ;
#794 = CC_DESIGN_APPROVAL ( #981, ( #507 ) ) ;
#795 = APPROVAL_ROLE ( '' ) ;
#796 =( NAMED_UNIT ( * ) PLANE_ANGLE_UNIT ( ) SI_UNIT ( $, .RADIAN. ) );
#797 = CALENDAR_DATE ( 2026, 9, 1 ) ;
#798 = PERSON_AND_ORGANIZATION ( #18446744073709551615, #18446744073709551615 ) ;
#799 = CC_DESIGN_PERSON_AND_ORGANIZATION_ASSIGNMENT ( #924, #357, ( #44 ) ) ;
#800 = PERSON_AND_ORGANIZATION ( #18446744073709551615, #18446744073709551615 ) ;
#801 = PROPERTY_DEFINITION ('external definition','', #41 ) ;
#802 = CALENDAR_DATE ( 2026, 9, 1 ) ;
#803 = DATE_AND_TIME ( #858, #493 ) ;
#804 = PERSON_AND_ORGANIZATION ( #18446744073709551615, #18446744073709551615 ) ;
#805 = CC_DESIGN_APPROVAL ( #426, ( #896 ) ) ;
#806 = APPLIED_DOCUMENT_REFERENCE ( #405,'',( #126) ) ;
#807 = DATE_AND_TIME ( #726, #728 ) ;
#808 = CC_DESIGN_SECURITY_CLASSIFICATION ( #305, ( #1024 ) ) ;
#809 = PRODUCT_DEFINITION_SHAPE ( 'NONE', 'NONE',  #1036 ) ;
#810 = LOCAL_TIME ( 0, 57, 21.00000000000000000, #894 ) ;
#811 = LOCAL_TIME ( 0, 57, 21.00000000000000000, #940 ) ;
#812 = APPLICATION_CONTEXT ( 'configuration controlled 3d designs of mechanical parts and assemblies' ) ;
#813 = PRODUCT_RELATED_PRODUCT_CATEGORY ( 'detail', '', ( #135 ) ) ;
#814 = APPLIED_DOCUMENT_REFERENCE ( #975,'',( #1012) ) ;
#815 = CALENDAR_DATE ( 2026, 9, 1 ) ;
#816 = DATE_AND_TIME ( #665, #302 ) ;
#817 = APPLICATION_PROTOCOL_DEFINITION ( 'international standard', 'config_control_design', 1994, #812 ) ;
#818 = APPROVAL ( #139, 'Coincident' ) ;
#819 =( GEOMETRIC_REPRESENTATION_CONTEXT ( 3 ) GLOBAL_UNCERTAINTY_ASSIGNED_CONTEXT ( ( #318 ) ) GLOBAL_UNIT_ASSIGNED_CONTEXT ( ( #153, #546, #212 ) ) REPRESENTATION_CONTEXT ( 'NONE', 'WORKASPACE' ) );
#820 = CARTESIAN_POINT ( 'NONE',  ( 695.4543673114882267, 944.0368841466352023, 1344.439200759703681 ) ) ;
#821 = SECURITY_CLASSIFICATION ( '', '', #696 ) ;
#822 = APPROVAL_ROLE ( '' ) ;
#823 = COORDINATED_UNIVERSAL_TIME_OFFSET ( 5, 0, .BEHIND. ) ;
#824 = CC_DESIGN_DATE_AND_TIME_ASSIGNMENT ( #399, #949, ( #1012 ) ) ;
#825 =( REPRESENTATION_RELATIONSHIP ('NONE','NONE', #1035, #719 ) REPRESENTATION_RELATIONSHIP_WITH_TRANSFORMATION ( #223 )SHAPE_REPRESENTATION_RELATIONSHIP( ) );
#826 = APPLIED_DOCUMENT_REFERENCE ( #41,'',( #126) ) ;
#827 = APPROVAL_ROLE ( '' ) ;
#828 = PRODUCT_RELATED_PRODUCT_CATEGORY ( 'detail', '', ( #168 ) ) ;
#829 = APPROVAL_STATUS ( 'not_yet_approved' ) ;
#830 = APPROVAL_PERSON_ORGANIZATION ( #478, #164, #461 ) ;
#831 = CALENDAR_DATE ( 2026, 9, 1 ) ;
#832 = DIRECTION ( 'NONE',  ( 0.000000000000000000, -2.775557561562891351E-17, -1.000000000000000000 ) ) ;
#833 = APPROVAL_PERSON_ORGANIZATION ( #437, #735, #446 ) ;
#834 = DATE_AND_TIME ( #1005, #217 ) ;
#835 = CC_DESIGN_DATE_AND_TIME_ASSIGNMENT ( #453, #524, ( #44 ) ) ;
#836 = DOCUMENT_TYPE ( 'geometry' ) ;
#837 = PERSON_AND_ORGANIZATION_ROLE ( 'creator' ) ;
#838 = SECURITY_CLASSIFICATION_LEVEL ( 'unclassified' ) ;
#839 = ROLE_ASSOCIATION ( #779, #348 ) ;
#840 = APPROVAL_DATE_TIME ( #1006, #208 ) ;
#841 = CALENDAR_DATE ( 2026, 9, 1 ) ;
#842 = DATE_TIME_ROLE ( 'classification_date' ) ;
#843 = DOCUMENT_FILE ( 'Case Upper Piece.STEP' , '', '', #216, '' ,$ ) ;
#844 = DATE_TIME_ROLE ( 'classification_date' ) ;
#845 = PERSON_AND_ORGANIZATION_ROLE ( 'design_supplier' ) ;
#846 = LOCAL_TIME ( 0, 57, 21.00000000000000000, #218 ) ;
#847 = CC_DESIGN_PERSON_AND_ORGANIZATION_ASSIGNMENT ( #761, #747, ( #575 ) ) ;
#848 = MECHANICAL_CONTEXT ( 'NONE', #656, 'mechanical' ) ;
#849 = APPROVAL_PERSON_ORGANIZATION ( #94, #435, #329 ) ;
#850 = AXIS2_PLACEMENT_3D ( 'NONE', #888, #187, #511 ) ;
#851 = LOCAL_TIME ( 0, 57, 21.00000000000000000, #414 ) ;
#852 = PERSON_AND_ORGANIZATION ( #18446744073709551615, #18446744073709551615 ) ;
#853 = CC_DESIGN_APPROVAL ( #876, ( #273 ) ) ;
#854 = APPROVAL ( #751, 'UNKNOWN' ) ;
#855 = APPROVAL_ROLE ( '' ) ;
#856 = PERSON_AND_ORGANIZATION_ROLE ( 'classification_officer' ) ;
#857 =( REPRESENTATION_RELATIONSHIP ('NONE','NONE', #1035, #928 ) REPRESENTATION_RELATIONSHIP_WITH_TRANSFORMATION ( #276 )SHAPE_REPRESENTATION_RELATIONSHIP( ) );
#858 = CALENDAR_DATE ( 2026, 9, 1 ) ;
#859 = PROPERTY_DEFINITION ('external definition','', #308 ) ;
#860 = APPROVAL_DATE_TIME ( #1028, #793 ) ;
#861 = PERSON_AND_ORGANIZATION ( #103, #1000 ) ;
#862 = DESIGN_CONTEXT ( 'detailed design', #703, 'design' ) ;
#863 = PERSON_AND_ORGANIZATION ( #18446744073709551615, #18446744073709551615 ) ;
#864 = PERSON_AND_ORGANIZATION_ROLE ( 'design_owner' ) ;
#865 = CC_DESIGN_APPROVAL ( #225, ( #267 ) ) ;
#866 = CONTEXT_DEPENDENT_SHAPE_REPRESENTATION ( #907, #1021 ) ;
#867 = PRODUCT_DEFINITION_SHAPE ( 'NONE', 'NONE',  #1042 ) ;
#868 = UNCERTAINTY_MEASURE_WITH_UNIT (LENGTH_MEASURE( 1.000000000000000082E-05 ), #176, 'distance_accuracy_value', 'NONE');
#869 = CC_DESIGN_DATE_AND_TIME_ASSIGNMENT ( #72, #183, ( #944 ) ) ;
#870 = DATE_AND_TIME ( #936, #85 ) ;
#871 = AXIS2_PLACEMENT_3D ( 'NONE', #895, #503, #568 ) ;
#872 = LOCAL_TIME ( 0, 57, 21.00000000000000000, #533 ) ;
#873 = PERSON_AND_ORGANIZATION ( #18446744073709551615, #18446744073709551615 ) ;
#874 = SECURITY_CLASSIFICATION_LEVEL ( 'unclassified' ) ;
#875 = APPROVAL_STATUS ( 'not_yet_approved' ) ;
#876 = APPROVAL ( #512, 'UNKNOWN' ) ;
#877 = MECHANICAL_CONTEXT ( 'NONE', #175, 'mechanical' ) ;
#878 = OBJECT_ROLE ('mandatory',$ ) ;
#879 = CARTESIAN_POINT ( 'NONE',  ( 692.2894618598905936, 776.7181390309717699, 1319.350424285298004 ) ) ;
#880 = ROLE_ASSOCIATION ( #579, #806 ) ;
#881 = PERSON_AND_ORGANIZATION ( #18446744073709551615, #18446744073709551615 ) ;
#882 = DATE_AND_TIME ( #815, #627 ) ;
#883 = APPLIED_EXTERNAL_IDENTIFICATION_ASSIGNMENT ( '21700 Battery.STEP' , #559, #101,( #662) ) ;
#884 = PROPERTY_DEFINITION ('external definition','', #908 ) ;
#885 = PRODUCT_DEFINITION_FORMATION_WITH_SPECIFIED_SOURCE ( 'Symmetric', '', #470, .NOT_KNOWN. ) ;
#886 = CC_DESIGN_SECURITY_CLASSIFICATION ( #456, ( #1039 ) ) ;
#887 = CC_DESIGN_PERSON_AND_ORGANIZATION_ASSIGNMENT ( #917, #682, ( #221 ) ) ;
#888 = CARTESIAN_POINT ( 'NONE',  ( 0.000000000000000000, 0.000000000000000000, 0.000000000000000000 ) ) ;
#889 = ROLE_ASSOCIATION ( #609, #814 ) ;
#890 = OBJECT_ROLE ('mandatory',$ ) ;
#891 = PRODUCT_DEFINITION_SHAPE ( 'NONE', 'NONE',  #1044 ) ;
#892 = ITEM_DEFINED_TRANSFORMATION ( 'NONE', 'NONE', #871,  #367 ) ;
#893 = CC_DESIGN_DATE_AND_TIME_ASSIGNMENT ( #380, #628, ( #821 ) ) ;
#894 = COORDINATED_UNIVERSAL_TIME_OFFSET ( 5, 0, .BEHIND. ) ;
#895 = CARTESIAN_POINT ( 'NONE',  ( 675.9844653746397398, 776.6347219771705568, 1329.390969747888903 ) ) ;
#896 = SECURITY_CLASSIFICATION ( '', '', #922 ) ;
#897 = PERSON_AND_ORGANIZATION ( #18446744073709551615, #18446744073709551615 ) ;
#898 = DATE_AND_TIME ( #976, #12 ) ;
#899 = CC_DESIGN_APPROVAL ( #481, ( #44 ) ) ;
#900 = DIRECTION ( 'NONE',  ( 1.000000000000000000, 0.000000000000000000, 0.000000000000000000 ) ) ;
#901 = APPROVAL_DATE_TIME ( #319, #422 ) ;
#902 = CALENDAR_DATE ( 2026, 9, 1 ) ;
#903 = APPROVAL_DATE_TIME ( #680, #428 ) ;
#904 = APPROVAL ( #75, 'UNKNOWN' ) ;
#905 = APPROVAL ( #33, 'Coincident' ) ;
#906 = PROPERTY_DEFINITION_REPRESENTATION ( #666, #138 ) ;
#907 =( REPRESENTATION_RELATIONSHIP ('NONE','NONE', #1035, #102 ) REPRESENTATION_RELATIONSHIP_WITH_TRANSFORMATION ( #67 )SHAPE_REPRESENTATION_RELATIONSHIP( ) );
#908 = DOCUMENT_FILE ( 'Cone_asm_1.STEP' , '', '', #499, '' ,$ ) ;
#909 = APPLICATION_PROTOCOL_DEFINITION ( 'international standard', 'config_control_design', 1994, #613 ) ;
#910 = PERSON_AND_ORGANIZATION ( #18446744073709551615, #18446744073709551615 ) ;
#911 = APPROVAL_ROLE ( '' ) ;
#912 = CC_DESIGN_SECURITY_CLASSIFICATION ( #267, ( #1041 ) ) ;
#913 = SECURITY_CLASSIFICATION_LEVEL ( 'unclassified' ) ;
#914 = AXIS2_PLACEMENT_3D ( 'NONE', #610, #832, #359 ) ;
#915 = APPROVAL ( #829, 'UNKNOWN' ) ;
#916 = CC_DESIGN_SECURITY_CLASSIFICATION ( #255, ( #1022 ) ) ;
#917 = PERSON_AND_ORGANIZATION ( #398, #622 ) ;
#918 = PERSON_AND_ORGANIZATION ( #159, #19 ) ;
#919 = PERSON_AND_ORGANIZATION ( #18446744073709551615, #18446744073709551615 ) ;
#920 =( LENGTH_UNIT ( ) NAMED_UNIT ( * ) SI_UNIT ( .MILLI., .METRE. ) );
#921 = CALENDAR_DATE ( 2026, 9, 1 ) ;
#922 = SECURITY_CLASSIFICATION_LEVEL ( 'unclassified' ) ;
#923 = PRODUCT_DEFINITION ( 'General', '', #885, #234 ) ;
#924 = PERSON_AND_ORGANIZATION ( #18446744073709551615, #18446744073709551615 ) ;
#925 = PERSON_AND_ORGANIZATION ( #18446744073709551615, #18446744073709551615 ) ;
#926 = COORDINATED_UNIVERSAL_TIME_OFFSET ( 5, 0, .BEHIND. ) ;
#927 = DOCUMENT_TYPE ( 'geometry' ) ;
#928 = SHAPE_REPRESENTATION ( 'Cone_asm', ( #349 ), #471 ) ;
#929 = DATE_TIME_ROLE ( 'classification_date' ) ;
#930 = CC_DESIGN_PERSON_AND_ORGANIZATION_ASSIGNMENT ( #897, #745, ( #124 ) ) ;
#931 = LOCAL_TIME ( 0, 57, 21.00000000000000000, #108 ) ;
#932 = SHAPE_DEFINITION_REPRESENTATION ( #941, #1035 ) ;
#933 = CC_DESIGN_APPROVAL ( #422, ( #305 ) ) ;
#934 = SECURITY_CLASSIFICATION_LEVEL ( 'unclassified' ) ;
#935 = SECURITY_CLASSIFICATION ( '', '', #913 ) ;
#936 = CALENDAR_DATE ( 2026, 9, 1 ) ;
#937 = APPROVAL_PERSON_ORGANIZATION ( #713, #422, #552 ) ;
#938 = SHAPE_DEFINITION_REPRESENTATION ( #254, #719 ) ;
#939 = DATE_TIME_ROLE ( 'classification_date' ) ;
#940 = COORDINATED_UNIVERSAL_TIME_OFFSET ( 5, 0, .BEHIND. ) ;
#941 = PRODUCT_DEFINITION_SHAPE ( 'NONE', 'NONE',  #575 ) ;
#943 = APPLICATION_CONTEXT ( 'configuration controlled 3d designs of mechanical parts and assemblies' ) ;
#942 = APPROVAL_STATUS ( 'not_yet_approved' ) ;
#944 = PRODUCT_DEFINITION ( 'General', '', #272, #149 ) ;
#945 = PERSON ( 'NAUO-PER12', 'UNSPECIFIED', 'UNSPECIFIED', ('UNSPECIFIED'), ('UNSPECIFIED'), ('UNSPECIFIED') ) ;
#946 =( NAMED_UNIT ( * ) SI_UNIT ( $, .STERADIAN. ) SOLID_ANGLE_UNIT ( ) );
#947 = PROPERTY_DEFINITION_REPRESENTATION ( #859, #719 ) ;
#948 = DESIGN_CONTEXT ( 'detailed design', #451, 'design' ) ;
#949 = DATE_TIME_ROLE ( 'creation_date' ) ;
#950 = LOCAL_TIME ( 0, 57, 21.00000000000000000, #712 ) ;
#951 = PERSON_AND_ORGANIZATION_ROLE ( 'design_owner' ) ;
#952 = APPROVAL_DATE_TIME ( #466, #225 ) ;
#953 = CC_DESIGN_PERSON_AND_ORGANIZATION_ASSIGNMENT ( #478, #641, ( #586 ) ) ;
#954 = PRODUCT_DEFINITION_SHAPE ( 'NONE', 'NONE',  #1043 ) ;
#955 = PERSON_AND_ORGANIZATION ( #18446744073709551615, #18446744073709551615 ) ;
#956 = APPROVAL ( #179, 'Coincident' ) ;
#957 = AXIS2_PLACEMENT_3D ( 'NONE', #172, #960, #259 ) ;
#958 = LOCAL_TIME ( 0, 57, 21.00000000000000000, #70 ) ;
#959 = CALENDAR_DATE ( 2026, 9, 1 ) ;
#960 = DIRECTION ( 'NONE',  ( 0.000000000000000000, 0.000000000000000000, 1.000000000000000000 ) ) ;
#961 = DATE_TIME_ROLE ( 'classification_date' ) ;
#962 = APPROVAL_STATUS ( 'not_yet_approved' ) ;
#963 = CC_DESIGN_PERSON_AND_ORGANIZATION_ASSIGNMENT ( #343, #673, ( #272 ) ) ;
#964 = PERSON ( 'NAUO-PER5', 'UNSPECIFIED', 'UNSPECIFIED', ('UNSPECIFIED'), ('UNSPECIFIED'), ('UNSPECIFIED') ) ;
#965 =( LENGTH_UNIT ( ) NAMED_UNIT ( * ) SI_UNIT ( .MILLI., .METRE. ) );
#966 = PERSON_AND_ORGANIZATION_ROLE ( 'creator' ) ;
#967 = EXTERNAL_SOURCE (IDENTIFIER('') ) ;
#968 = DIRECTION ( 'NONE',  ( 0.000000000000000000, 0.000000000000000000, 1.000000000000000000 ) ) ;
#969 = DATE_AND_TIME ( #578, #486 ) ;
#970 = PROPERTY_DEFINITION ('document property','', #434 ) ;
#971 = LOCAL_TIME ( 0, 57, 21.00000000000000000, #245 ) ;
#972 = APPLIED_DOCUMENT_REFERENCE ( #662,'',( #157) ) ;
#973 = DATE_AND_TIME ( #261, #335 ) ;
#974 = CC_DESIGN_PERSON_AND_ORGANIZATION_ASSIGNMENT ( #800, #502, ( #228 ) ) ;
#975 = DOCUMENT_FILE ( 'Fan.STEP' , '', '', #927, '' ,$ ) ;
#976 = CALENDAR_DATE ( 2026, 9, 1 ) ;
#977 = DIRECTION ( 'NONE',  ( 0.000000000000000000, 0.000000000000000000, 1.000000000000000000 ) ) ;
#978 = LOCAL_TIME ( 0, 57, 21.00000000000000000, #698 ) ;
#979 = CONTEXT_DEPENDENT_SHAPE_REPRESENTATION ( #24, #809 ) ;
#980 = IDENTIFICATION_ROLE ( 'external document id and location', $) ;
#981 = APPROVAL ( #45, 'Coincident' ) ;
#982 = COORDINATED_UNIVERSAL_TIME_OFFSET ( 5, 0, .BEHIND. ) ;
#983 = LOCAL_TIME ( 0, 57, 21.00000000000000000, #596 ) ;
#984 = LOCAL_TIME ( 0, 57, 21.00000000000000000, #617 ) ;
#985 = CARTESIAN_POINT ( 'NONE',  ( 660.7803274365687685, 944.0368841466352023, 1344.428184702081808 ) ) ;
#986 = APPROVAL_PERSON_ORGANIZATION ( #917, #854, #34 ) ;
#987 = COORDINATED_UNIVERSAL_TIME_OFFSET ( 5, 0, .BEHIND. ) ;
#988 = ITEM_DEFINED_TRANSFORMATION ( 'NONE', 'NONE', #914,  #403 ) ;
#989 = APPROVAL_ROLE ( '' ) ;
#990 = APPROVAL ( #506, 'Coincident' ) ;
#991 = APPROVAL_DATE_TIME ( #340, #905 ) ;
#992 = ROLE_ASSOCIATION ( #253, #692 ) ;
#993 = CALENDAR_DATE ( 2026, 9, 1 ) ;
#994 = DATE_AND_TIME ( #831, #455 ) ;
#995 =( NAMED_UNIT ( * ) PLANE_ANGLE_UNIT ( ) SI_UNIT ( $, .RADIAN. ) );
#996 =( REPRESENTATION_RELATIONSHIP ('NONE','NONE', #1035, #719 ) REPRESENTATION_RELATIONSHIP_WITH_TRANSFORMATION ( #988 )SHAPE_REPRESENTATION_RELATIONSHIP( ) );
#997 = APPROVAL_ROLE ( '' ) ;
#998 = LOCAL_TIME ( 0, 57, 21.00000000000000000, #356 ) ;
#999 = APPROVAL_ROLE ( '' ) ;
#1000 = ORGANIZATION ( 'NAUO-ORG10', 'UNSPECIFIED', 'UNSPECIFIED' ) ;
#1001 = PERSON_AND_ORGANIZATION_ROLE ( 'design_owner' ) ;
#1002 = PERSON_AND_ORGANIZATION ( #18446744073709551615, #18446744073709551615 ) ;
#1003 = AXIS2_PLACEMENT_3D ( 'NONE', #820, #681, #275 ) ;
#1004 = LOCAL_TIME ( 0, 57, 21.00000000000000000, #699 ) ;
#1005 = CALENDAR_DATE ( 2026, 9, 1 ) ;
#1006 = DATE_AND_TIME ( #445, #998 ) ;
#1007 = APPLICATION_PROTOCOL_DEFINITION ( 'international standard', 'config_control_design', 1994, #508 ) ;
#1008 = COORDINATED_UNIVERSAL_TIME_OFFSET ( 5, 0, .BEHIND. ) ;
#1009 = PERSON ( 'NAUO-PER11', 'UNSPECIFIED', 'UNSPECIFIED', ('UNSPECIFIED'), ('UNSPECIFIED'), ('UNSPECIFIED') ) ;
#1010 = DIRECTION ( 'NONE',  ( 0.000000000000000000, 0.000000000000000000, 1.000000000000000000 ) ) ;
#1011 = APPROVAL_DATE_TIME ( #120, #915 ) ;
#1012 = PRODUCT_DEFINITION ( 'General', '', #124, #557 ) ;
#1013 = APPROVAL_DATE_TIME ( #360, #735 ) ;
#1014 = CALENDAR_DATE ( 2026, 9, 1 ) ;
#1015 = ITEM_DEFINED_TRANSFORMATION ( 'NONE', 'NONE', #43,  #403 ) ;
#1016 = CC_DESIGN_PERSON_AND_ORGANIZATION_ASSIGNMENT ( #621, #328, ( #400 ) ) ;
#1017 = PERSON_AND_ORGANIZATION ( #18446744073709551615, #18446744073709551615 ) ;
#1018 = ORGANIZATION ( 'NAUO-ORG11', 'UNSPECIFIED', 'UNSPECIFIED' ) ;
#1020 = APPROVAL_DATE_TIME ( #131, #53 ) ;
#1019 = APPLICATION_CONTEXT ( 'configuration controlled 3d designs of mechanical parts and assemblies' ) ;
#1021 = PRODUCT_DEFINITION_SHAPE ( 'NONE', 'NONE',  #1041 ) ;
#1022 = PRODUCT_DEFINITION_FORMATION_WITH_SPECIFIED_SOURCE ( 'Symmetric', '', #168, .NOT_KNOWN. ) ;
#1023 = PROPERTY_DEFINITION_REPRESENTATION ( #248, #102 ) ;
#1024 = PRODUCT_DEFINITION_FORMATION_WITH_SPECIFIED_SOURCE ( 'Symmetric', '', #71, .NOT_KNOWN. ) ;
#1025 = APPROVAL_STATUS ( 'not_yet_approved' ) ;
#1026 = CC_DESIGN_APPROVAL ( #205, ( #1012 ) ) ;
#1027 = CC_DESIGN_DATE_AND_TIME_ASSIGNMENT ( #459, #929, ( #368 ) ) ;
#1028 = DATE_AND_TIME ( #458, #731 ) ;
#1029 = DATE_AND_TIME ( #154, #846 ) ;
#1030 = APPROVAL_STATUS ( 'not_yet_approved' ) ;
#1031 = PROPERTY_DEFINITION ('external definition','', #192 ) ;
#1032 = CC_DESIGN_DATE_AND_TIME_ASSIGNMENT ( #61, #961, ( #267 ) ) ;
#1033 = APPROVAL_ROLE ( '' ) ;
#1034 = APPROVAL_STATUS ( 'not_yet_approved' ) ;
#1035 = SHAPE_REPRESENTATION ( 'Main Assembly', ( #850, #957, #505, #871, #97, #436, #676, #1003, #43, #645, #914 ), #489 ) ;
#1036 = NEXT_ASSEMBLY_USAGE_OCCURRENCE ( 'NAUO5', ' ', ' ', #575, #1012, $ ) ;
#1037 = NEXT_ASSEMBLY_USAGE_OCCURRENCE ( 'NAUO6', ' ', ' ', #575, #157, $ ) ;
#1038 = NEXT_ASSEMBLY_USAGE_OCCURRENCE ( 'NAUO7', ' ', ' ', #575, #44, $ ) ;
#1039 = NEXT_ASSEMBLY_USAGE_OCCURRENCE ( 'NAUO8', ' ', ' ', #575, #157, $ ) ;
#1040 = NEXT_ASSEMBLY_USAGE_OCCURRENCE ( 'NAUO9', ' ', ' ', #575, #944, $ ) ;
#1041 = NEXT_ASSEMBLY_USAGE_OCCURRENCE ( 'NAUO10', ' ', ' ', #575, #923, $ ) ;
#1042 = NEXT_ASSEMBLY_USAGE_OCCURRENCE ( 'NAUO11', ' ', ' ', #575, #126, $ ) ;
#1043 = NEXT_ASSEMBLY_USAGE_OCCURRENCE ( 'NAUO12', ' ', ' ', #575, #126, $ ) ;
#1044 = NEXT_ASSEMBLY_USAGE_OCCURRENCE ( 'NAUO13', ' ', ' ', #575, #126, $ ) ;
#1045 = NEXT_ASSEMBLY_USAGE_OCCURRENCE ( 'NAUO14', ' ', ' ', #575, #126, $ ) ;
ENDSEC;
END-ISO-10303-21;
