ISO-10303-21;
HEADER;
FILE_DESCRIPTION (( 'STEP AP203' ),
    '1' );
FILE_NAME ('Top.STEP',
    '2026-01-09T05:57:20',
    ( '' ),
    ( '' ),
    'SwSTEP 2.0',
    'SolidWorks 2026',
    '' );
FILE_SCHEMA (( 'CONFIG_CONTROL_DESIGN' ));
ENDSEC;

DATA;
#1 = CALENDAR_DATE ( 2026, 9, 1 ) ;
#2 = DATE_AND_TIME ( #111, #37 ) ;
#3 = MANIFOLD_SOLID_BREP ( 'Boss-Extrude1', #109 ) ;
#4 = APPROVAL_ROLE ( '' ) ;
#5 = APPROVAL ( #17, 'Coincident' ) ;
#6 = DATE_AND_TIME ( #23, #77 ) ;
#7 = ORIENTED_EDGE ( 'NONE', *, *, #165, .T. ) ;
#8 = ORIENTED_EDGE ( 'NONE', *, *, #12, .F. ) ;
#9 = PRODUCT_DEFINITION_SHAPE ( 'NONE', 'NONE',  #118 ) ;
#10 = CARTESIAN_POINT ( 'NONE',  ( 0.000000000000000000, 0.000000000000000000, 0.000000000000000000 ) ) ;
#11 = DIRECTION ( 'NONE',  ( 0.000000000000000000, 1.000000000000000000, 0.000000000000000000 ) ) ;
#12 = EDGE_CURVE ( 'NONE', #152, #157, #119, .T. ) ;
#13 = PERSON_AND_ORGANIZATION_ROLE ( 'creator' ) ;
#14 = AXIS2_PLACEMENT_3D ( 'NONE', #16, #107, #135 ) ;
#15 = CC_DESIGN_SECURITY_CLASSIFICATION ( #46, ( #93 ) ) ;
#16 = CARTESIAN_POINT ( 'NONE',  ( 0.000000000000000000, 0.005000000000000000104, 0.000000000000000000 ) ) ;
#17 = APPROVAL_STATUS ( 'not_yet_approved' ) ;
#18 = APPROVAL_ROLE ( '' ) ;
#19 = CIRCLE ( 'NONE', #113, 0.009999999999999998473 ) ;
#20 = PERSON_AND_ORGANIZATION ( #18446744073709551615, #18446744073709551615 ) ;
#21 = AXIS2_PLACEMENT_3D ( 'NONE', #27, #54, #169 ) ;
#22 = CC_DESIGN_PERSON_AND_ORGANIZATION_ASSIGNMENT ( #108, #71, ( #93 ) ) ;
#23 = CALENDAR_DATE ( 2026, 9, 1 ) ;
#24 = CARTESIAN_POINT ( 'NONE',  ( 0.000000000000000000, 0.005000000000000000104, 0.000000000000000000 ) ) ;
#25 = ORIENTED_EDGE ( 'NONE', *, *, #165, .F. ) ;
#26 =( GEOMETRIC_REPRESENTATION_CONTEXT ( 3 ) GLOBAL_UNCERTAINTY_ASSIGNED_CONTEXT ( ( #28 ) ) GLOBAL_UNIT_ASSIGNED_CONTEXT ( ( #72, #44, #73 ) ) REPRESENTATION_CONTEXT ( 'NONE', 'WORKASPACE' ) );
#27 = CARTESIAN_POINT ( 'NONE',  ( 0.000000000000000000, 0.005000000000000000104, 0.000000000000000000 ) ) ;
#28 = UNCERTAINTY_MEASURE_WITH_UNIT (LENGTH_MEASURE( 1.000000000000000082E-05 ), #72, 'distance_accuracy_value', 'NONE');
#29 = LINE ( 'NONE', #39, #168 ) ;
#30 = CYLINDRICAL_SURFACE ( 'NONE', #14, 0.009999999999999998473 ) ;
#31 = AXIS2_PLACEMENT_3D ( 'NONE', #141, #103, #154 ) ;
#32 = LOCAL_TIME ( 0, 57, 20.00000000000000000, #84 ) ;
#33 = CALENDAR_DATE ( 2026, 9, 1 ) ;
#34 = DIRECTION ( 'NONE',  ( 1.000000000000000000, 0.000000000000000000, 0.000000000000000000 ) ) ;
#35 = SECURITY_CLASSIFICATION_LEVEL ( 'unclassified' ) ;
#36 = COORDINATED_UNIVERSAL_TIME_OFFSET ( 5, 0, .BEHIND. ) ;
#37 = LOCAL_TIME ( 0, 57, 20.00000000000000000, #139 ) ;
#38 = ORIENTED_EDGE ( 'NONE', *, *, #112, .T. ) ;
#39 = CARTESIAN_POINT ( 'NONE',  ( 1.224646799147352999E-18, 0.005000000000000000104, 0.009999999999999998473 ) ) ;
#40 = CYLINDRICAL_SURFACE ( 'NONE', #31, 0.009999999999999998473 ) ;
#41 = CARTESIAN_POINT ( 'NONE',  ( 1.224646799147352999E-18, 0.005000000000000000104, 0.009999999999999998473 ) ) ;
#42 = CC_DESIGN_PERSON_AND_ORGANIZATION_ASSIGNMENT ( #48, #173, ( #118 ) ) ;
#43 = CARTESIAN_POINT ( 'NONE',  ( 0.000000000000000000, 0.005000000000000000104, -0.009999999999999998473 ) ) ;
#44 =( NAMED_UNIT ( * ) PLANE_ANGLE_UNIT ( ) SI_UNIT ( $, .RADIAN. ) );
#45 = CC_DESIGN_PERSON_AND_ORGANIZATION_ASSIGNMENT ( #145, #162, ( #46 ) ) ;
#46 = SECURITY_CLASSIFICATION ( '', '', #35 ) ;
#47 = PERSON_AND_ORGANIZATION ( #18446744073709551615, #18446744073709551615 ) ;
#48 = PERSON_AND_ORGANIZATION ( #18446744073709551615, #18446744073709551615 ) ;
#49 = APPLICATION_CONTEXT ( 'configuration controlled 3d designs of mechanical parts and assemblies' ) ;
#50 = CC_DESIGN_PERSON_AND_ORGANIZATION_ASSIGNMENT ( #47, #13, ( #93 ) ) ;
#51 = LOCAL_TIME ( 0, 57, 20.00000000000000000, #36 ) ;
#52 = APPLICATION_CONTEXT ( 'configuration controlled 3d designs of mechanical parts and assemblies' ) ;
#53 = ORIENTED_EDGE ( 'NONE', *, *, #12, .T. ) ;
#54 = DIRECTION ( 'NONE',  ( 0.000000000000000000, 1.000000000000000000, 0.000000000000000000 ) ) ;
#55 = AXIS2_PLACEMENT_3D ( 'NONE', #24, #11, #92 ) ;
#56 = ORIENTED_EDGE ( 'NONE', *, *, #155, .T. ) ;
#57 = ORIENTED_EDGE ( 'NONE', *, *, #149, .F. ) ;
#58 = ADVANCED_FACE ( 'NONE', ( #90 ), #40, .T. ) ;
#59 = FACE_OUTER_BOUND ( 'NONE', #116, .T. ) ;
#60 = ADVANCED_FACE ( 'NONE', ( #59 ), #133, .T. ) ;
#61 = DATE_AND_TIME ( #1, #32 ) ;
#62 = DATE_AND_TIME ( #98, #51 ) ;
#63 = CC_DESIGN_APPROVAL ( #5, ( #118 ) ) ;
#64 = DIRECTION ( 'NONE',  ( 0.000000000000000000, 0.000000000000000000, 1.000000000000000000 ) ) ;
#65 = APPROVAL_DATE_TIME ( #6, #122 ) ;
#66 = ORIENTED_EDGE ( 'NONE', *, *, #112, .F. ) ;
#67 = DIRECTION ( 'NONE',  ( 0.000000000000000000, 1.000000000000000000, 0.000000000000000000 ) ) ;
#68 = CARTESIAN_POINT ( 'NONE',  ( 0.000000000000000000, 0.005000000000000000104, -0.009999999999999998473 ) ) ;
#69 = PRODUCT ( 'Top', 'Top', '', ( #136 ) ) ;
#70 = EDGE_CURVE ( 'NONE', #152, #129, #29, .T. ) ;
#71 = PERSON_AND_ORGANIZATION_ROLE ( 'design_supplier' ) ;
#72 =( LENGTH_UNIT ( ) NAMED_UNIT ( * ) SI_UNIT ( $, .METRE. ) );
#73 =( NAMED_UNIT ( * ) SI_UNIT ( $, .STERADIAN. ) SOLID_ANGLE_UNIT ( ) );
#74 = AXIS2_PLACEMENT_3D ( 'NONE', #156, #105, #171 ) ;
#75 = DIRECTION ( 'NONE',  ( 0.000000000000000000, 1.000000000000000000, 0.000000000000000000 ) ) ;
#76 = AXIS2_PLACEMENT_3D ( 'NONE', #125, #75, #163 ) ;
#77 = LOCAL_TIME ( 0, 57, 20.00000000000000000, #167 ) ;
#78 = AXIS2_PLACEMENT_3D ( 'NONE', #10, #67, #83 ) ;
#79 = CARTESIAN_POINT ( 'NONE',  ( 0.000000000000000000, 0.000000000000000000, 0.000000000000000000 ) ) ;
#80 = APPROVAL ( #121, 'Coincident' ) ;
#81 = PLANE ( 'NONE',  #78 ) ;
#82 = LINE ( 'NONE', #68, #164 ) ;
#83 = DIRECTION ( 'NONE',  ( 0.000000000000000000, -0.000000000000000000, 1.000000000000000000 ) ) ;
#84 = COORDINATED_UNIVERSAL_TIME_OFFSET ( 5, 0, .BEHIND. ) ;
#85 = CARTESIAN_POINT ( 'NONE',  ( 0.000000000000000000, 0.000000000000000000, 0.000000000000000000 ) ) ;
#86 = CIRCLE ( 'NONE', #76, 0.009999999999999998473 ) ;
#87 = DATE_TIME_ROLE ( 'classification_date' ) ;
#88 = APPLICATION_PROTOCOL_DEFINITION ( 'international standard', 'config_control_design', 1994, #49 ) ;
#89 = EDGE_LOOP ( 'NONE', ( #8, #104, #7, #101 ) ) ;
#90 = FACE_OUTER_BOUND ( 'NONE', #89, .T. ) ;
#91 = CARTESIAN_POINT ( 'NONE',  ( 1.224646799147352999E-18, 0.000000000000000000, 0.009999999999999998473 ) ) ;
#92 = DIRECTION ( 'NONE',  ( 0.000000000000000000, -0.000000000000000000, 1.000000000000000000 ) ) ;
#93 = PRODUCT_DEFINITION_FORMATION_WITH_SPECIFIED_SOURCE ( 'Symmetric', '', #69, .NOT_KNOWN. ) ;
#94 = FACE_OUTER_BOUND ( 'NONE', #115, .T. ) ;
#95 = CIRCLE ( 'NONE', #21, 0.009999999999999998473 ) ;
#96 = DATE_TIME_ROLE ( 'creation_date' ) ;
#97 = DATE_AND_TIME ( #33, #138 ) ;
#98 = CALENDAR_DATE ( 2026, 9, 1 ) ;
#99 = PERSON_AND_ORGANIZATION_ROLE ( 'design_owner' ) ;
#100 = APPROVAL_PERSON_ORGANIZATION ( #144, #80, #147 ) ;
#101 = ORIENTED_EDGE ( 'NONE', *, *, #155, .F. ) ;
#102 = PRODUCT_RELATED_PRODUCT_CATEGORY ( 'detail', '', ( #69 ) ) ;
#103 = DIRECTION ( 'NONE',  ( -0.000000000000000000, -1.000000000000000000, -0.000000000000000000 ) ) ;
#104 = ORIENTED_EDGE ( 'NONE', *, *, #70, .T. ) ;
#105 = DIRECTION ( 'NONE',  ( 0.000000000000000000, 1.000000000000000000, 0.000000000000000000 ) ) ;
#106 = DIRECTION ( 'NONE',  ( -0.000000000000000000, -1.000000000000000000, -0.000000000000000000 ) ) ;
#107 = DIRECTION ( 'NONE',  ( -0.000000000000000000, -1.000000000000000000, -0.000000000000000000 ) ) ;
#108 = PERSON_AND_ORGANIZATION ( #18446744073709551615, #18446744073709551615 ) ;
#109 = CLOSED_SHELL ( 'NONE', ( #58, #160, #60, #128 ) ) ;
#110 = APPROVAL_DATE_TIME ( #2, #5 ) ;
#111 = CALENDAR_DATE ( 2026, 9, 1 ) ;
#112 = EDGE_CURVE ( 'NONE', #157, #152, #95, .T. ) ;
#113 = AXIS2_PLACEMENT_3D ( 'NONE', #79, #172, #130 ) ;
#114 = CC_DESIGN_APPROVAL ( #80, ( #93 ) ) ;
#115 = EDGE_LOOP ( 'NONE', ( #166, #66, #56, #159 ) ) ;
#116 = EDGE_LOOP ( 'NONE', ( #38, #53 ) ) ;
#117 = CC_DESIGN_DATE_AND_TIME_ASSIGNMENT ( #62, #96, ( #118 ) ) ;
#118 = PRODUCT_DEFINITION ( 'General', '', #93, #131 ) ;
#119 = CIRCLE ( 'NONE', #74, 0.009999999999999998473 ) ;
#120 = PERSON_AND_ORGANIZATION ( #18446744073709551615, #18446744073709551615 ) ;
#121 = APPROVAL_STATUS ( 'not_yet_approved' ) ;
#122 = APPROVAL ( #126, 'Coincident' ) ;
#123 = PERSON_AND_ORGANIZATION ( #18446744073709551615, #18446744073709551615 ) ;
#124 = APPROVAL_PERSON_ORGANIZATION ( #123, #5, #18 ) ;
#125 = CARTESIAN_POINT ( 'NONE',  ( 0.000000000000000000, 0.000000000000000000, 0.000000000000000000 ) ) ;
#126 = APPROVAL_STATUS ( 'not_yet_approved' ) ;
#127 = APPROVAL_PERSON_ORGANIZATION ( #20, #122, #4 ) ;
#128 = ADVANCED_FACE ( 'NONE', ( #153 ), #81, .F. ) ;
#129 = VERTEX_POINT ( 'NONE', #91 ) ;
#130 = DIRECTION ( 'NONE',  ( 0.000000000000000000, 0.000000000000000000, 1.000000000000000000 ) ) ;
#131 = DESIGN_CONTEXT ( 'detailed design', #49, 'design' ) ;
#132 = CC_DESIGN_DATE_AND_TIME_ASSIGNMENT ( #97, #87, ( #46 ) ) ;
#133 = PLANE ( 'NONE',  #55 ) ;
#134 = CC_DESIGN_PERSON_AND_ORGANIZATION_ASSIGNMENT ( #120, #99, ( #69 ) ) ;
#135 = DIRECTION ( 'NONE',  ( 0.000000000000000000, 0.000000000000000000, -1.000000000000000000 ) ) ;
#136 = MECHANICAL_CONTEXT ( 'NONE', #52, 'mechanical' ) ;
#137 = COORDINATED_UNIVERSAL_TIME_OFFSET ( 5, 0, .BEHIND. ) ;
#138 = LOCAL_TIME ( 0, 57, 20.00000000000000000, #137 ) ;
#139 = COORDINATED_UNIVERSAL_TIME_OFFSET ( 5, 0, .BEHIND. ) ;
#140 = AXIS2_PLACEMENT_3D ( 'NONE', #85, #64, #34 ) ;
#141 = CARTESIAN_POINT ( 'NONE',  ( 0.000000000000000000, 0.005000000000000000104, 0.000000000000000000 ) ) ;
#142 = EDGE_LOOP ( 'NONE', ( #57, #25 ) ) ;
#143 = DIRECTION ( 'NONE',  ( -0.000000000000000000, -1.000000000000000000, -0.000000000000000000 ) ) ;
#144 = PERSON_AND_ORGANIZATION ( #18446744073709551615, #18446744073709551615 ) ;
#145 = PERSON_AND_ORGANIZATION ( #18446744073709551615, #18446744073709551615 ) ;
#146 = CARTESIAN_POINT ( 'NONE',  ( 0.000000000000000000, 0.000000000000000000, -0.009999999999999998473 ) ) ;
#147 = APPROVAL_ROLE ( '' ) ;
#148 = APPROVAL_DATE_TIME ( #61, #80 ) ;
#149 = EDGE_CURVE ( 'NONE', #170, #129, #19, .T. ) ;
#150 = SHAPE_DEFINITION_REPRESENTATION ( #9, #151 ) ;
#151 = ADVANCED_BREP_SHAPE_REPRESENTATION ( 'Top', ( #3, #140 ), #26 ) ;
#152 = VERTEX_POINT ( 'NONE', #41 ) ;
#153 = FACE_OUTER_BOUND ( 'NONE', #142, .T. ) ;
#154 = DIRECTION ( 'NONE',  ( 0.000000000000000000, 0.000000000000000000, -1.000000000000000000 ) ) ;
#155 = EDGE_CURVE ( 'NONE', #157, #170, #82, .T. ) ;
#156 = CARTESIAN_POINT ( 'NONE',  ( 0.000000000000000000, 0.005000000000000000104, 0.000000000000000000 ) ) ;
#157 = VERTEX_POINT ( 'NONE', #43 ) ;
#158 = CC_DESIGN_APPROVAL ( #122, ( #46 ) ) ;
#159 = ORIENTED_EDGE ( 'NONE', *, *, #149, .T. ) ;
#160 = ADVANCED_FACE ( 'NONE', ( #94 ), #30, .T. ) ;
#161 = APPLICATION_PROTOCOL_DEFINITION ( 'international standard', 'config_control_design', 1994, #52 ) ;
#162 = PERSON_AND_ORGANIZATION_ROLE ( 'classification_officer' ) ;
#163 = DIRECTION ( 'NONE',  ( 0.000000000000000000, 0.000000000000000000, 1.000000000000000000 ) ) ;
#164 = VECTOR ( 'NONE', #106, 1.000000000000000000 ) ;
#165 = EDGE_CURVE ( 'NONE', #129, #170, #86, .T. ) ;
#166 = ORIENTED_EDGE ( 'NONE', *, *, #70, .F. ) ;
#167 = COORDINATED_UNIVERSAL_TIME_OFFSET ( 5, 0, .BEHIND. ) ;
#168 = VECTOR ( 'NONE', #143, 1.000000000000000000 ) ;
#169 = DIRECTION ( 'NONE',  ( 0.000000000000000000, 0.000000000000000000, 1.000000000000000000 ) ) ;
#170 = VERTEX_POINT ( 'NONE', #146 ) ;
#171 = DIRECTION ( 'NONE',  ( 0.000000000000000000, 0.000000000000000000, 1.000000000000000000 ) ) ;
#172 = DIRECTION ( 'NONE',  ( 0.000000000000000000, 1.000000000000000000, 0.000000000000000000 ) ) ;
#173 = PERSON_AND_ORGANIZATION_ROLE ( 'creator' ) ;
ENDSEC;
END-ISO-10303-21;
